/* XPM */
static char *_734903733ab4786e0c843515dec72b3fNdDw3ii9w0t8XKO[] = {
/* columns rows colors chars-per-pixel */
"64 64 232 2 ",
"   c #2B1D1C",
".  c #252D0A",
"X  c #263409",
"o  c #26360A",
"O  c #2C3B0B",
"+  c #32390C",
"@  c #2E261A",
"#  c #31271E",
"$  c #2A3C13",
"%  c #37381A",
"&  c #352B21",
"*  c #392B24",
"=  c #3D3527",
"-  c #6D1E11",
";  c #512D18",
":  c #492823",
">  c #423429",
",  c #4B382C",
"<  c #553A2A",
"1  c #4C3C32",
"2  c #6D3130",
"3  c #195610",
"4  c #2B450E",
"5  c #32430D",
"6  c #384B0E",
"7  c #3E550D",
"8  c #384516",
"9  c #3A4C12",
"0  c #2D5C16",
"q  c #3E5213",
"w  c #385815",
"e  c #18730C",
"r  c #2F631E",
"t  c #2A6D1D",
"y  c #386A1B",
"u  c #2D751F",
"i  c #2E781F",
"p  c #34751D",
"a  c #3C751E",
"s  c #33781F",
"d  c #3D781F",
"f  c #3B4421",
"g  c #3B5927",
"h  c #1D6724",
"j  c #1F752D",
"k  c #1F792F",
"l  c #2A6D23",
"z  c #287524",
"x  c #277927",
"c  c #2E7C22",
"v  c #21762B",
"b  c #237C2D",
"n  c #287E29",
"m  c #377726",
"M  c #327D21",
"N  c #3B7C21",
"B  c #217E31",
"V  c #40570D",
"C  c #425A0E",
"Z  c #44491C",
"A  c #455D12",
"S  c #465A18",
"D  c #456313",
"F  c #4A6414",
"G  c #4E6916",
"H  c #4D641A",
"J  c #4B6A1B",
"K  c #516B17",
"L  c #536C1A",
"P  c #44741E",
"I  c #4B751E",
"U  c #45781F",
"Y  c #4C781F",
"T  c #55721C",
"R  c #5A751E",
"E  c #56791F",
"W  c #474B26",
"Q  c #495826",
"!  c #555725",
"~  c #5A4733",
"^  c #535034",
"/  c #6B5433",
"(  c #6A5638",
")  c #466426",
"_  c #546A22",
"`  c #4C7422",
"'  c #447C21",
"]  c #4D7C21",
"[  c #597426",
"{  c #517F21",
"}  c #5D7B21",
"|  c #5C7030",
" . c #617D24",
".. c #637C2C",
"X. c #6F6931",
"o. c #657835",
"O. c #5D5556",
"+. c #725A42",
"@. c #675A51",
"#. c #6E6E50",
"$. c #767070",
"%. c #84171A",
"&. c #BB1315",
"*. c #B31A11",
"=. c #B7141F",
"-. c #84271D",
";. c #A6231C",
":. c #B02217",
">. c #8F1634",
",. c #B81528",
"<. c #AF1731",
"1. c #A41A3C",
"2. c #8D2D32",
"3. c #C1140F",
"4. c #C31412",
"5. c #CA1614",
"6. c #D71A1C",
"7. c #DF1A20",
"8. c #E51C23",
"9. c #D62B25",
"0. c #E62628",
"q. c #E52829",
"w. c #E8332F",
"e. c #EA3E35",
"r. c #89542C",
"t. c #CA4734",
"y. c #B61F4C",
"u. c #A9224A",
"i. c #C41C4D",
"p. c #896747",
"a. c #976C46",
"s. c #AB754A",
"d. c #EC5642",
"f. c #D56B4A",
"g. c #E86849",
"h. c #F17654",
"j. c #2E8225",
"k. c #26812E",
"l. c #2A832A",
"z. c #2C892C",
"x. c #328322",
"c. c #3B8222",
"v. c #348823",
"b. c #3C8923",
"n. c #3A852B",
"m. c #318A29",
"M. c #228332",
"N. c #248A35",
"B. c #298933",
"V. c #338A35",
"C. c #448322",
"Z. c #4C8222",
"A. c #458925",
"S. c #4C8A24",
"D. c #528422",
"F. c #558923",
"G. c #598B24",
"H. c #588728",
"J. c #458A36",
"K. c #4E9237",
"L. c #658325",
"P. c #688627",
"I. c #6A8927",
"U. c #668429",
"Y. c #698629",
"T. c #638C2A",
"R. c #6C8C2A",
"E. c #708F2D",
"W. c #6C932E",
"Q. c #68952F",
"!. c #73932D",
"~. c #77992F",
"^. c #688F31",
"/. c #738D38",
"(. c #759631",
"). c #769931",
"_. c #7A9C32",
"`. c #7C9A3B",
"'. c #7EA134",
"]. c #318D41",
"[. c #51954D",
"{. c #778C50",
"}. c #669B59",
"|. c #599E65",
" X c #6A9D68",
".X c #749D6B",
"XX c #7C9D6B",
"oX c #6B9E74",
"OX c #6AA263",
"+X c #76A46D",
"@X c #77A66E",
"#X c #7AA36D",
"$X c #6EA174",
"%X c #72A473",
"&X c #79A876",
"*X c #81A436",
"=X c #86A938",
"-X c #86AA38",
";X c #8CB13B",
":X c #81945A",
">X c #B28455",
",X c #8AA54E",
"<X c #849D6B",
"1X c #8E9578",
"2X c #85A36D",
"3X c #89A46D",
"4X c #85A979",
"5X c #CA8052",
"6X c #EF805B",
"7X c #F89E6A",
"8X c #F7AD74",
"9X c #827F82",
"0X c #7CAE85",
"qX c #86848B",
"wX c #88878E",
"eX c #8A888F",
"rX c #8C8C92",
"tX c #918E93",
"yX c #95949A",
"uX c #95959B",
"iX c #8BAD84",
"pX c #99AB9A",
"aX c #99B596",
"sX c #A2B499",
"dX c #9D9CA2",
"fX c #A5A7AA",
"gX c #A7B7A8",
"hX c #B0B6AD",
"jX c #ADAFB2",
"kX c #B4B7B7",
"lX c #B5C0B6",
"zX c #BFBEC2",
/* pixels */
"@X@X%XoXoXoX$X%X.X@X#X<X2X2X<X#X.X@X@X@X.X@X@X@XoX$X$X$X%X@X+X#X<X<X2X<X#X.X@X@X@X.X@X@X@X%XoX$X$X$X%X@X+XXX<X2X<X#X.X.X+X+X.X.X",
"v.v.c l.M.M.N.k.c c s b.c.b.p t i M c v.i x.v.x.M k.B N.B n x.u b.b.A.M t i j.p v.M u v.j.c k.b M.M.l.j.i c.A.b.c.i t x.v.x.j.i ",
"F.c.c x.l.k.M.B k.b z v.i x.M i i c.b.d d S.A.s c j.M.M.M.B n z M p c j.i u c.b.d s S.S.d c j.b k.M.k l.j i j.i x.i i p A.c.s C.",
"F.Y M u j.c l.j.l.v c i t i i c c.F.D.F.Z.D.Y c.M c.j.b b A.n.n M z u p i N S.D.D.D.D.F.d s x.x.n l.l.k.n p i t p i x.C.D.Z.F.Y ",
"F.Z.Y d x.x.v.x.c.j.i s p N C.' D.{ { E G.F.D.Z.H.(.H.b.G.'.H.x M M ' S.d Z.] D.D.F.D.F.Z.U p x.x.j.c.c.i i s s C.C.U D.D.Y D.G.",
"D.D.D.F.U U S.Z.S.Y U Y ' Y Y Y D.Y D.H._.R.H.R._._.).!.-X`.H.] Y._.R.{ U D.Y Y I D.I D.D.D.S.U C.A.D.Z.Y C.C.U Y I D.D.I D.D.Z.",
"y U p d d d ' Z.Y D.] D.Y D.] Y D.` D.H.-X'.Y.*X~.{.*X!.!.P.W.W.'.W.} Y I D.D.Y ] I P d U d U d C.U Y D.D.I D.Y D.Y Y Y Y D.Y I ",
"x.m i c s i j.b.c.C.U U S.S.Y Y ] T._.`.W.).U.R.} ..P.Y.*X!.).'.Y.E.L.D.D.).Y.I d C.C.i i i i i i x.b.c.C.U I Z.Z.Y I D.U s U C.",
"v.i x.x.v.i u x.v.v.x.s s x.d d c.A.W.'.!.L.Y.*X~.R.I.R E.*XR  ...,X*X .~.*XY x.x.i i v.c x.x.x.i i j.v.v.i s p d c.d x.x.x.x.i ",
"u i u x.i x.i x.M s i x.c x.x.v.x.x.N L.U.} R._.*XL.} C C P.K } R.P.~.R.!.P.P a p x.x.u i c x.c x.i x.x.i x.v.i x.v.x.j.x.s x.x.",
"u x.i i i x.j.i c x.c v.x.x.x.v.x.x.S.'._.Y.Y.L I.K  . .F G L L._.(.L.Y._.~.P.!.a x.i i m c.c c x.i i v.i v.l.x.v.v.v.x.j.x.i x.",
"k.i j.i x.x.i x.x.x.x.v.m.x.z.j.l.M W.-XY.!.R.:Xo.A ~.*X .I.*XP.[ I.P.T !.*X ./.| T.W.b.S.W.c.x.x.i i x.x.x.v.j.c z.j.j.x.i c z.",
"N.M.x j.c c i x.u c v.i j N.b k.B z ^.R.R I.L.:X .F R.;X~._.R.T I.*XP.G G U.o.sXhX~.-X^._.*Xn.c i i x.u x.x.i l.k.b N.k v k.l.M.",
"M.N.k.j j.u x.j.i i i x.z.k.b N.B.B v ` { } !. .R.~.P.!.!.I.L.T } P.L  .H o.V [ ).P.).I.R.R.] A.x.x.x.u i i x.z.M.M.M.N.j l.N.N.",
"k M.M.M.M.z x i c c v.i v.j.j j N.M.B n.n H.-XR.} Y.Y. .E.*X*X} K 6 H [ V C V V ~.(.U.U.~.).R.).' x i i x.j.v.j.i k k N.M.M.M.N.",
"M.M.N.k M.M.M.M.k j b i x.x.l.k.B B ] R.W.I.E.R.R P.~. .R I.-XS 9 S S :X| !.R 5 S 8 W L _ _ [ g y b M.j j l.j.i j.k.k M.k k.k M.",
"k M.l.M.M.M.k N.z.b i j.x.s x.j.l.M.n.H.).'.R.} L.-X_.R R G L.A S } F o.o.L.R.D P.o.~ Z ..S.M 3 h M.M.z.j.c j.j.x.x.j.M.M.N.M.M.",
"M.k k j k k k j.z v.v.v.i j.x.x.x.m.n.` } R.!.[ R.~.G G L V A H P.~.R Y.K 9 L F _.Y.Q f z e 3 h b l.c c x.v.x.i x.i x.j.z.k.M.b ",
"k.k.l.x.c j.l.j.v.M v.v.s A.x.s W.W.N ] P.*X).} L H A 6 5 9 T } !.-XI.T H O X 6 X.r.; , $ + + 8 m c x.M v.v.x.d c.i i v.j.u k.B.",
"j.j.x.j.x i i j.c i v.x.C.G.c.d Q.-XY.} _.!.L.Y.U._ Q . V U.E.R.P.P.} A G L 6 X.f.g.2.- * -.*.<.2 N c m p v.c.Z.F.x.x.v.s v.j.m.",
"v.j.j.n b k l.i x.x.x.Z.] F.^._.!.!.R.} R.!.R.L.R.H O O T E.L.R.L.F V R R.P.o.5X7Xh.t.-.%.:.&.&.1.Q T.L.] c.Z.D.Z.c.x.x.v.v.x.x.",
"v.i k j k k.k.v.i x.c.Y D.H.H.).*XP.R.).!.!._.!.L. .E.L T *X_.} L.R F !.P.T / g.d.q.q.q.9.9.6.3.,.< ~.T d U Y Z.D.U x.j.v.v.x.i ",
"v.v.j.l.M.M.N.k.M j.x.Z.S.).R.} I.P.L P.-XP.L.R.} L !.I.~.~.'.P.*XR.} G H T >Xd.h.0.8.8.0.0.8.5.&.2. .I C.d C.A.d p u i x.x.x.i ",
"A.x.i j.j N.N.k l.x t v.m D.L.I.*X!.F A  .U.Q Q L H ) [ ) ..L.I._.P.'.E.J ^.>Xh.8Xw.8.8.8.8.8.5.&.1._.R R U x.x.v.p u i b.v.i s ",
"G.U x.p x.M b k.k.B c j.i i Y *X!.G T F V  ...< Z Y.S.x.0 [ }  .!.R.I.R.F F a.d.h.e.8.8.8.8.6.4.,.>.-XR I E s i i i j.c.D.D.Z.U ",
"S.Z.d s x.x.j.x.x.c M M i d D.R.:X| K C K R K > = s e 3 L L K F !.*X~.} T T X.g.q.0.8.8.8.8.6.4.<.< } E p N t i x.c.U Z.D.D.G.F.",
"F.Z.F.D.d d b.S.Z.U ' W.R.Y [ I./.G C C I.R r.; < 4 + ; ! .. .V F L.R.F G T S >Xw.8.8.8.8.6.4.,.u.^ f y d U d U U Y D.Z.Y I E F.",
"P Z.P Z.U C.Z.Y Y D.` (.*XL.W.'./.} L. .p.f.h.2.- > - *.=./ R + G _._.F A F L X.t.8.8.8.6.4.,.i.2 $ 5 D Y ] Z.` D.Y Y E Y D.I U ",
"p s i i s i p b.U S.^.W.W.Y.I.L.:X{.`...5X7X6Xt.-.- ;.&.&.1.Z Z } =XH.G.P.V 5  .X.;.&.4.&.,.y.2.% | !.{ } L.} Z.S.Y Y Y Y C.U Z.",
"x.i x.i x.i i v.v.b.H.).P.P.~._.K V G / g.d.q.0.q.q.9.6.4.,.: V T P.L T.*XV H =XP.! - %.>.2.> S A G '.R.R.!.] N b.C.U C.c.s x.s ",
"i j.i x.x.x.i x.v.x.H.Y.L.Y.~.;XP.L T >Xg.h.0.8.8.q.0.8.5.&.2.H V R.R.q S 5 U.U.9 _.R 9 } R.L Y.'.).R.I.Y.I.U i i x.i x.x.x.v.i ",
"i c i s i i x.i c N '.'.R._. .!. .V  .>Xg.8Xw.8.8.8.8.8.5.&.1.8 @  .;X[ 8 5 S + + ) 5 % _ ).Y.R R.R.L.} E.*XG.x.v.v.v.x.x.i i v.",
"l.j.x.i x.x.i x.j.T.-X!.U.'.D q 9 X G a.d.h.w.8.8.8.8.7.5.,.>.X Z L _.~.U.A G 8 Q Q % % ~.-XL 6 R ~.W.G G I.G.x.j.v.j.v.j.u x.m.",
"k.k.i j.i i i x.c W.W.Y H.U.^ + 5 A T ~ g.0.0.8.8.8.8.6.&.<.: L !.K 9  .!.G C % A F O Z _.H O 5 R.-X .T J D Y k.k.k.k.k x j.j.M.",
"M.M.k.k j.x.j.j.i m m j.C.m ` H A E.E.S s.e.8.8.8.8.6.4.,.u.! W.} 5 . S  .K G F _.T O S  .S ^ #.Y.H 6 L D s p k.M.k.M.M.j M.M.N.",
"N.N.M.k k.t i j.i i j.m m.M G C D *XL.w ! t.8.8.7.6.4.=.i./ U.W.R A 5 A I.R R T I.S 8 Z R.U.) $ S 9 5 F p i x.z.v b M.N.k.M.N.N.",
"M.M.M.M.M.k k.k.n z k.x.i x.a t m Y.m B l / ;.4.4.&.,.y.2.S I.-X_.G H _ =XY.} I.*XL O 9 U.!.U.H H ..7 r y j.i x.j.k.k k.k M.M.M.",
"k M.k j M.M.k M.N.b z x.v.s j.j.x n B.b c 5 . - %.>.>.< 5 7 K K R.+ O S P.E.}  .*XU.. S -X_.!.Y.f {.y M j l.x.x.x.j.l.b M.M.k M.",
"M.l.M.M.M.k k l.i x.j.v.s j.x.c l.k.B.m  .R.R. .~.L.W.S X 9 T + Q $.> S *X*XL K H.} X U._.} '.L X 4 l.j.x.v.x.x.x.i i k.N.N.M.M.",
"k.k j k x l.k.j.x.x.v.v.i x.x.c v.V.M M A  ._.R.U.W._.H.O o 9 % = #., R.*XL L L #.Q X y l m I.y r w N c j.v.x.M j.i j.v.v.x k.M.",
"j.l.x.x.u j.v.i j.u v.x.d G.d i v.j.x.M y a  .L.}  .*X*XD X . * * * 8 [ H O H 6 O r o u m.x.s i j.s s i x.v.s Z.S.s i v.x.x.j.j.",
"j.j.z.j.x k x x.i x.v.C.Z.F.C.x.x.c v.v.v.C.~._.} [ R ~.I 0 & = = * & @ X X 0 r 4 i p c j.j.j.b n c s j.x.v.Y S.F.b.x.x.x.v.j.v.",
"v.i j.k k M.k v.x.x.c.Z.Y Z.Y x.v.v.v.x.p W.-XL. .Y.m ' v.M f = 1 &   % 0 0 v.v.x.c c j.c b j k b k.v.c x.C.Y D.D.U j.v.j.v.x.i ",
"v.x.j.k M.k k.j.s x.c.Y Z.Z.U i u v.j.x.s I.T.y } [ l M.z.z g > 1 *   q s i s x.v.i s v.j.c M.M.k.N.c i v.' Z.Z.Y a i x.v.x.x.i ",
"b.x.j.x.k M.N.k x i i v.x.x.s t i x.x.v.i c.A.s y M M.N.M.k g ~ 1 & & N t u x.x.x.i c.b.x.i l.b N.M.k j.c i c.x.v.i i p x.x.x.p ",
"G.C.i j.z.j.M.M.M.k.x x.i x.i x.u C.A.U U S.C.s i j.l.k.M.k.g ( 1 * # l i u c.Z.C.d F.D.c.i j.j.j.M.k.k.k.i i c i u i p A.C.d C.",
"S.I d i x.x.j.j.x.x s i t s c.s C.D.D.G.Z.D.Y C.i j.x.j.j.j.g / ~ , & m s N D.D.F.D.D.D.U s i x.x.j.j.l.i j.u u x.s c.Z.F.D.G.D.",
"G.S.S.Z.s p x.x.A.s s s s U Z.U D.Y E Y F.G.F.D.Z.d s b.x.C.f ~ ~ * # ` C.S.Y D.Y D.G.F.S.D.C.s M x.C.x.p i p p Z.Z.Y D.Y D.Y F.",
"Y D.Y D.U Z.S.Z.Z.E Y Z.Y Y Y Y F.Y D.Y Y I S.I S.Z.Y Z.D.Y Q 1 , & # J Y D.Z.Y D.Y I I D.Y S.U Z.F.] D.Z.Y Z.Y D.Y Y D.Y D.D.I ",
"a s p p p s c.C.Y F.Y Z.Z.D.E Y Y Y Z.Y Y P d s s a s d C.' | ~ 1 = * ` Y Y Y E Y Y Y m M s d s N c.U D.Z.I D.Y D.Y U Y Y Z.Y I ",
"x.i s i i i u v.j.b.a d C.A.Z.U Y A.j.d c.x.i i c i M z x.v.) < ~ > & ' Y U Z.J.n.b.b.M s i u i i c v.b.b.d U b.C.Z.U Z.C.s c.c.",
"s i j.v.x.x.i x.v.x.x.x.u i c.s j.x.s v.i i x.x.x.s j.s c m.Q +.( > # n.4X4X XgXsX XJ.c n.J.x.x.i i j.v.i x.x.i p c.i c.c x.c i ",
"i i i i i j.i x.x.i x.v.s v.j.v.x.x.c M c c s z i x.z x.c M ^ X.~ , > pXjXdXfXtXkXjXpX XgXfX$Xc x.i i x.i j.v.x.v.x.x.x.x.i i v.",
"i v.x.i x.x.x.i i x.u v.v.i v.v.x.x.x.c x.c x.c i i n.OX}.}.( ( ( / < tXdXrXwXwXdXfXtXjXdXrXgXaX[.j.J.n.i x.v.c x.v.v.j.v.i c v.",
"n j.c c u x.u x.i x.x.x.j.m.z.k.l.c c j.k.k.M.c j.n.aXfXfXfX+.p.p./ , wXwXwXwXwXrXtXeXeXwXwXdXdXpXiXkX4Xx.x.j.j.l.z.k.l.c c j.k.",
"N.M.j l.x.i i x.i i j.M k N.v k.M.v b k.N.N.N.j j.x.iXjXeXtX+.a.p.< > wXrXwXwXwXrXwXwXwXwXwXfXfXtXuXfX.Xx.x.i k.k.j M.M.k k.k.N.",
"M.N.M.j l.c x.j.i i u u m.k.v M.N.M.B M.N.N.N.N.B.&XkXkXrXqX+.a.p.< > 9XrX9XrXrXwXrXuXrXeXeXwXuXrXjXgX[.i i x.z.k M.k.N.M.B M.N.",
"M.M.N.k.M.v v k x j.m.c v.v.k.j M.k.M.B M.M.B ].gXkXuXdXrX9X+.a.p.< > $.rXrXrX9XwXwXtXrXrXqXdXkXrXjX[.x c z.i x.j.v k N.M.M.M.N.",
"M.k M.j M.k M.M.M.v j j.x.x.j.l.M.B M.k M.M.B N.$XpXuXfXdX$.( p.+.,   O.rXrXrXrXwXwXwXyXuXdXtXfXjXkX|.b v b x.x.x.j.k.k M.M.k M.",
"k M.M.M.N.b k k.j.j.j.v.x.i x.j.k.M.N.k.B B k M.k |.jXtXuX$.#.p.p.W * 1 rXdXrXdXfXfXwXwXuXjXuXjX0XoXB.j.j.v.x.x.i x.j.k.N.M.M.M.",
"N.k k k j.b k.j.i x.v.v.i x.i x.j.z.j.k.B.N.M.v k V.aXgXiX&X4X1X( , > $.dXfX9XrXyXuXtXrXeXuXdXzX0Xl.j.c v.v.v.i x.j.j.v.N.i k.N.",
"j.M.c v.i j.c c x.p v.v.d A.x.i v.v.c c z.M b l.j.j.V.V.c x.i }.1X@.O.eXtXfXjXfXtXgXaXfXdXlXiX4X[.c x.i x.v.s C.C.s i v.j.u l.k.",
"i v.j.j.i b i x.i i v.v.I F.C.i v.c v.x.j.v.x.x.j.M x n c x.z x.K.<X3XhXaX X[.%XaX[.b.[.aX&Xj.x j.s j.i i v.U D.S.c.i v.j.v.v.v.",
"+X+X%XoX$X$X$X@X@X@X#X2X2X2X<X@X@X@X@X#X+X%X@X&XoXoX$X%X#X@X@X@X2X2X3XiX4X+X+X.X&X@X+X@X&X$XoX$XoXoX@X@X@X#X2X3X2XXX@X@X@X@X@X@X"
};
