/* XPM */
static char *e7fba13e9e634c34dfcab21a0845e708oPquYfrtaza5ddQs[] = {
/* columns rows colors chars-per-pixel */
"64 64 246 2 ",
"   c #190E0F",
".  c #1B1614",
"X  c #270F16",
"o  c #231313",
"O  c #2F1112",
"+  c #241319",
"@  c #291718",
"#  c #381417",
"$  c #0F310A",
"%  c #1A2315",
"&  c #28261C",
"*  c #33261C",
"=  c #2A2722",
"-  c #362B24",
";  c #36342B",
":  c #4B1412",
">  c #68110D",
",  c #72120F",
"<  c #502824",
"1  c #48342C",
"2  c #493838",
"3  c #573D36",
"4  c #73322B",
"5  c #104F07",
"6  c #11450A",
"7  c #0A5903",
"8  c #1D4514",
"9  c #096702",
"0  c #066C00",
"q  c #087002",
"w  c #17750A",
"e  c #2A6D1D",
"r  c #3D6F1D",
"t  c #277C14",
"y  c #2D751F",
"u  c #2E781F",
"i  c #37751E",
"p  c #33781F",
"a  c #3D781F",
"s  c #3B482E",
"d  c #1F752D",
"f  c #1F792F",
"g  c #277524",
"h  c #277927",
"j  c #2E7C22",
"k  c #21762B",
"l  c #237C2D",
"z  c #287E29",
"x  c #317E21",
"c  c #3B7D25",
"v  c #217E31",
"b  c #3A7D30",
"n  c #436C1C",
"m  c #47751F",
"M  c #45781F",
"N  c #4C781F",
"B  c #464B39",
"V  c #5A413A",
"C  c #6C4234",
"Z  c #4C6F2C",
"A  c #447C20",
"S  c #4D7C20",
"D  c #4F702D",
"F  c #507F21",
"G  c #567E2E",
"H  c #697527",
"J  c #673C4B",
"K  c #4A4F46",
"L  c #594A47",
"P  c #55554D",
"I  c #545555",
"U  c #5A5956",
"Y  c #654C46",
"T  c #725852",
"R  c #596353",
"E  c #687051",
"W  c #6E5E63",
"Q  c #6A6765",
"!  c #736A67",
"~  c #6D726B",
"^  c #74736A",
"/  c #757673",
"(  c #86120D",
")  c #9A120B",
"_  c #941518",
"`  c #A5120A",
"'  c #AE120A",
"]  c #B2120B",
"[  c #B2150B",
"{  c #BC130E",
"}  c #B31313",
"|  c #B61518",
" . c #8A183A",
".. c #A51523",
"X. c #B51422",
"o. c #B91529",
"O. c #BB1637",
"+. c #943029",
"@. c #A63238",
"#. c #C0140F",
"$. c #C41411",
"%. c #CA1615",
"&. c #C51817",
"*. c #D11718",
"=. c #D5191B",
"-. c #DC1A1E",
";. c #E0191F",
":. c #C7231B",
">. c #C3162C",
",. c #DF1B20",
"<. c #E51C23",
"1. c #D32A24",
"2. c #CC362A",
"3. c #DA332B",
"4. c #D9362B",
"5. c #E62327",
"6. c #E62D2D",
"7. c #E6312E",
"8. c #E52D30",
"9. c #E73531",
"0. c #E73C34",
"q. c #984B37",
"w. c #AD523B",
"e. c #D24F36",
"r. c #E7453A",
"t. c #E94B3E",
"y. c #ED563E",
"u. c #DE633F",
"i. c #F4613F",
"p. c #8F1645",
"a. c #981747",
"s. c #A91A4A",
"d. c #B8194B",
"f. c #AD1850",
"g. c #B81853",
"h. c #8A294B",
"j. c #A7244D",
"k. c #C3174B",
"l. c #C61952",
"z. c #C31954",
"x. c #C5195A",
"c. c #CC1A5B",
"v. c #D21B5C",
"b. c #E41E5A",
"n. c #CA2353",
"m. c #D42653",
"M. c #E4255D",
"N. c #DA1B61",
"B. c #E61D63",
"V. c #87615E",
"C. c #8F7155",
"Z. c #E94C42",
"A. c #EC5441",
"S. c #ED5D45",
"D. c #EA5E49",
"F. c #F15B41",
"G. c #D76F49",
"H. c #EB664A",
"J. c #F96842",
"K. c #FA794B",
"L. c #ED7454",
"P. c #F57C53",
"I. c #34821C",
"U. c #2E8225",
"Y. c #26812E",
"T. c #2A832A",
"R. c #2C892C",
"E. c #328322",
"W. c #3B8222",
"Q. c #348823",
"!. c #3D8923",
"~. c #308A29",
"^. c #3C892E",
"/. c #228332",
"(. c #248A35",
"). c #2A8934",
"_. c #378737",
"`. c #269338",
"'. c #448322",
"]. c #4C8222",
"[. c #468926",
"{. c #4B8A23",
"}. c #518422",
"|. c #558923",
" X c #588B24",
".X c #55862D",
"XX c #5F902D",
"oX c #47873A",
"OX c #5B8633",
"+X c #659738",
"@X c #769438",
"#X c #71AE3C",
"$X c #3A8746",
"%X c #4C8845",
"&X c #578745",
"*X c #4B974E",
"=X c #589449",
"-X c #5A9655",
";X c #668847",
":X c #6B9753",
">X c #78AC41",
",X c #589C64",
"<X c #69966A",
"1X c #7C8479",
"2X c #76A771",
"3X c #859C39",
"4X c #94B038",
"5X c #ACC639",
"6X c #88815E",
"7X c #B28859",
"8X c #92946C",
"9X c #B99762",
"0X c #84A772",
"qX c #B4A16B",
"wX c #B3B074",
"eX c #E78D5A",
"rX c #FA8756",
"tX c #F9935C",
"yX c #D39761",
"uX c #F49664",
"iX c #D3B576",
"pX c #F6A86F",
"aX c #FAB777",
"sX c #A4CC4F",
"dX c #CBC07E",
"fX c #FBC27C",
"gX c #7DAF86",
"hX c #868382",
"jX c #889288",
"kX c #94968F",
"lX c #999A99",
"zX c #8BAA8A",
"xX c #90AC8C",
"cX c #97AC93",
"vX c #96B293",
"bX c #A0AF8E",
"nX c #A4B59D",
"mX c #AEB6AC",
"MX c #B1C7AF",
"NX c #F9CC83",
"BX c #FBD487",
"VX c #EEDD90",
"CX c #FBE694",
"ZX c #F9F69E",
"AX c #FEFAA0",
"SX c LightGray",
/* pixels */
"Q.j z l f f (.U.u Q.W.N S S S x u Q.Q.E.y Q.Q.U.l f /./.T.j E.W.N N ].N a u U.Q.Q.y E.Q.U.z f Y.v ).j u E.a N {.N M u u Q.Q.u u ",
"Q.Q.j T./././.Y.j j p '.Q.!.p e p p j Q.u E.Q.E.u Y.v (./.z E.y '.Q.!.W.e u U.p E.x u Q.U.j Y.f (./.T.U.u W.'.!.W.u e E.Q.E.U.u ",
"|.W.j E.T.Y.(.f Y.l g Q.y E.x p y !.'.c a {.'.p j U./././.v z g E.y j U.u u W.'.a i |.'.W.u U.Y.Y./.f T.k u U.p E.j y p '.'.p '.",
" XS x u U.j z T.T.k j u e y u j c }.{.|.{.|.N a u U.U.h z U.l z j y y p u a {.{.|.}.{.|.a p E.E.z z T.Y.z p y e u u E.'.}.}.{.N ",
"}.}.S a E.E.Q.W.!.j u p p c '.M }.F F F  X|.|.F M E.U.E.E.!.p j p p c S a ].].}.S |.|.|.F A c E.E.U.!.a u u p p '.'.m }.].N }. X",
"}.}.].|.M A {.].}.].M N M S N N ].N F S F N }.F |.'.M {.].}.].M S M m N M |.N N N }.N }.}.F ].A '.[.}.].N '.'.M N N ].}.N }.}.}.",
"r A i a a a M ].N }.N }.N }.].N F S }.N G ;X&X&X&X&X&XOX].N {.N S .X;X;X;X+XE ; & % . % % K ;X&X'.M N }.}.N ].N }.N N N N }.N m ",
"j p u j p g E.!.W.'.M M {.{.N N S S a A :XlXI I I I Q 1XQ.W.'.'.N :XmXI I P E @X+XOXD +XOXB ~ xXu E.Q.'.'.M N ].}.N N }.M p m '.",
"Q.u E.E.Q.u y E.Q.Q.E.p p x a W.W.E.E.Q.&X~   . . . + / MX=X=XnXvXnX1X& & % D 5X>X#X+X#X+XZ R 0Xu u U.Q.Q.u p p p !.a W.E.E.E.y ",
"y u y E.u E.u E.x u u Q.j E.E.Q.E.E.u E.-X1X= Y Y 3 1 2 cX=X2XkXB B @X4X>XXX}.XXt I.[.w 7 I vX_.E.u E.E.u E.Q.u E.Q.E.U.E.u E.E.",
"y E.p u u E.U.u j x j Q.E.E.E.Q.E.U.~.g =X2XlXP T T 3 = 8X-XgXT 3X;X3X@X+X!.p [.[.t w 7 $ K b t E.u u Q.u Q.U.E.Q.Q.Q.E.U.E.u E.",
"Y.j U.u E.E.u j E.E.E.Q.~.j ~.U.U.U.j t T.Y.MXQ L T T - / cXI H sXsX>X[.{.I.t !..Xt 7 5 $ R b ~.E.u u E.E.E.Q.U.u R.U.U.E.u j R.",
"/./.g U.j j y E.y j Q.u k (.l Y./.f f /.v /.*XmX/ V T Y 1 ; = Z >X+XW.t {..Xu w q 9 6 = / <XU.u u u E.y E.E.y Y.Y.l /.f k T.Y./.",
"(.(.Y.d U.y Q.E.u u u j R.Y./.Y././.f /.$X(.(.*XxXQ ; V 1 1 % 8 !..X[.I.t w w 0 7 6 B <XzX,Xd T.E.E.E.y u u E.R././.(.(.d Y.(.`.",
"d (.(././.g h j j j Q.j Q.U.k f /././.(././.(.(./.gXcXU 1 V & 6 p t t w 0 0 0 7 $ K cX(.(././.f k g j y E.U.U.U.j d f (././././.",
"(././.f /./.v /.f k l j E.j T.Y./.f /.$XgX2XMX$Xv $X<XQ ; C ; s x q 0 0 0 0 7 6 = hXgX/././././.f /./.d d T.E.j U.T.l /.f Y.f /.",
"d /.Y./././.f /.R.z j U.E.p E.U._.,X,X,X/ P I I <X,X<XQ 1 T V ; 8 0 0 9 7 6 $ 1 mXSXgX-X,X,X)./.f d Y.R.U.j U.U.E.E.U././.(././.",
"(.d f f l f f U.g Q.Q.Q.u U.E.E.oXjX^ ^ C.w.q.q.C.^ Q 4 < 2 V 1 & $ $ $ $ O , 4 W / ~ ~ ~ jX$Xv /.T.j U.U.Q.E.u E.u E.U.).Y.Y.T.",
"Y.Y.z E.j U.T.U.Q.E.Q.Q.p W.W.c vXP . - yXtXi.i.4   % , , . 1 C -     o O > [ ( X X   X   L cXb U.h Q.u Q.Q.E.a W.y u Q.U.y Y.(.",
"U.U.U.U.h j u E.p y Q.Q.'.XX=XxX^ 7XG.w.H.J.i.i.e.` ( ) > o V T 1 . : ( ( [ %.` ( ( _ f.f.h.W zX*X^.U.u p Q.W.S |.E.E.Q.p Q.U.~.",
"Q.U.U.z l f z j E.Q.E.'.F +XjX! 8XeXK.F.y.t.t.S.i.w.: ) ) , < V V - : : : w.u.[ } ] } >.k.g.p.W kX$XE.E.E.W.].|.{.W.E.E.Q.Q.E.E.",
"Q.u l d f Y.Y.Q.u U.I.N OXbXP B iXtXA.Z.D.D.S.y.tXC.& , ` ) : ; V 1 & . O C.eX[ ' ] ] ] X.x.s.# L cX^.E.E.A N ].F M E.E.E.Q.E.u ",
"Q.Q.E.Y.v /.(.Y.u U.W.}.xX^ 8XiXuXK.F.D.aXBXfXH.r.G.9XC : # o - 2 =   < w.e.| ' ] ' ] ] ] o.z.g.h.! zXx E.c A '.a i y u E.E.E.u ",
"[.I.u U.f (.(.f T.f G -XcXB qXBXK.i.uXaXCXCXBXG.1.1.e.w.+., # . < _ _ | 2.&.] ] ] ] { { ] X.x.v.a.2 mX*Xk j W.E.E.p y p Q.Q.u p ",
" XM E.p Q.j l Y.Y.v -XjXE 6XyXtXJ.A.aXZXCXpXL.r.3.1.3.t.4.[ ( > _ =.*.$.' ] { { { { $.$.{ } O.z.f.h.V.jX$Xj y y u u U.W.}.].N M ",
"{.S a p E.E.U.E.E.j &XU ; dXtXJ.t.A.pXZXfXD.<.<.9.t.t.t.4.#.&.&.$.$.{ ' [ { #.$.$.%.$.$.{ ] } d.c.x.= U %Xp e p W.W.m ].|.}. X X",
"|.{. X{.a a !.{.].m &XI * iXtXJ.A.A.D.H.D.9.<.<.6.7.6.6.7.4.0.4.1.$.{ { $.:.4.4.=.*.$.$.#.{ ] X.d.g.X U &XM c M M N }.F N N }.}.",
"n ].M S M '.].N N |.;XI * eXrXJ.A.Z.8.<.<.<.<.<.<.<.<.<.6.9.9.r.r.1.3.3.4.7.0.7.<.-.$.$.$.#.] ' X.s.O U ;XN ].N ].N N }.N F N N ",
"p p u u p y p !.M '.:XU # G.i.J.A.r.9.5.<.<.<.<.<.<.<.<.<.<.<.9.Z.t.t.t.r.9.<.<.<.=.$.$.$.{ ] ' X.s.# U ;XF }.].}.N N N N '.m ].",
"W.j E.u E.u y Q.Q.Q.R 8X9XK.i.y.Z.0.L.pX0.<.<.<.<.<.<.<.<.<.<.5.6.6.6.9.7.5.<.<.<.<.=.$.$.$.{ ] X.d.@.q.U p r W.Q.'.m !.!.p E.p ",
"y U.y E.E.E.u E.Q.E.& wXCXrXy.r.0.L.NXVXA.<.<.<.<.<.<.<.<.<.<.<.<.<.<.<.<.<.<.<.<.<.,.$.$.$.{ ] | >.m.@.+ E.Q.y p E.u E.E.E.E.y ",
"y j u p u u E.u j u & wXVXrXy.r.9.fXZXVXZ.<.<.<.<.<.<.<.<.<.<.<.<.<.<.<.<.<.<.<.<.<.-.$.$.$.$.} ] | v.f.@ E.E.E.Q.Q.Q.E.Q.u u Q.",
"z U.E.u E.E.u E.E.E.& wXVXrXy.0.8.fXAXCXZ.<.<.<.<.<.<.<.<.<.<.<.<.<.<.<.<.<.<.<.<.<.;.$.$.$.#.] ] { b.s.X p Q.E.U.Q.U.Q.U.u E.R.",
"Y.Y.u U.u u y E.y U.& 9XNXK.y.r.9.fXAXCXA.<.<.<.<.<.<.<.<.<.<.<.<.<.<.<.<.<.<.<.<.<.;.$.$.$.] ] ] { b.f.+ E.E.Y.Y.Y.Y.f h U.U./.",
"/./.Y.f U.E.U.U.u u & 9XaXK.y.r.9.aXCXBXP.7.<.<.<.<.<.<.<.<.<.<.<.<.<.<.<.<.<.<.<.<.<.$.$.#.] ] } o.b.f.+ E.y Y.(.Y.Y./.d /./.(.",
"(.(.(.f Y.e u U.u y & 9XfXrXy.r.8.uXBXBXaXF.<.<.<.<.<.<.<.<.<.<.<.<.<.<.<.<.<.<.<.<.;.$.$.{ ] ] X.z.B.s.+ u Q.^.k f /.(.Y.Y.(.(.",
"/.f /././.f /.Y.d g & 9XfXK.y.t.0.D.pXBXNXF.<.<.<.<.<.<.<.<.<.<.<.<.<.<.<.<.<.<.<.<.%.$.$.{ ] ' X.z.B.f.+ T.j x U.Y.f Y.f /.v (.",
"f /./.d /./.f /.R.f ~ C.7XJ.y.t.Z.6.F.uXaXH.<.<.<.<.<.<.<.<.<.<.<.<.<.<.<.<.<.<.<.=.$.$.$.{ ' ' o.l.s.h.Q z E.E.E.U.R.f /.(.f v ",
"/.Y././.Y.f f U.u E.-XU 1 G.J.F.t.6.<.6.rXA.<.<.<.<.<.<.<.<.<.<.<.<.<.<.<.<.<.<.-.=.$.$.{ ' { } >.l.# I :XQ.E.x E.u u Y.(.(././.",
"Y.f d l h T.Y.U.U.E.=XI - yXrXJ.t.5.<.<.5.5.<.<.<.<.<.<.<.<.<.<.<.<.<.<.<.<.<.<.%.$.$.$.{ ' } d.c.l.# I %X~.E.j E.u U.Q.Q.h Y./.",
"U.T.E.E.j U.E.j U.y =XU - iXrXi.A.9.5.<.<.<.<.<.<.<.<.<.<.<.<.<.<.<.<.<.<.<.<.,.$.$.$.{ { ' O.g.m.n.O U %XQ.p ].{.p u Q.E.E.U.U.",
"E.U.~.U.h l h x u E.=X/ R qXuXK.F.Z.8.<.<.<.<.<.<.<.<.<.<.<.<.<.<.<.<.<.<.<.<.=.$.$.{ ' ] o.g.c.n.@.L hX=XQ.N {.{.!.E.E.E.Q.U.Q.",
"Q.t T.d d /.l Q.E.E.:XMXMXL 9XaXK.F.6.<.<.<.<.<.<.<.<.<.<.<.<.<.<.<.<.<.<.<.=.%.$.{ ] ] o.z.c.B.f.3 MXMX-X'.N }.}.M U.Q.U.Q.E.u ",
"Q.E.U.k /.d (.U.u E.!.N cXK qXNXK.F.6.<.<.<.<.<.<.<.<.<.<.<.<.<.<.<.<.<.<.<.*.$.$.{ ' ' O.x.x.B.f.2 cXp Q.'.].].N r u E.Q.E.E.u ",
"Q.E.U.u f /.(.f z j y !.xXQ 8XiXeXD.6.-.<.<.<.<.<.<.<.<.<.<.<.<.<.<.<.,.-.*.$.$.{ { ] | O.x.c.g.h.Q vXT.g p W.W.Q.u y p E.E.E.p ",
" X'.u U.R.T././.v l g E.W.oXP B iXL.1.$.<.<.<.<.<.<.<.<.<.<.<.<.<.<.<.-.%.$.$.{ ] ] X.d.x.c.c.# I R )./.l j x g u y u p {.'.a '.",
" XN c u E.E.U.U.E.z i y e oXkX^ 8XG.0.1.=.<.<.<.<.<.<.<.<.<.<.<.<.-.=.*.$.#.{ { ] } O.x.x.v.m.O K ^.U.T.j x y e I.x W.].|. X X}.",
" X}.}.].i j E.W.'.p p c j .X0XnX! q.G.H.4.=.-.<.<.<.<.<.<.<.<.;.*.&.$.#.{ { ] | | O.x.c.N.v.@.L / oX'.W.p x p p S ].N }.N N N  X",
"N ].N }.m ].{.S ].}.N ].N N N G OX! C.iXS.1.$.;.;.;.;.;.<.;.*.$.$.$.$.{ ] } O.z.k.l.m.M.b.j.T xXOX.XN }.].N ].N }.N S }.S }.].N ",
"a p p i p p W.].N }.N F ].}.F N .XnXC.1 e.3.$.%.%.%.%.%.%.$.$.$.{ ] ' ' ' o.g.x.g.v.M.M.@.Y kX2XW.!.A }.}.N }.N }.N M N N S N N ",
"E.u p u u u y Q.E.!.a a '.'.}.m S 2XkXI q.+.) o.&.{ #.#.#.#.#.{ { ' ] | X.O.c.c.m.z.f.w.q.~ b u y E.Q.W.Q.a m W.'.].M ].'.p c W.",
"p u U.E.E.E.u E.Q.E.E.E.u u W.p U.[.%XnX^ 3 2  ...' ] ] ] ] } } } } } o.l.g.f.l.2.q.2 2 hX2XE.Q.u u U.Q.y E.E.j i W.u W.u E.U.y ",
"u u u u u U.u E.E.u E.Q.E.E.U.Q.E.E.j oXvXcXmX2 X > ] ] ] { O.k.z.z.z.v.B. .X # + Q nXcXnX-XE.u E.u u E.u U.Q.E.Q.E.E.U.E.u u Q.",
"y Q.E.y E.E.E.u u E.u Q.Q.j E.Q.E.x E.j E.b mXgXI 4 ( , , (  .p.p.p.p.a.f.J U I I lX-Xz U.j j p E.U.E.E.u E.Q.j E.Q.Q.U.Q.u j Q.",
"Y.T.j j u E.y E.u E.E.E.U.T.R.T.T.x x U.v ).*X%XzXhX+ o o o o o + . X X @ R %X%X%X-X$XR.j U.y U.y u E.y E.E.U.U.T.R.Y.T.j j U.Y.",
"(./.d T.E.u u E.u u U.p l (.k /./.k v v )./.(.d U.j p E.I.p y E.U.j (.d v /.v d Y././.(.f T.U.j p E.u u E.E.u Y.Y.f Y./.f Y.Y.(.",
"/.(./.d T.j E.E.u u u u ~.Y.f /.(./.v /.(.(.(.(.f T.j U.U.U.y U.j E.).d /.(.(.v v (.(.(.(.v f T.u E.E.u u y Q.R.f /./.(./././.(.",
"/././././.k d l h j ~.u Q.Q.l d /.Y././.v /.v (.Y./.d d l h j U.U.U.E.U.d l /.v /././.v /./././.k l l h j ~.u U.U.l f (./.v /./.",
"/././.d /.f /././.f k U.E.E.U.T./.v (.f /.(.v /.f /.v v T.v k d j Q.j j T.l v /./.f /././.v f /.l /./.k d l E.E.E.U.T.f /./.f /.",
"f v v /.(.l f /.U.U.U.Q.E.u E.U.Y.Y.(.Y.v v f v f (./.f l T.~.j Q.j x E.U.T.Y.(./././.f (.f /./.f l Y.U.U.Q.E.E.u E.U.l (.(././.",
"(.f f l z l Y.U.p E.Q.Q.u E.y E.U.R.U.Y.(././.d f T.d /.U.j U.Q.Q.u p U.j E.Q.T.z (.Y.Y.f l h l /.T.U.j Q.Q.Q.u E.U.U.Q.R.j /.(.",
"U.Y.j E.u U.j j E.y Q.Q.a {.W.u Q.Q.u j R.U.l U.E.j j U.j E.u Q.Q.E.].'.u U.Q.j u R.R.z T.j Q.y U.j Q.y E.Q.p '.'.p u Q.U.y T.Y.",
"u Q.U.U.j l j E.u u Q.!.N  XW.u Q.u Q.Q.E.Q.E.E.U.U.h z j E.y E.Q.M  X].E.U.E.Q.Q.U.Q.E.Q.U.U.h U.u U.u u Q.M }.{.W.u Q.U.Q.E.Q.",
"Q.E.R.f v l g U.Q.Q.W.'.}.}.M E.Q.Q.Q.Q.E.U.Q.R.f f k z u E.Q.E.{.}. XM p Q.Q.Q.Q.Q.u E.U.l f Y.f h E.Q.E.W.|.}.F a Q.Q.Q.Q.Q.j "
};
