/* XPM */
static char *ecdc24d4fb5349738efb75ed91bcc1f1U3lwAxcapt4RRWGT[] = {
/* columns rows colors chars-per-pixel */
"56 64 241 2 ",
"   c #060909",
".  c #0C0D0E",
"X  c #0D140D",
"o  c #11150E",
"O  c #0E0E10",
"+  c #110F11",
"@  c #1E0F14",
"#  c #0E1211",
"$  c #141413",
"%  c #1A1313",
"&  c #181B15",
"*  c #1B1C1B",
"=  c #31100F",
"-  c #271716",
";  c #351517",
":  c #10300B",
">  c #1B2318",
",  c #23251B",
"<  c #302A1A",
"1  c #1E1F20",
"2  c #201F22",
"3  c #371420",
"4  c #1F2221",
"5  c #222322",
"6  c #2A2525",
"7  c #392925",
"8  c #2A3928",
"9  c #3B3529",
"0  c #363737",
"q  c #55110E",
"w  c #5A120E",
"e  c #4E1713",
"r  c #6D1415",
"t  c #432318",
"y  c #4A1529",
"u  c #5C1322",
"i  c #63182D",
"p  c #611532",
"a  c #721736",
"s  c #781739",
"d  c #4D2D28",
"f  c #47322B",
"g  c #4D3A34",
"h  c #553832",
"j  c #703429",
"k  c #0E4805",
"l  c #154A0D",
"z  c #0C5303",
"x  c #095C02",
"c  c #324B1F",
"v  c #0A6702",
"b  c #056E00",
"n  c #097102",
"m  c #147509",
"M  c #277B14",
"N  c #327F1A",
"B  c #3A4824",
"V  c #374C30",
"C  c #504D34",
"Z  c #5B4438",
"A  c #64463C",
"S  c #6A583B",
"D  c #4D6A2C",
"F  c #6C7C34",
"G  c #503741",
"H  c #7B314C",
"J  c #474747",
"K  c #5A4A46",
"L  c #54534B",
"P  c #565857",
"I  c #694B43",
"U  c #6E554C",
"Y  c #71564A",
"T  c #765B56",
"R  c #5A624F",
"E  c #7C6543",
"W  c #74764F",
"Q  c #646464",
"!  c #696765",
"~  c #6D6D6D",
"^  c #7F706E",
"/  c #7E7976",
"(  c #7C7C7C",
")  c #83110C",
"_  c #8E120C",
"`  c #99120B",
"'  c #981414",
"]  c #A5120A",
"[  c #AE120A",
"{  c #AB110C",
"}  c #B1120A",
"|  c #BC130E",
" . c #B21311",
".. c #BC1713",
"X. c #B4141D",
"o. c #A42C1F",
"O. c #87193C",
"+. c #B61427",
"@. c #B8152F",
"#. c #BA1638",
"$. c #85342A",
"%. c #943432",
"&. c #C0140F",
"*. c #C41411",
"=. c #CB1615",
"-. c #C61814",
";. c #C91C17",
":. c #D31719",
">. c #DB1A1E",
",. c #CB231C",
"<. c #DF1B20",
"1. c #C61630",
"2. c #E41720",
"3. c #E51C23",
"4. c #D42B25",
"5. c #D9362A",
"6. c #D93C2F",
"7. c #E62126",
"8. c #E62628",
"9. c #E62D2D",
"0. c #E5302E",
"q. c #E63431",
"w. c #E73A34",
"e. c #885D3D",
"r. c #B05035",
"t. c #DB4438",
"y. c #CE5233",
"u. c #C95938",
"i. c #E64339",
"p. c #E7453A",
"a. c #E94C3E",
"s. c #EC5336",
"d. c #D4623C",
"f. c #EF683F",
"g. c #991A48",
"h. c #A81A4C",
"j. c #BB1746",
"k. c #BF174C",
"l. c #B51954",
"z. c #BC1955",
"x. c #852F4D",
"c. c #D41949",
"v. c #C3185B",
"b. c #C61959",
"n. c #D31B5D",
"m. c #DD1D58",
"M. c #E01C5A",
"N. c #D52E4E",
"B. c #E6285B",
"V. c #DB1B61",
"C. c #E31D62",
"Z. c #EC1E64",
"A. c #F11F66",
"S. c #EA2161",
"D. c #89574A",
"F. c #8F7051",
"G. c #B16340",
"H. c #89716F",
"J. c #E64644",
"K. c #E84E40",
"L. c #EB5341",
"P. c #E95946",
"I. c #EC5A45",
"U. c #F05740",
"Y. c #F25C41",
"T. c #EB664A",
"R. c #FA6642",
"E. c #F56943",
"W. c #FD6C42",
"Q. c #FE7345",
"!. c #FD794A",
"~. c #EC6D51",
"^. c #EF7852",
"/. c #36811D",
"(. c #3E8322",
"). c #478727",
"_. c #54892E",
"`. c #578C31",
"'. c #5D9732",
"]. c #639B36",
"[. c #76AA3C",
"{. c #73B33C",
"}. c #7AAE47",
"|. c #7F807F",
" X c #91A531",
".X c #9FC23F",
"XX c #B5C736",
"oX c #C7DE3E",
"OX c #91875B",
"+X c #B2925F",
"@X c #84B64C",
"#X c #86866C",
"$X c #AEAF75",
"%X c #CC905C",
"&X c #E9875B",
"*X c #F88858",
"=X c #FD975E",
"-X c #D29B63",
";X c #E98761",
":X c #F28D63",
">X c #F69A66",
",X c #D8B776",
"<X c #FAA76A",
"1X c #F5B072",
"2X c #FBB874",
"3X c #8EC44E",
"4X c #B2D34C",
"5X c #A0D168",
"6X c #EEC17A",
"7X c #FAC57C",
"8X c #898989",
"9X c #998B91",
"0X c #959595",
"qX c #9A9A99",
"wX c #A0A09F",
"eX c #A6A5A5",
"rX c #ADADAC",
"tX c #AFB1AF",
"yX c #B4B5B2",
"uX c #BCBCBC",
"iX c #CAD28B",
"pX c #FFCE81",
"aX c #E9D68A",
"sX c #FED184",
"dX c #FEDD8E",
"fX c #E3DD91",
"gX c #DBE496",
"hX c #EDEB99",
"jX c #FBEB97",
"kX c #FFF59D",
"lX c #FCF79E",
"zX c #FEFBA1",
"xX c #C3C3C3",
"cX c #CACACA",
"vX c #D4D4D4",
"bX c #D7D8D8",
"nX c #DADADA",
"mX c #E3E3E3",
"MX c #EDEDED",
"NX c #F4F4F4",
"BX c #FFFFFF",
/* pixels */
"BXBXBXBXBXBXBXBXBXBXBXBXBXBXBXBXBXBXBXBXBXBXBXBXBXBXBXBXBXBXBXBXBXBXBXBXBX! . # . X O . O . Q BXBXBXBXBXBXBXBXBX",
"BXBXBXBXBXBXBXBXBXBXBXBXBXBXmXqX0X0X0X0X0X0XxXBXBXBXBXBXBXBXBXMXqX0X0X0X0XW D D D B B D D c R qXmXBXBXBXBXBXBXBX",
"BXBXBXBXBXBXBXBXBXBXBXBXBXBXuX& $ O . O . . ( BXBXBXBXBXBXBXBXvX1 O O      XoX3X3X].].3X@X].c # uXBXBXBXBXBXBXBX",
"BXBXBXBXBXBXBXBXBXBXBXBXBXBXuX* $ - , , - $ ~ nXNXBXBXNXbXvXbXtXB < < 8 &  XXX[.{.'.'.{.[.).D J cXBXBXBXBXBXBXBX",
"BXBXBXBXBXBXBXBXBXBXBXBXBXBXuX& % Y T A h f 7 0 bXBXBXmXC 1 1 B XX.X@X[._.`._.m m ).).m b : Q MXBXBXBXBXBXBXBXBX",
"BXBXBXBXBXBXBXBXBXBXBXBXBXBXmX0X8XK I T I h 7 1 vXBXyX/ F F R F  X[.[.].M ).).N N M m x x X Q BXBXBXBXBXBXBXBXBX",
"BXBXBXBXBXBXBXBXBXBXBXBXBXBXBXBXNX0 f H.Y I f 1 vXBX( > XX4X5X5X`.`._.N n N `.`._.m v k k X Q BXBXBXBXBXBXBXBXBX",
"BXBXBXBXBXBXBXBXBXBXBXBXBXBXBXBXNX~ K Y Y Y h 6 eXcXQ , XX4X@X}.).)._.).M N (.).).m x k l V 8XBXBXBXBXBXBXBXBXBX",
"BXBXBXBXBXBXBXBXBXBXBXBXBXBXBXBXBXNXeX% U H.T f - & & > }.}.`.).m N `.`._.M b b b x k X 5 cXBXBXBXBXBXBXBXBXBXBX",
"BXBXBXBXBXBXBXBXBXBXBXBXBXBXBXBXBXBXmXeXK 9 h h 9 7 * > /.).`._./.M M M M n b v x : V qXrXMXBXBXBXBXBXBXBXBXBXBX",
"BXBXBXBXBXBXBXBXBXBXBXBXBXBXBXBXBXBXBXBX~ 0 g Z h h < X v /.).).).M b b b b v k k 8 ~ BXBXBXBXBXBXBXBXBXBXBXBXBX",
"BXBXBXBXBXBXBXBXBXBXBXBXBXBXBXBXBXBXBXBXNXMX8X& Z I 7 : D /.n n n b b b b x k & & yXNXBXBXBXBXBXBXBXBXBXBXBXBXBX",
"BXBXBXBXBXBXBXBXBXBXBXBXBXNXBXNXNXBXBXBXBXBX0X$ Z I 7 * _.N b b b b n n b x l $ 1 xXBXBXBXBXBXBXBXBXBXBXBXBXBXBX",
"BXBXBXBXBXBXBXBXBXBXBXBXBX8XP P P P 0XBXBXBX0X& Y F.K 7 8 l b b b v x z : : 8 tXuXMXBXBXBXBXBXBXBXBXBXBXBXBXBXBX",
"BXBXBXBXBXBXBXBXBXnXcXcXxXT f t < t T cXcXcXH.; I T I f - : x x x z k : = = h xXvXcXcXcXcXcXnXBXBXBXBXBXBXBXBXBX",
"BXBXBXBXBXBXBXBXBX~ * > , +X1XE.E.E.r.1 * * w ] ; & f A h 6 # # $ $ # = ] { _ - * * * * * & ~ BXBXBXBXBXBXBXBXBX",
"BXBXBXBXBXBXBXBXNX! % & * %X2XQ.W.Q.r.% % $ w ] = $ 9 A h 6 # $ % @ @ = [ [ _ = + @ @ @ @ + Q NXBXBXBXBXBXBXBXBX",
"BXBXBXBXBXBXBXvXL OX%Xd.u.T.T.L.L.W.s.X.` _ ` ] =   Z H.A f O = ) _ _ ] :.&.] _ _ ) ' k.l.h.H J vXBXBXBXBXBXBXBX",
"BXBXBXBXBXbXyXqXC %X<XW.E.L.K.K.a.R.R.K.o.) ` [ q e h U A h - ; r _ ) o.s.,.[ }  .} ..c.c.b.g.y 9XuXvXBXBXBXBXBX",
"BXBXBXBXBX|.O C gX>XR.L.L.J.K.K.a.a.^.7Xg . w } [ } q * A A f f % + O C 7Xy.[ [ } } } }  .b.v.z.y # ( BXBXBXBXBX",
"BXBXBXBXMX/ > C fX>XR.K.K.P.P.I.P.s.^.2XZ , r ] ] ] q & A h f 7 % & - Z 6Xy.[ [ } } [ } } j.v.z.y % H.MXBXBXBXBX",
"BXBXBXbXJ #XiX,X*X!.R.K.K.1XdXdXsXT.t.5.%X,Xe.= - = % & Z f & $ . $.d.y.,. .[ [ [ } [ } } } @.v.b.b.x.J bXBXBXBX",
"BXBXBXvX, OXhX7XQ.R.E.:X:XdXkXjXdX~.6.*.d.*XG.j e e = % 7 d r u r o.s.5.} } } } } } | } | [ +.v.n.V.s 1 vXBXBXBX",
"BXNXBXcX6 F.7X2XQ.s.~.jXlXzXjX7X2XT.5.-.*.| t.E...} w % @ r 3.3.7.-.} } } } } } } &.*.*.*.[ +.v.b.v.s 6 cXNXBXBX",
"BXrXJ R $X-X*X!.s.K.~.jXlXdX2XK.a.9.5.w.w.t.p.a.,.| ] ' '  .=.=.| } } } &.&.&.| *.*.*.*.*.} } +.k.v.b.h.K J rXBX",
"BX0X. 9 gX<XW.R.L.K.~.jXzXdX>X3.3.3.9.K.K.K.K.a.,.| *.*.*.-.*.&.[ [ } } *.*.*.*.*.*.*.*.*.} [ } j.v.n.M.3   0XBX",
"BX0XO 9 aX<XQ.R.K.K.P.:X:X^.T.3.3.3.8.w.w.q.q.w.5.4.4.5.4.,.*.| | } | -.4.4.4.:.:.*.*.*.*.&.} } +.#.b.b.3 + 0XBX",
"BX0XO 9 2X=XW.R.K.L.p.3.3.3.3.3.3.3.3.3.3.3.3.3.w.a.a.a.K.5.-.-.;.;.;.,.a.s.p.7.3.=.*.*.*.*.&.} } [ @.z.3 + 0XBX",
"BX0X. t ^.!.W.R.K.K.p.3.3.3.3.3.3.3.3.3.3.3.3.3.8.8.8.8.a.p.i.i.p.t.i.w.8.8.7.3.3.=.*.*.*.*.&.[ } [ @.l.; O 0XBX",
"BX0X. ; f.Q.Q.R.K.K.p.3.3.3.3.3.3.3.3.3.3.3.3.3.3.3.3.8.J.K.K.K.a.a.a.i.7.3.3.3.3.=.*.*.*.*.| [ [ } @.l.; X 0XBX",
"( #XOX+XQ.R.s.U.K.w.i.:X:Xw.3.3.3.3.3.3.3.3.3.3.3.3.3.3.9.q.q.q.q.q.q.9.3.3.3.3.3.>.:.*.*.*.*.| } [ @.v.%.%.T ( ",
"  W zXjX!.f.K.K.a.w.I.jXlXI.2.3.3.3.3.3.3.3.3.3.3.3.3.3.3.3.3.3.3.3.3.3.3.3.3.3.3.3.>.*.*.*.*.*.} [ +.b.N.J.j . ",
"# W zXaX!.Y.K.p.3.>XjXhXhXL.2.3.3.3.3.3.3.3.3.3.3.3.3.3.3.3.3.3.3.3.3.3.3.3.3.3.3.3.<.*.*.*.*.*.} } } X.m.B.a o ",
"O W hXaX!.Y.K.i.3.1XzXhXhXL.3.3.3.3.3.3.3.3.3.3.3.3.3.3.3.3.3.3.3.3.3.3.3.3.3.3.3.3.>.*.*.*.*.*. .} }  .m.A.a + ",
"O W hXaX!.Y.K.w.3.1XlXkXjXP.3.3.3.3.3.3.3.3.3.3.3.3.3.3.3.3.3.3.3.3.3.3.3.3.3.3.3.3.<.*.*.*.*.*.} [ } } m.B.a # ",
"O W hXaX!.Y.K.i.3.1XzXlXjXI.3.3.3.3.3.3.3.3.3.3.3.3.3.3.3.3.3.3.3.3.3.3.3.3.3.3.3.2.<.*.*.*.*.| } } } | m.Z.a o ",
"O E pX2X!.Y.K.i.3.1XzXkXjXL.2.3.3.3.3.3.3.3.3.3.3.3.3.3.3.3.3.3.3.3.3.3.3.3.3.3.3.3.<.*.*.*.| } } } }  .m.A.a . ",
"O E sX2X!.Y.K.w.3.>XdXdXdX>XY.3.3.3.3.3.3.3.3.3.3.3.3.3.3.3.3.3.3.3.3.3.3.3.3.3.3.3.<.*.*.*.| } } } X.#.M.Z.a o ",
"# E sX2X!.Y.K.w.3.:XpXsXpXpX>X7.3.3.3.3.3.3.3.3.3.3.3.3.3.3.3.3.3.3.3.3.3.3.3.3.3.3.2.*.*.*.| } } [ @.v.C.Z.a O ",
"# E sX2X!.Y.K.J.9.~.<XpXpXpX<X7.3.3.3.3.3.3.3.3.3.3.3.3.3.3.3.3.3.3.3.3.3.3.3.3.3.3.:.*.*.*.| } } } @.v.C.Z.a O ",
"O E 7X2X!.s.K.K.a.9.i.2XsXsX>X3.3.3.3.3.3.3.3.3.3.3.3.3.3.3.3.3.3.3.3.3.3.3.3.3.3.=.*.*.*.*.| } [ [ @.v.C.Z.a # ",
"eX#XS e.W.f.K.K.K.9.8.Y.T.2X<X7.3.3.3.3.3.3.3.3.3.3.3.3.3.3.3.3.3.3.3.3.3.3.3.3.3.=.*.*.*.| } } [ [ 1.V.s p H.eX",
"BX0XO 7 ^.R.L.L.K.9.3.3.3.*X:X3.3.3.3.3.3.3.3.3.3.3.3.3.3.3.3.3.3.3.3.3.3.3.3.<.<.=.*.*.*.} } }  .X.1.C.3 . 0XBX",
"BX0X. 9 1X=XW.R.K.9.3.3.3.8.8.3.3.3.3.3.3.3.3.3.3.3.3.3.3.3.3.3.3.3.3.3.3.3.<.=.*.*.*.*.*.} [ [ j.z.n.m.3 . 0XBX",
"BX0X. 9 6X=XW.R.K.9.3.3.3.3.3.3.3.3.3.3.3.3.3.3.3.3.3.3.3.3.3.3.3.3.3.3.3.3.<.*.*.*.*.*.*.} [  .j.v.n.m.3 # 0XBX",
"BX0X  9 fX<XW.R.K.J.q.3.3.3.3.3.3.3.3.3.3.3.3.3.3.3.3.3.3.3.3.3.3.3.3.3.3.3.<.*.*.*.*.} } [ X.j.b.v.N.N.; . 0XBX",
"BXrXJ R $X>X*X!.U.L.J.3.3.3.3.3.3.3.3.3.3.3.3.3.3.3.3.3.3.3.3.3.3.3.3.3.3.<.>.-.*.*.&.} }  .#.v.b.b.N.r.I J rXBX",
"BXNXNXcX8 OX7X<XQ.Y.p.3.3.3.3.3.3.3.3.3.3.3.3.3.3.3.3.3.3.3.3.3.3.3.3.3.3.:.-.&.*.} } } } c.z.v.C.Z.O.2 cXNXNXBX",
"BXBXBXvX* F.sX2X!.Y.i.3.3.3.3.3.3.3.3.3.3.3.3.3.3.3.3.3.3.3.3.3.3.3.3.3.<.:.*.*.*.} [ [ [ b.v.v.V.Z.g.1 vXBXBXBX",
"BXBXBXvX& OXhX7XW.f.i.7.3.3.3.3.3.3.3.3.3.3.3.3.3.3.3.3.3.3.3.3.3.3.3.2.=.*.*.*.*.} [ [ } z.v.z.C.A.O.* vXBXBXBX",
"BXBXBXnXQ #X$X$X=XT.p.>.>.3.3.3.3.3.3.3.3.3.3.3.3.3.3.3.3.3.3.3.3.3.>.:.*.*.*.| *.} } +.+.k.v.n.l.h.H Q mXBXBXBX",
"BXBXBXBXBX/ . C gX;Xi.-.-.<.3.3.3.3.3.3.3.3.3.3.3.3.3.3.3.3.3.3.3.=.*.*.*.*.&.} } } +.z.v.v.n.V.y O ( BXBXBXBXBX",
"BXBXBXBXBX8X1 L iX&Xi.,.=.>.3.3.3.3.3.3.3.3.3.3.3.3.3.3.3.3.3.<.3.:.*.*.*.*.&.} } } +.b.v.v.n.B.y   ( BXBXBXBXBX",
"BXBXBXBXBXMXbXrX9 r.R.p.t.:.=.3.3.3.3.3.3.3.3.3.3.3.3.3.3.:.=.*.=.*.*.&.} } } } [ #.b.v.v.V.B.J.e   ( BXBXBXBXBX",
"BXBXBXBXBXBXBXbX~ D.r.*X^.t.4.>.:.3.3.3.3.3.3.3.3.3.<.>.>.:.*.*.*.| | | } X.+.+.+.b.b.n.V.C.b.%.T ~ rXBXBXBXBXBX",
"BXBXBXBXBXBXBXBXBX~ f ,X7X~.6.*.*.<.3.3.3.3.3.2.3.3.:.*.*.*.*.*.*.| } } } j.v.z.v.b.b.C.S.B.g.4 cXBXBXBXBXBXBXBX",
"BXBXBXBXBXBXBXBXBXnXrXC h u.s.-.*.=.=.=.=.=.=.=.=.=.*.*.-.| } } } } [  .j.v.v.v.v.V.B.J.N.i T xXMXBXBXBXBXBXBXBX",
"BXBXBXBXBXBXBXBXBXBXvX* o u.s.*.*.*.*.*.*.*.*.*.*.*.*.*.*.| } [ } } [ +.b.v.v.z.z.C.B.L.s.; Q BXBXBXBXBXBXBXBXBX",
"BXBXBXBXBXBXBXBXBXBXmX8X( D.$.r r @.1.| | | | | | | | | | | [ } } +.@.#.z.n.n.N.N.g.O.$.j H.rXBXBXBXBXBXBXBXBXBX",
"BXBXBXBXBXBXBXBXBXBXBXBXNXQ - < 5 g.#.] } } [ } [ } [  . .}  .[ } #.b.v.l.n.m.t.t.d > 2 0 nXBXBXBXBXBXBXBXBXBXBX",
"BXBXBXBXBXBXBXBXBXBXBXBXBXmXvXvXcXG - = _ } } } } } @.k.k.k.k.b.k.n.C.l.3 3 3 ; 7 eXbXvXbXNXBXBXBXBXBXBXBXBXBXBX",
"BXBXBXBXBXBXBXBXBXBXBXBXBXBXBXBXNX0 . + _ } } } } } #.v.v.v.v.v.v.V.A.h.$ # # # $ xXBXBXBXBXBXBXBXBXBXBXBXBXBXBX",
"BXBXBXBXBXBXBXBXBXBXBXBXBXBXBXBXNXrX0X0Xj q w q w q u p p p p p p p a H 0X0X0X0XqXmXBXBXBXBXBXBXBXBXBXBXBXBXBXBX",
"BXBXBXBXBXBXBXBXBXBXBXBXBXBXBXBXBXBXBXNXP . # # # O $ # # # # # # $   L BXBXBXBXBXBXBXBXBXBXBXBXBXBXBXBXBXBXBXBX"
};
