/* XPM */
static char *_bbb62c60a9747b6f19dafb5a0f424f7MgLNQy4duDgLiJj1[] = {
/* columns rows colors chars-per-pixel */
"64 64 235 2 ",
"   c #020204",
".  c #0A0404",
"X  c #060B06",
"o  c #090D05",
"O  c #04050A",
"+  c #0A060C",
"@  c #060A0C",
"#  c #090B0C",
"$  c #120807",
"%  c #07120A",
"&  c #0C1C0C",
"*  c #13180B",
"=  c #070A11",
"-  c #0A0C13",
";  c #090914",
":  c #140D17",
">  c #0C1214",
",  c #0D1B11",
"<  c #0E121B",
"1  c #0F1B18",
"2  c #121215",
"3  c #111C15",
"4  c #12141C",
"5  c #1F1318",
"6  c #131A1C",
"7  c #29120C",
"8  c #30120E",
"9  c #261A1A",
"0  c #0D220B",
"q  c #14270E",
"w  c #18320E",
"e  c #0C2412",
"r  c #132D13",
"t  c #162918",
"y  c #0F3516",
"u  c #173616",
"i  c #1A3C15",
"p  c #1B3A1A",
"a  c #3E390F",
"s  c #322F13",
"d  c #253718",
"f  c #0F1421",
"g  c #121621",
"h  c #141924",
"j  c #191D27",
"k  c #1A1E2A",
"l  c #321C22",
"z  c #1D222C",
"x  c #1F3727",
"c  c #172031",
"v  c #1D2434",
"b  c #28242C",
"n  c #382626",
"m  c #263824",
"M  c #222937",
"N  c #372A38",
"B  c #3B353B",
"V  c #45120D",
"C  c #771913",
"Z  c #452819",
"A  c #572517",
"S  c #4E3911",
"D  c #692715",
"F  c #742919",
"G  c #6B381C",
"H  c #733919",
"J  c #4D2F2D",
"K  c #712D32",
"L  c #1C4314",
"P  c #19461A",
"I  c #1B4B1A",
"U  c #1D531D",
"Y  c #264716",
"T  c #374E18",
"R  c #23541B",
"E  c #2A5618",
"W  c #245B1B",
"Q  c #375719",
"!  c #25631D",
"~  c #28671D",
"^  c #2A6C1D",
"/  c #33631D",
"(  c #3E631D",
")  c #346D1D",
"_  c #3D6D1D",
"`  c #2D751F",
"'  c #2E781F",
"]  c #34751E",
"[  c #3D751F",
"{  c #33781F",
"}  c #3D781F",
"|  c #1A5824",
" . c #294E22",
".. c #255621",
"X. c #38542D",
"o. c #1D6828",
"O. c #1F742D",
"+. c #1F792F",
"@. c #286622",
"#. c #376B27",
"$. c #257425",
"%. c #2B7622",
"&. c #277927",
"*. c #2E7C22",
"=. c #21752B",
"-. c #237C2D",
";. c #287E29",
":. c #317E21",
">. c #3C7D20",
",. c #3A6033",
"<. c #217E31",
"1. c #4F4D18",
"2. c #71401C",
"3. c #49671B",
"4. c #436D1C",
"5. c #44731E",
"6. c #4A751F",
"7. c #45781F",
"8. c #4C781F",
"9. c #584729",
"0. c #4B512B",
"q. c #704C30",
"w. c #447C20",
"e. c #4D7C20",
"r. c #507F21",
"t. c #546A3A",
"y. c #6A662B",
"u. c #292F42",
"i. c #353947",
"p. c #413E42",
"a. c #4D5050",
"s. c #744E52",
"d. c #5E6856",
"f. c #8E1A15",
"g. c #B91C1A",
"h. c #862F19",
"j. c #A72817",
"k. c #91382E",
"l. c #BA2824",
"z. c #B83A2A",
"x. c #C21D1D",
"c. c #D1322F",
"v. c #E13438",
"b. c #8B5017",
"n. c #B14915",
"m. c #894433",
"M. c #924630",
"N. c #AF4E38",
"B. c #936233",
"V. c #BC632D",
"C. c #D2531A",
"Z. c #CC6D29",
"A. c #EA7C31",
"S. c #875946",
"D. c #955845",
"F. c #9A5B57",
"G. c #B74B46",
"H. c #AC5845",
"J. c #A95248",
"K. c #9B6B51",
"L. c #A56C55",
"P. c #AF6E53",
"I. c #B66959",
"U. c #895562",
"Y. c #857577",
"T. c #917270",
"R. c #B56E6E",
"E. c #BB7865",
"W. c #CB5449",
"Q. c #CF6C58",
"!. c #E66654",
"~. c #D35B68",
"^. c #C67969",
"/. c #CC7574",
"(. c #2E8225",
"). c #26812E",
"_. c #2A832A",
"`. c #2C892C",
"'. c #328322",
"]. c #3B8222",
"[. c #348823",
"{. c #3C8923",
"}. c #308A29",
"|. c #228332",
" X c #248A35",
".X c #298B30",
"XX c #269338",
"oX c #448422",
"OX c #4C8222",
"+X c #428923",
"@X c #4C8A23",
"#X c #518422",
"$X c #558923",
"%X c #588B24",
"&X c #7F8136",
"*X c #CE8A34",
"=X c #EB8A3B",
"-X c #8A9158",
";X c #B18E6C",
":X c #A0A27C",
">X c #E8965A",
",X c #F0A74D",
"<X c #DA8969",
"1X c #C68778",
"2X c #CD937B",
"3X c #D5967C",
"4X c #E9B270",
"5X c #FFC554",
"6X c #9B7A88",
"7X c #9D948E",
"8X c #B6B9A6",
"9X c #DB9B84",
"0X c #DB9893",
"qX c #CAA79F",
"wX c #D8A899",
"eX c #E8AA92",
"rX c #D9AFAB",
"tX c #D7B7B7",
"yX c #EAB4A9",
"uX c #F5B8AB",
"iX c #E6BAB9",
"pX c #EAC695",
"aX c #EDD2B8",
"sX c #FFBFD6",
"dX c #DBCED4",
"fX c #E9C9D9",
"gX c #F2CBD1",
"hX c #F6D8D9",
"jX c #ECE9CC",
"kX c #FFF7DF",
"lX c #ECD7E6",
"zX c #FDDDE2",
"xX c #FEEFF2",
"cX c #F9F3F9",
"vX c #FFFEFE",
/* pixels */
"[.*.;.-.+.+.|.(.' '.].8.8.8.8.'.' [.[.'.' [.[.(.;.+.<.|.`.*.:.].8.e.OX8.>.' (.[.[.' '.[.(.*.+.).<..X*.' [.} 8.OX8.7.' ' [.[.' ' ",
"[.[.*._.|.|. X).*.*.{ +X{.{.{ ` ` '.' [.' '.[.'.*.|.-. X<.;.'.` ].{.{.].^ ' (.{ [.{ ' [._.*.).+.|.|._._.' '.+X{.].' ^ '.[.'.(.' ",
"$X].*.'._.).|.<.).-.$.[.` '.' ' ` {.+X} } @X+X{ *.(.|. X|.<._.$.'.` *.(.' ` ].+X} { @X#X].' (._.).|.+._.O.' '.' '.' ' { +X+X{ oX",
"%Xe.:.' (.*._._._.+.*.' ^ ` ' *.].#X#X#XOX#Xr.} *.'.(.$.;.(.-.;.*.` ` { ' ].OXOX$X#X#X$X} { '.'.;._._.).(.{ ' ^ ' ' '.oX#XOX#X8.",
"#X#Xe.} '.'.[.].{.*.' { { ].oX7.#Xr.r.#X%X$X#XOXw.'.*.'.'.oX:.%.{ { ].OX} OX#X#Xe.$X#X#XOX7.{ '.(.(.].].' ' ] ] oXoX7.#X#XOXr.$X",
"#X#X#X$X7.w.@XOXOXe.7.8.7.8.8.OX#X8.r.8.#X8.#X#XOXOXw.OXOXOXe.w.8.7.7.8.7.#X8.8.8.#X8.$X#X#X@X7.+X@X#X_ 4.OXoX7.8.8.r.#X8.r.#Xr.",
"_ w.] } [ >.w.OXe.#Xe.#X8.#X8.8.#X8.#X8.6.4.} } } } } oXOXe.#Xe.OX8.r.8.8.r.r.8.OX6.5.[ 7.} 7.} oX7.6.d 4.8.#X8.r.8.8.8.8.#X8.8.",
"*.{ ' *.{ ` :.{.].oXw.7.OX@Xe.8.8.OX} } oX].' ' ` { { ` [.].+XoX7.OX@X#X8.7.OX7.[ oX+X' ' ' ' ' ` '.] & ) 7.8.OXOX8.8.#X7.] 7.oX",
"[.' '.'.[.' ` '.[.[.'.{ { :.} ].].'.'.[.` '.(.(.'.'.'.` '.[.[.[.{ { { ].} ].(.[.[.' ' '.(.'.'.'.{ ` I o ` ' { ' ].].} ].'.'.'.' ",
"` ' ` '.' '.' '.'.{ ` [.*.'.'.[.'.'.' '.'.' ' ' ' ' '.'.' '.' ' [.(.' [.[.*.[.' { '.(.' ' ` '.' '.` t o ~ '.[.` '.[.'.(.'.' '.'.",
"` '.{ ' ' '.(.' *.:.*.[.'.'.'.[.[.(.[.' '.' (.' ' ' ' (.' '.' ' [.(.*.[.[.[.'.'.' (.' ' ! ` ' ' '.W > & ^ [.(.'.[.[.[.'.(.'.' '.",
").*.(.' '.'.' :.'.*.'.[.}.*.}.(.(.(.(.' (.).(.*.' '.[.' ' '.'.'.[.[.(.(.[.(.(.(.' (..X(.w U *.[.:.m   0 '.'.[.(.' `.(.(.'.' *.`.",
" X|.&.(.*.*.' '.W p (.' =. X-.).|.O.-.).).|. XO.(.(.' ` '.' ` '.'.*. X_.-.|.+.<.(.).+.+.% U (.*.R :   i '.'.` ).).-. X+.=._.).|.",
"|. X).O.(.` [.'.R % W *.`.).|.).|.|.+.).XX X|. X-._.' [.(.(.` ' ` (. X-.|. X|.+.|. X|.|   | O.(.u   + R ' ` ' _.|.|. X XO.).).XX",
"+.|.|.|.|.$.&.*.W @ u *.[.*.=.+.|.|.|.|.|.|.|.|.|.|.=.;.&.*.' [.(.'.[.&.O.|.|.<.|.|.+.e X o.|.| :   2 ~ '.(.I ! *.+.+. X|.|. X|.",
"|.|. X+.|.<.<.|.o.# , ^ (.p U ).<.+.|.<.|.|.|.).+.|._.+.).+.+.=.*.(.' (.).+.o.P |.|.o.O X O.O.e O O t =.O.I 0 ^ (._.+.|.+.).+.|.",
"+.|.).|.|.|.o.| _.& = I '.u , @._.O. X<.<.<.+.|.+. X|.<.|.)._.;.'.'.'.'.(.(.| y |.<.y O , +.| - = O | `.W X y '.'.'.(.).|. X|.|.",
" X+.+.+.-.+.| & ~ i = , ~ ..f p &.x $.|.|.|.|.+.).-.+.+._.*.'.[.'.{ *.(.' (.p r <.o.> O r o.3 - O 0 *.~ % @ ~ ' '.' '.(..X).|.).",
")._.;.'.*.(...@ L R = = w @.6 h U t x $.)..X<.-.*.*.*.`.*.[.' [.:.^ oX>.' %.3 q $.P @ O P p @ O   U ' &   0 %.>.'.' ' [.(.' )..X",
"(.(.(.(.&.*.! X o I x 4 # Q t 4 t 3 4 t @.'.*.[.'.(.%.(.*.(.' (.^ u #X+X:.R = r %.4 = @ p :     y *.p @   L >.e.#X].'.[.' [.(.}.",
"[.(.(.;.-.+.$.,   & P < ; t d @ ; 4 < 4 % W '.}._.-.).O.' ` '.'./ 6 6.8.(.r ; L  .= O O X     % o.I = @ , ^ OX#X_ { '.'.[.[.'.'.",
"[.' -.O.+.).|.i   O & 2 = @ > > ; v 4 ; # > p W O.O.|.O.`.'.'.'.Y # Q #XQ @ = P 3 = O O       P | X     Y w.3.w t _ '.'.[.[.'.' ",
"[.[.'.).<.|. Xo.% = = = ; = O = < k 4 O @ - - 0 O._.|.)._.*.(.'.d   E [ r O @ q O     + O   e P % O   & %.E *   Y [ ' ' '.'.'.' ",
"+X].%.(.-. X X=.i O - g g < > O f v 4 O O > 6 4 y &.|. X|.).(.~ 0 O I ^ X O % # O O         y %   @ @ I r   O r '.] ' ' {.[.' { ",
"$X7.'.{ [.*.;.).=.& f v < < < = < k g = = h 6 < + i *.+.&.).).o.3 - L w     X O = +       O     @ @ & %     % W { ' (.} @XOXOX7.",
"#XOX} { '.'.(.'.'.R , v j j h < h f h - > f < > h g p *.'.{.' I @ @ q % @   O O O     O   O   O O + + O O   u ` } ].7.OX$X#X$X$X",
"$X#X$X#X[ } {.@XOX7.Y - b v c z k h < < > f h = h i.u.d ) #X5.0   O o @ -   O         O ; O   O + ; @     q [ 7.7.8.#X#X8.8.r.#X",
"4.oX7.OX7.oXOX8.8.#X5.d # z M M z z g - f f f f f M M 2 * Q 4.X       @     O               O + # O O . o d ( 8.OX8.8.#X8.r.8.8.",
"{ :.' ' { ' { {.w.OXOX4.q j z < < h k z M u.h ; f v v <   o *         O O   @ O   O         + - O   O O O   t 5.e.3.6.8.8.oX7.OX",
"].*.'.' '.' ` [.[.[.{ { ) d - # > j z b c M k f f h < > @   O O   O - @ @   O O   O O O                 + $ J D.B.G S ].oX{ '.{ ",
"' (.` '.'.'.' '.[.(.' [.' ` L o 2 j j - 6 < ; - - 4 4 O     O         O             O         O = O O + J ~.yXwXH.A E *.'.'.[.' ",
"` *.' { ' ' '.' *.' [.'.(.[.(.^ p 6 6 6 b < = # > 4 : O O O # #             O O       O +   O - 4     O l I.0XI.h.V Q '.[.' ' '.",
"_.(.(.' '.'.' '.'.'.' [.[.;.[.`.'...r 6 9 3 $ + 5 9 9 9 +   X +             # @ O     > ;     O 2 +   4 Y.sXrXE.D s ' '.(.' '.}.",
").).' (.' ' ' '.' '.[.{ _.)._.).).O.t.7XqX2XK.S.K.;XT.n # # .   O               O       O       < =   N tXyX0XE.h.8 X.-.&.(.(.|.",
"|.|.).+.(.'.(.'.' ' ' '._.|.)..X).t.fXvXvXvXxXaXeX<Xq.* $ $ .       .   .     .   O O         O + + : T.iXtXR.J.H s T |.O.|.|. X",
"|. X|.+.).^ ' (.' ' (.` }._.#.%X-XrXlXd.U.lXvXvXkX<Xm.Z n 7       . $                 O = O O @ ; b 6XtXtXrX^.P.h.Z  .|.).|.|. X",
"|.|.|.|.|.+.|.).O.$._.(.` &XZ.=X,XpXdXK k.lXcXvXkXuXH.m.2.q.9 s $ . $ X $ .           @ O X # N T.R./.R.1XE.H.k.D s O.).+.|.|.|.",
"+.|.|.O.|.|.+.|..X-.$.'.'.*XZ.n.Z.4XhXfXfXvXvXvXvXhXQ.J.m.<XK.s.S.F.s.8 8 $         O J d.T.T.wXiXwXqX/.G.k.k.b.G 1.&.).|.|.+.|.",
"|.).|.|.).+.O._.' '.(.[._ b.T S C.*XaXvXvXvXvXvXvXzX~.H.^.3X9X;X2XyX0XR.F.q.q.: - O @ Y.hXyXK.^.3X/.1X/.N.D V Z ^ %.' )..X X|.|.",
").+.O.&.&.`.).(.'.'.[.[.~ S { ` _ 8.;XjXkXvXvXcXxXgX~.z.!./.9XrXaXgXwX2X1XL.s.k h 2 - N 2X1XP.M.<X0XE.D.A d Y T '.{ _.[.[.&.).|.",
"(._.'.'.' (.'.' *.` [.].) ( ].' [.'.' %X:X8X8X7XY.R.W.z.W.Q.9XyXuX3X1X3XI.S.B v f < h 5 S.N.N.9.y.H.P.P.D s ^ OX@X{ ` [.[.'.(.(.",
"'.(.}.(._.O.&.'.*.'.[.oXOX#XoX:.[.' [.[.'.*.*.' *.#.9.k.z.g.z.W.!.W.1XQ.N.A k h f < < n H.c.j...=./ T Q T E 6.OX#X{.'.'.'.[.(.[.",
"[.' _.O.+.|.-.[.'.'.>.OX8.OX8.:.[.[.[.'.' (.%._.=.=.<.=.4.2.H h.j.f.f.C f.Z c h - - ; Z c.v.F O.=.<.[.' '.].8.#X#X7.(.[.(.[.'.' ",
"[.(.(.+.|.+..X(.*.'.].e.OXOX7.' ' [.'.'.' ].[.'.|.<.<.|.).%.*.%.3.1.1.a Z b i.h > - > K c.c.0.|.|..X' ' [.7.OXoX8.[ ' '.[.'.'.' ",
"{.'.(.'.O.|.|.+.;.*.` {.'.'.{ ~ ' '.'.[.' {.{.'.'._.|.|.<.=.%.@.].].'.{.! t g - = O l G.v.k.#.-. X|.<.(.' *.].].[.' ` { '.'.'.{ ",
"%X].' (.`._.|.|.|.-.%.'.' '.' '.' oXoX8.7.@X+X{ %.(._.|.<.#.t.L.B.y.) >.@.1 ; - O : K v.l...(.(._.<.).<.-.(.' *.' ' ' { OXoX} oX",
"#X8.} ' '.[.(.(.'.;.{ ' ^ { ].:.oX#X#X$X#X#X8.oX%.'.[._.,.k.!.>X,X4Xy.#.^ 3 > : : J W.c.H %.%.].'.:.'._.*.{ ` ^ ].*.} OX$X#X%X#X",
"$X@X@XOX{ { (.].+X{ { { { 7.#X7.#X8.r.8.$X%X#X#Xe.>.:.,.a.s.C.n.2.4X4XB.q.s 9 l K j.c.j.e.r.OX%.:.'.oX].{ { { ' OXOXOX#X8.r.8.$X",
"8.#X8.#X7.OX#X#XOX#X8.OX8.8.8.8.$X8.OX8.8.8.OX8.#XOX8.d p.s A 2.*X>X5X=X=XV.k.N.c.x.h.1.OX8.@X7.OX#Xe.#XOX8.#X8.OX8.e.#Xe.#Xe.8.",
"[ { { ] ] { ].oX8.#X8.#XOX#Xr.8.8.8.OX8.8.7.} :.{ [ %.d m X.i.V.C.=X=Xn.C.l.c.g.j.H 6.{ :.{ [ { >.{.w.#XOX8.#X8.#X8.7.e.8.e.8.8.",
"'.' { { ' ' ` [.'.].} } oX+XOX7.OXoX' ].].'.` ` :.%.%.Y i m Y h.j.A.b.>.3.1.h.1.#.>.{.' { { ' ' %.:.[.{.{.} 7.].oXOX7.OXoX{ ].>.",
"{ ' (.[.'.'.' '.[.'.'.'.` { ].] { '.'.[.` *.'.'.'.:.(.~ i E '.Q Z.C.1.%.>.>.*.'.(.*.' *.:.'.'.[.%.:.;.[.` '.[.` ] ].:.>.*.'.(.` ",
"' ' ' ' ' (.' '.'.' '.[.{ [.(.[.'.'.' { *.*.' %.` '.' (.` Y R 0.V.b.{ '.[.'.[.*.*.*.'.' ' ' (.' ].` ' '.' (.[.'.[.'.'.'.'.' ' [.",
"` [.'.' '.'.'.' ' '.' [.[.' [.[.'.'.'.(.'.*.(.(.' ' ' '.' ~ m a.J _ { [.'.[.'.'.' '.*.*.'.*.' { '.(.'.'.' '.[.*.'.[.[.(.[.' *.[.",
"_._.*.*.' '.' '.' '.'.'.(._.`._._.*.*.(.).).).*.(.(.'.` '.' ` ` *.(._._.`.).*.(.*._.|.`.*.(.*.(.` ' '.' '.'.(.(._.`.)._.*.*.(.).",
"|.|.O._.'.' ' (.' ' (.{ -. XO.|.|.O.-.). X X XO.(.*.' '.'.' ` '.(.*..X=.<.|.<.=.).|.|. XO._.(.*.{ '.' ' '.'.' ).).O.).|.+.).|. X",
"|. X|.O._.*.'.'.' ' ' ' }._.+.|. X|.<.|. X X X X+.).*.(.(.'.` (.' [.`.+.|. X X|.|. X X X X<.+._.' '.'.' ' ` [.`.+.|.|. X|.|.|. X",
"|.|. X).|.=.O.-.&.(.}.' [.[.+.O.|.|.|.<.|.|.|.|.).|.=.O.-.&.%.(.(.(.'.(.+.-.|.+.|.|.|.+.|.|.|.|.=.-.-.&.*.`.' :.(.-.+.|.|.|.|.|.",
"<.|.|.O.|.+.|.|.).+.O.(.'.'.(._.|.<. X+.|.|.<.|.+.|.|.+.).<.=.O.' [.' ' _.+.|.|.|.+.|.|.|.<.+.|.-.|.|.-.=.-.'.'.'.(.).+.|.|.+.|.",
"+.|.|.|. X-.+.).(.(.(.[.'.' '.(.).). X).<.<.+.|.<. X|.+.-._.}.*.[.*.(.'.(._.). X|.|.|.+.|.<.|.|.+.-.).(.(.[.'.'.' '.(.). X X|.|.",
" X+.+.+.;.-.).(.' '.[.[.' '.' '.(.`.(.).|. X|.+.-.;.O.|.(.*.(.[.[.' { '.*.'.[._.;. X).).+.-.&.-.|._.(.*.[.[.[.` '.(.(.[.`.*.|. X",
"(.-.*.[.' (.*.*.'.' [.[.} @X].' [.[.' *.`.(.-.(.'.*.*.(.*.'.' [.[.'.OX+X' (.[.' ' `.`.;._.*.[.` (.*.[.` '.[.{ oXoX{ ' [.(.' _.-.",
"' [.(.(.*.-.*.'.' ' [.].8.$X].' [.' [.[.'.[.'.'.(.(.&._.*.'.' '.[.7.$XOX'.(.'.[.[.(.[.'.[.(.(.&.(.' (.' { [.7.#XOX].' [.(.[.[.[.",
"[.'.`.O.|.-.$.(.[.[.].OX#X@X7.'.[.[.[.[.'.(.[.`.=.+.=.;.*.'.[.'.@X#X%X7.{ [.[.[.[.[.' '.(.-.+.).+.&.'.[.[.].@X#X#X} [.[.[.[.[.*."
};
