/* XPM */
static char *f53590425850440cca952c5edad50c43z5wrvWFDGbSq8nw3[] = {
/* columns rows colors chars-per-pixel */
"60 64 236 2 ",
"   c #020100",
".  c #0A0202",
"X  c #0C0A04",
"o  c #080808",
"O  c #130403",
"+  c #1C0302",
"@  c #130B02",
"#  c #1C0B02",
"$  c #130D0B",
"%  c #19090B",
"&  c #081107",
"*  c #13140D",
"=  c #1C120B",
"-  c #151507",
";  c #180E13",
":  c #1C1212",
">  c #191918",
",  c #0C0F12",
"<  c #250B07",
"1  c #310E09",
"2  c #24130D",
"3  c #2C140B",
"4  c #2E1B0C",
"5  c #2D1606",
"6  c #35170A",
"7  c #250D14",
"8  c #231613",
"9  c #2B1612",
"0  c #2B1B15",
"q  c #2B1C1B",
"w  c #251817",
"e  c #321513",
"r  c #331B14",
"t  c #3C1B13",
"y  c #351C1C",
"u  c #3A1818",
"i  c #1B211D",
"p  c #27241A",
"a  c #3D2214",
"s  c #35231C",
"d  c #3C241D",
"f  c #372717",
"g  c #33280F",
"h  c #2A1A21",
"j  c #351D23",
"k  c #1F2324",
"l  c #2D2522",
"z  c #282826",
"x  c #3C2324",
"c  c #3B2D23",
"v  c #3B2C2B",
"b  c #342826",
"n  c #3B392C",
"m  c #373329",
"M  c #2E3234",
"N  c #3C3534",
"B  c #3C3B3C",
"V  c #373735",
"C  c #332D31",
"Z  c #41190D",
"A  c #421D17",
"S  c #44241C",
"D  c #472619",
"F  c #542A1A",
"G  c #46391F",
"H  c #59321D",
"J  c #43220F",
"K  c #491F23",
"L  c #432523",
"P  c #492522",
"I  c #432B23",
"U  c #4A2B22",
"Y  c #482D2A",
"T  c #532C25",
"R  c #562723",
"E  c #493528",
"W  c #543424",
"Q  c #5B3325",
"!  c #53342A",
"~  c #5B352B",
"^  c #563B2C",
"/  c #5D392B",
"(  c #472D31",
")  c #552E30",
"_  c #4A3433",
"`  c #4B3A34",
"'  c #433B36",
"]  c #5B3C32",
"[  c #553935",
"{  c #653B2D",
"}  c #6A3D2B",
"|  c #643825",
" . c #723E2C",
".. c #673D36",
"X. c #38423C",
"o. c #4A402E",
"O. c #5D452D",
"+. c #454338",
"@. c #4C443B",
"#. c #58453A",
"$. c #575426",
"%. c #6A422C",
"&. c #78452F",
"*. c #6B4234",
"=. c #654638",
"-. c #744839",
";. c #675438",
":. c #74693C",
">. c #6B6533",
",. c #383F41",
"<. c #433D42",
"1. c #3C4342",
"2. c #4B4543",
"3. c #4C4C4A",
"4. c #484646",
"5. c #594A48",
"6. c #57554A",
"7. c #4E4E53",
"8. c #5D5C53",
"9. c #565756",
"0. c #4D534C",
"q. c #654B4B",
"w. c #675648",
"e. c #775848",
"r. c #685A55",
"t. c #735B54",
"y. c #785C58",
"u. c #714F4D",
"i. c #5A6154",
"p. c #686559",
"a. c #786759",
"s. c #79735C",
"d. c #706749",
"f. c #696965",
"g. c #776A67",
"h. c #78736A",
"j. c #797677",
"k. c #6D7578",
"l. c #5E696F",
"z. c #81793B",
"x. c #81594E",
"c. c #80654A",
"v. c #837349",
"b. c #856A58",
"n. c #8F725A",
"m. c #866966",
"M. c #83746D",
"N. c #877967",
"B. c #947869",
"V. c #827C72",
"C. c #897875",
"Z. c #9B7C71",
"A. c #7E8170",
"S. c #918653",
"D. c #878569",
"F. c #89837A",
"G. c #968879",
"H. c #9A927E",
"J. c #948467",
"K. c #A78B7A",
"L. c #887F80",
"P. c #7C8585",
"I. c #878787",
"U. c #938886",
"Y. c #8F928C",
"T. c #9B9184",
"R. c #95968C",
"E. c #969595",
"W. c #8E9394",
"Q. c #A59887",
"!. c #B49B87",
"~. c #A49B96",
"^. c #A9908B",
"/. c #AAA38C",
"(. c #AAA695",
"). c #B7A897",
"_. c #B4B293",
"`. c #A99FA8",
"'. c #9DA5A7",
"]. c #A5A8A7",
"[. c #B4AEAA",
"{. c #A9AAB3",
"}. c #ACB8B6",
"|. c #B8B9B7",
" X c #B2B2AA",
".X c #C3AC8E",
"XX c #C3B19A",
"oX c #C6B6A4",
"OX c #C2BEBD",
"+X c #D3BCAA",
"@X c #B6C2B8",
"#X c #CCC29F",
"$X c #CBC4AA",
"%X c #D8CBB6",
"&X c #D9D6B7",
"*X c #C9CAB8",
"=X c #E7D4B4",
"-X c #B9BDC3",
";X c #BFCAD0",
":X c #C2C3C4",
">X c #CBCBCC",
",X c #C5C8CA",
"<X c #CDD2D6",
"1X c #D3D3D3",
"2X c #DBDCDE",
"3X c #D4D9DA",
"4X c #CDCFCD",
"5X c #E4DBC8",
"6X c #EDEAD2",
"7X c #E1DFE2",
"8X c #DDE2E1",
"9X c #DCE9EC",
"0X c #E4E5E5",
"qX c #E6EBEA",
"wX c #ECECEC",
"eX c #EAEAE7",
"rX c #F1EDED",
"tX c #F1E9EB",
"yX c #EEF1EE",
"uX c #E2F1EE",
"iX c #F1F1ED",
"pX c #FAF1EC",
"aX c #ECEDF1",
"sX c #E5EDF4",
"dX c #F3EEF1",
"fX c #FAEBF0",
"gX c #EEF3F3",
"hX c #EDF7F7",
"jX c #F4F4F4",
"kX c #F9F6F4",
"lX c #F6FAF6",
"zX c #FBFAF6",
"xX c #F4F5FA",
"cX c #FBF6FB",
"vX c #F5FBFB",
"bX c #FCFCFC",
/* pixels */
"bXjXjXbXeXbXcXwXbXlXjXbXeXbXbXwXbXlXdXbXwXcXbXeXbXjXrXbXwXzXzXaXbXlXgXbXeXbXcXwXbXjXjXbXwXbXcXwXbXjXjXbXeXbXbXwXbXjXjXbX",
"jXzXxXjXbXlXjXbXjXcXcXdXbXlXjXbXeXbXlXjXjXlXxXbXjXlXbXvXlXjXzXxXgXcXcXjXbXlXlXbXjXcXlXrXbXlXlXbXjXxXkXjXbXlXjXbXjXbXlXdX",
"xXzXlXjXzXxXxXzXjXzXlXjXzXxXjXxXcXjXbXlXbXcXwXbXjXjXxXwXbXzXwXbXjXzXlXjXzXxXjXkXlXbXjXlXcXxXjXzXlXzXlXjXzXxXjXzXcXxXkXlX",
"bXjXkXbXwXlXbXwXbXaXlXbXwXzXbXwXbXlXwXbXwXlXbXwXbXvXbX2.j.bXvXeXbXjXjXbXwXcXbXwXbXwXcXbXwXlXbXwXbXdXlXbXwXxXbXiXzXgXlXbX",
"wXbXlXwXbXxXdXbXaXbXlXwXbXjXdXbXdXxXzXrXbXjXzXbXeXbX'.= N jXhXbXwXbXxXwXbXjXdXbXwXbXvXaXbXlXdXbXaXbXxXwXbXkXaXbXjXbXlXwX",
"cXlXxXzXjXzXbXjXcXjXkXcXlXlXbXlXcXlXvXjXjXxXjXdXbXbXB Q.0 ,XbXiXzXjXlXcXlXlXbXlXcXjXkXzXlXxXzXjXcXjXlXcXjXxXcXlXjXjXlXcX",
"bXxXxXbXdXzXvXjXbXlXlXbXiXvXcXdXbXjXlXbXaXzXbXdXbX}.+.%X4 W.bXiXbXlXlXbXjXlXcXjXbXjXlXbXdXxXcXjXbXlXjXbXjXlXkXjXbXjXlXbX",
"wXzXzXeXbXjXjXbXwXzXbXwXbXiXxXbXwXcXlXjXbX0Xi.qXbX9.A.=Xa 7.bXbXwXcXbXeXbXdXjXbXwXzXbXeXbXjXlXbXwXzXbXwXbXjXjXbXwXcXcXwX",
"bXjXjXbXeXcXvXwXbXjXjXbXeXzXbXwXbXlXgXbXzX9.@ >XbXp _.&X^ B bX0XbXjXjXbXqXbXcXwXbXjXjXbXeXbXzXaXbXjXjXbXwXcXcXwXbXlXjXbX",
"jXcXlXjXbXjXlXbXaXzXcXjXbXlXjXbXxXlXxXbX(.X.5.3X:Xi $X.X! z cXlXjXzXzXaXzXlXlXbXdXzXxXjXbXlXjXbXgXzXkXjXbXjXlXbXjXcXcXaX",
"jXzXxXjXbXxXxXzXxXzXxXjXzXlXjXxXhXkXlXbXX.V.r <XI.V Z.| Q > tXlXjXzXxXjXzXxXjXzXxXzXlXjXcXlXjXzXlXcXxXjXzXlXjXlXxXlXlXkX",
"bXaXzXbXwXkXbXdXbXjXlXbXaXcXbXwXbXkXcX].m (.t ].f.p D *.{ * 0XhXbXgXcXbXwXxXbXrXbXwXcXbXwXxXbXaXbXdXzXbXwXxXbXjXzXjXjXbX",
"jXbXlXwXbXlXdXbXdXbXlXwXbXjXdXbXqXcXbX9.f.!.T f.V 9 u..X-.& >XbXwXbXxXwXbXzXaXbXjXbXxXwXbXzXdXbXyXbXxXwXbXcXwXbXdXbXlXaX",
"zXjXlXcXjXjXzXjXxXjXjXcXlXlXcXlXbXiXzX4.V.=...w - y.Q.&Xx.  {.bXlXjXkXcXjXxXbXlXlXjXxXzXjXxXzXlXzXjXxXzXjXlXzXxXlXkXlXzX",
"bXxXjXbXjXlXcXjXbXlXlXbXjXxXzXdXbXjXhXb ` J | 9 V ^.N.).u.O {.bXcXjXlXbXiXxXzXdXbXlXlXbXjXzXzXaXbXjXlXbXjXlXvXjXbXjXxXbX",
"wXcXzXwXbXjXjXbXwXzXbXeXbXjXlXbX{.hXlXb 9 J n.3 r.Q.w.O. .X :XbXeXvXbXeXbXjXlXbXwXcXcXeXbXjXjXbXwXbXbXeXbXdXjXbXwXcXzXwX",
"bXlXjXbXeXcXzXwXbXlXjXbXeXzXbX3X  E.bX<.% w.Q.< 6.^.6 b  .O <XhXbXjXjXbXqXbXzXwXbXjXjXbXwXcXzXwXbXjXrXbXaXvXlXdXbXjXjXbX",
"iXxXxXjXbXlXxXbXjXxXjXdXbXjXbXI.@ z bX3.' t.H.] o O.1 x *.  ].bXgXzXcXjXbXxXjXbXjXzXkXjXbXxXjXbXlXcXjXkXxXgXbXbXjXcXcXjX",
"lXzXxXjXzXlXjXzXjXzXbXlXkXxXlX9.w.% -Xj.Y j.M.-.  d ..( %.  k.bXjXcXlXdXcXlXlXzXxXzXxXjXzXxXjXlXjXxXbXjXlXvXgXbXlXlXlXjX",
"bXdXlXbXwXcXbXaXzXjXjXbXaXxXbXV D.~ C ].h M.b ^ * s ^._ E   1.bXbXwXlXbXwXcXbXiXbXaXzXbXwXlXbXjXbXdXdXbXxXvXbXwXcXjXjXbX",
"rXbXlXaXbXjXdXbXiXzXzXwXbXvXxX,.w./ r X.N ) 8 2 + = (.2.U o i xXjXbXlXwXbXxXrXbXyXbXxXwXbXcXwXbXwXbXbXwXbXj.wXbXjXxXxXgX",
"zXjXxXzXlXlXbXjXlXxXxXbXaX].aX4.1 ^ B.w   9 3   L . F.h.t q . ,XzXxXlXzXjXxXbXxXzXjXxXzXjXlXzXxXzXcXjXbX1X> 1XbXjXlXkXzX",
"bXxXxXbXjXkXcXgXbXzXyXbX0X  z B + [ $XZ.< . r.. a.w.+ ' s 9 O I.bXjXjXcXjXzXzXjXbXjXlXbXdXvXzXjXbXgXjXbX~.> |.bXzXlXcXzX",
"wXzXzXwXbXdXlXbXwXvXbXwXxXw C . . r.Q.;.| j 1.( p.^.T * @ w + 1.jXbXzXqXbXdXjXbXwXbXbXeXbXjXjXbXwXzXlXcXr.h U.bXeXxXbXwX",
"bXjXjXbXwXbXzXeXbXjXyXbXxXk h.e.  6.C.  - 2 o , C y.r ~ < o w   }.bXgXbXiXcXbXwXbXjXjXbXwXjXbXwXbXjXlXsX@.a.j.bXbXjXjXbX",
"jXxXzXjXcXlXlXbXxXcXzXiXbX1.8.Z.a 7 y.@ p.[ <     p e t b.4 $ 7 B bXgXyXzXlXxXkXjXbXcXxXbXlXjXbXjXjXbX{.w.O.j.bXeXcXxXrX",
"xXcXlXjXbXxXjXzXjXbXiXeXbXI.' t.K p 2 < p.Q.B...t > r v a.N.  K O I.vXxXkXxXvXbXjXkXlXgXbXxXlXlXjXaXbXj.U r W.bXlXlXcXlX",
"bXdXlXbXwXxXbXiXbXxXzXbXxX0XN ` ) F.< ; p I.q.y ..Y s t.<.f.m < T $ 3XbXrXzXjXdXbXjXjXbXeXzXcXwXbXgXbX2.! s {.bXcXaXlXbX",
"wXbXxXwXbXzXaXbXrXvXvXeXcXbXh.. ] C.u.4 . o & o . q.g.P L V 2.* Q b C bXcXlXlXbXqXjXcXeXbXjXlXbXeXvX,X  a.# -XzXjXcXvXaX",
"zXjXxXzXjXxXzXjXcXgXzXbXkXvXxXp e.C.5 / ] . & g.s.< 4.C.t.C %   6 =.r U.bXjXzXyXbXlXcXbXdXjXjXdXzXlX3.l a.. ;XbXjXjXlXzX",
"bXxXlXbXjXlXcXjXcXlXyXbXkXjXbX:Xi F.~ < s.y.+ @.d.] w w V.C.t.8 < Q T 3.vXjXzXlXbXjXjXzXjXzXbXjXbXI.I m #.# <XzXzXjXzXbX",
"wXzXzXwXbXjXjXbXrXbXvXwXbXjXgXbX:XM u ] 8.5.=   + P n.N.l m.j.; j } H 6.vXjXfXbXwXbXcXjXbXgX7XeX7Xq ! $ q 3 2XbXwXzXcXwX",
"bXjXcXbXwXzXbXwXbXdXjXbXwXzXcXqXvX8XV c /.w.m R.+.  h.6Xf.  * . H -.; '.bXpXzXgXbXhXpXbXeXbXL.I.].a.#.o 2 d 9XyXbXjXlXbX",
"jXxXzXdXbXjXjXbXjXbXjXjXbXlXjXbXfXbXbXW.C h.+.%X!.W 6 $.).h   q  .P 5.bXvXzXdXvXzXhXkXjXbXqXr.f.7.O.8   E ( sXbXyXbXcXaX",
"jXzXlXjXzXvXlXcXlXcXzXjXbXjXlXcXzXbXW.7.; = @ p.-.F *.B.o.z   S =.2 :XbXvXyXbXbXrXbXzXgXzX`.I I z F 7 8 D j.bXkXzXxXlXkX",
"bXaXlXbXeXcXbXaXbXjXjXbXqXcXzXjX2Xm O U %.W t 3 b T j (.(.* . | y 3.bXcXqXzXcXaXcXxXwXbXbX6.! E C t.+ ] t ,XbXeXzXjXlXbX",
"jXbXcXwXbXjXdXbXwXcXzXeXbXlXjXbXB ` ^.| c..Xb.u   J C.8.p.0.= } @ ,XbXrXbXhXwXcXwXbXbX1X8Xw.m.t 5.B 5 W 6.bXvXbXjXcXlXaX",
"lXjXkXvXjXlXzXxXvXlXjXbXwXcXcXlX}.z m.6 a.R.p h.N.6 #.N.5.> 9 D 4.bXwXcXxXlXzXzXbXjXhXb i.F.I e #.; -.4 }.bXlXyXjXlXjXzX",
"bXjXlXbXjXzXxXjXbXjXxXzXjXlXzXjXbX~.+ e u.m.= 8.e.) s.K.r.q Y J k.bXjXkXjXbXxXyXlXbX{.[ = d _ c X P Q +.gXbXxXjXbXjXlXbX",
"wXbXlXwXbXjXjXbXaXzXbXwXbXjXjXbXwXbX}.o r.m.t 2 = h i.a.5.: ~ 5 P.cXcXeXbXjXjXbXwXzXj.=.q ^ u.q , &.A Y.bXaXfXbXaXzXcXwX",
"bXjXjXbX3X1XbXwXbXgXkXbXeXbXcXwXzXpXbX4X,.<.A D v z   C z # ..% }.bXjXbXwXcXbXwXbXeX` ) p H.5.o F [ V bXaXkXzXaXbXjXdXbX",
"yXzXjXbX2Xi I.bXcXbXjXbXbXjXlXbXhXgXxXhXP.. % 8 f 6.D.F.* e *.= 1XbXgXlXzXxXxXlXbX,Xv B.= N.q.% =.9 1XbXvXlXxXxXdXbXlXdX",
"wXcXbXgXbXB $ ' |.bXbXaXgXxXjXzXxXbXrXp p r 9 O N.&X5XQ.O K Q m qXvXbXjXlXzXjXcXbX[.a.#.< #.` R 9 E.bXgXkXkXzXxXzXzXxXlX",
"bXwXjXbXbX].; 9.* 0.:XbXbXcXjXwXbXdXbXf.g.q.t 4 e X.s.E 7 P Q E lXiXtXbXW.E.bXcXbXR.E d L r.v t h.bXaXbXeXzXbXdXbXaXlXbX",
"wXbXzXwXvXjXp C x.Y q 7.,XbXbXbXyXxXvXqX_ ) *.H [ : X . j F ..w 2XbXbX~.j.z 8.|.vXI.1 5.<.1 j ` aXbXvXwXbXiXrXbXjXbXxXwX",
"cXbXjXzXlXbX|.. o.5.L 1 e r.E.4XlXbXbXbX1XI D e.$XN.@ X x Z *.% {.vXbXY.9 ~ ~ J 8.I.w.g.x u w @XbXxXhXbXaXbXzXlXjXlXkXcX",
"vXdXcXcXdXgXbX7.8 U.M.S 0 E d Y 3.j.`.1XuX0Xr.v _.5X Xm q u W L , M V c ^ | }  .E _ F.@.9 e f.bXjXjXkXzXxXjXbXrXbXjXlXbX",
"qXbXkXjXbXgXvXjX, N (.G.Q W G.N.w.*.Q S m +.2.; * ` D.8.O P J Q O U A =.).$Xe.| &.A i.z r g uXbXrXcXkXwXbXgXlXbXwXzXbXwX",
"bXjXjXbXeXbXbXxX3Xo l r.5.S t.XX(._.).u.} -.e.p u u A P s y r s 9 ~ ..%.Q.H.XXv.n.b.4 4 8 ].bXqXbXxXiXbXeXbXzXaXbXjXjXbX",
"lXlXbXjXlXjXcXzXbX3X* ' r._ + ! m.M.T.C.E ] e y A ] -. .%.Q ~ 3 I S =.%._.p.6.).oX%Xp.w g.bXaXlXiXzXvXjXbXlXjXbXdXbXlXdX",
"jXzXcXjXzXxXdXvXyXbXqX1.5.[.N.A =.H.H.H.b.S < s t a | %.} %.*.W 4 U } %.!.T.|.0.N.J.).g.:XbXkXzXxXzXkXjXzXxXjXzXzXcXlXjX",
"bXiXxXbXdXvXbXdXbXyXvXvX4.C G.m.~ b.oXQ././.4 4 I 3 r U L ~ } %.W u R | H a./.i.:.S.$.R.aXxXcXwXbXdXlXbXwXxXbXyXbXgXlXbX",
"aXzXzXwXbXlXjXzXwXcXxXxXbXL.p 8.#.+ < ] ).5Xg.j 0 e d L P ) | { { Y 3 w.H.+XJ.S.S.:.:._.bXjXjXbXgXbXcXwXbXxXrXbXjXbXlXwX",
"zXjXxXbXdXjXcXjXkXlXcXzXrXbX:X, z M.u...a.a.' w j Y D F  .*.5 w.N.d h.*X#X&XH.>.$.5 g  XbXxXlXlXkXjXjXbXjXzXcXlXjXjXlXcX",
"bXzXjXxXlXzXxXlXbXjXzXzXyXlXbX8X2.l r.s # # c   w P Q &. .H ` oX&X/.h.p./.$X$XD.@.j.9.yXbXxXzXiXbXlXjXbXjXlXcXgXbXjXlXbX",
"wXxXbXwXbXdXlXbXwXlXlXeXbXxXaXbXbX'.1.  7 <   l.v u D #.T 3 /.&X#X5XH.s.$X/.G.8.f.vXqXqXbXxXxXzXwXbXbXeXbXjXjXbXwXcXcXwX",
"bXjXjXbXeXbXbXwXbXjXjXbXeXbXbXwXbXbXbX{.B j.8XI.s 4 = * m 5.U.Q._.h.r.~.h.r.8.I.0XwXlXbXeXbXbXwXbXjXjXbXwXbXzXwXbXjXjXbX",
"jXvXcXdXbXjXjXbXjXzXxXdXbXlXjXbXeXlXbXbXbXbXwX3.:.J f E 2.h.t.f.6.w z $ $ j.3XbXcXlXcXjXcXlXzXzXjXlXcXdXbXjXxXbXwXbXcXrX",
"jXzXlXjXbXxXjXzXjXbXlXjXzXzXjXcXjXzXiXxX1XW.0X#.v.v.d.#.s c E w 9.f.I.E.4XbXbXbXlXcXjXlXbXxXjXbXlXcXlXjXzXxXlXkXzXlXxXlX",
"bXdXcXbXwXlXbXaXbXdXlXbXwXxXbXwXbXjXxXbX,Xn ;.;.d.d :.;.w ;.z.' wXbXbXvXgXlXbXeXbXjXjXbXjXzXxX0XbXwXlXbXwXcXbXaXbXjXjXbX",
"yXbXxXwXbXlXdXbXwXbXcXwXbXxXdXbXwXbXvXjXzXw.w.d.0 ( J.G c J.$.f.vXdXjXaXbXjXjXbXeXzXbXaXlXjXzXbXjXbXlXwXbXxXdXbXjXzXlXaX",
"zXjXxXzXjXxXzXlXzXjXxXzXlXjXcXlXzXiXzXzXlX|.@.0 M 4 g   m o.: 4XbXjXbXkXxXzXkXkXbXjXjXbXjXvXbXrXlXjXcXcXjXlXzXlXxXlXcXzX",
"bXlXlXbXjXzXcXjXbXlXlXbXjXxXzXjXbXkXiXcXvXbX7X XjXf.E.Y.f.C.OXcXzXlXjXcXlXzXcXdXcXlXjXbXjXcXjXlXbXxXxXbXjXkXcXjXbXjXxXbX",
"wXcXbXeXbXgXjXbXwXzXbXeXbXiXxXbXaXbXbXeXzXgXvXbXgXbXbXvXbXbXbXbXeXbXbXeXbXwXxXbXwXbXbXeXbXjXjXbXwXzXbXeXbXgXjXbXwXzXzXwX"
};
