/* XPM */
static char *_398e68702a24aff9782dbbce40f5258FhRovc5oYBUQYvO9[] = {
/* columns rows colors chars-per-pixel */
"64 64 231 2 ",
"   c #020305",
".  c #050A06",
"X  c #0A0806",
"o  c #04060A",
"O  c #0A060C",
"+  c #06090D",
"@  c #090A0D",
"#  c #12090A",
"$  c #081008",
"%  c #0B130B",
"&  c #0D1B0C",
"*  c #121D0C",
"=  c #0A0611",
"-  c #070A11",
";  c #0A0D13",
":  c #0B0F19",
">  c #170B16",
",  c #0D1214",
"<  c #0E1A12",
"1  c #0E121A",
"2  c #0F1919",
"3  c #131314",
"4  c #11151C",
"5  c #171A18",
"6  c #141A1C",
"7  c #270E0E",
"8  c #241D18",
"9  c #341A16",
"0  c #0C230F",
"q  c #12250E",
"w  c #15310D",
"e  c #0E2614",
"r  c #1B2613",
"t  c #182716",
"y  c #122C13",
"u  c #153113",
"i  c #1A3313",
"p  c #163A12",
"a  c #1A3B14",
"s  c #19381A",
"d  c #242B17",
"f  c #322E15",
"g  c #233B15",
"h  c #293B1C",
"j  c #0F1522",
"k  c #121621",
"l  c #191427",
"z  c #141924",
"x  c #1B1D23",
"c  c #151C2A",
"v  c #1A1D29",
"b  c #261C2A",
"n  c #341922",
"m  c #231F30",
"M  c #1B212B",
"N  c #1B2332",
"B  c #1E2839",
"V  c #292525",
"C  c #253626",
"Z  c #242934",
"A  c #262D39",
"S  c #392838",
"D  c #383438",
"F  c #520706",
"G  c #48180A",
"H  c #582815",
"J  c #4D3115",
"K  c #653C1D",
"L  c #491526",
"P  c #5A2E27",
"I  c #563726",
"U  c #52302C",
"Y  c #48383E",
"T  c #763429",
"R  c #1B4314",
"E  c #1B4919",
"W  c #1A531F",
"Q  c #214C15",
"!  c #2D4B16",
"~  c #22441B",
"^  c #234C1C",
"/  c #374816",
"(  c #235416",
")  c #23531B",
"_  c #265A1A",
"`  c #36571B",
"'  c #29641B",
"]  c #2A6C1D",
"[  c #3C641B",
"{  c #396B1D",
"}  c #2D751F",
"|  c #2E781F",
" . c #33751E",
".. c #3C751F",
"X. c #33781F",
"o. c #3D781F",
"O. c #194722",
"+. c #195424",
"@. c #1A5C27",
"#. c #274B22",
"$. c #374B26",
"%. c #2A5C24",
"&. c #395925",
"*. c #1C6A29",
"=. c #1F752D",
"-. c #1F792F",
";. c #236827",
":. c #326520",
">. c #257425",
",. c #2B7522",
"<. c #277927",
"1. c #2E7C22",
"2. c #21752B",
"3. c #237C2D",
"4. c #287E29",
"5. c #357721",
"6. c #317E21",
"7. c #3C7D20",
"8. c #217E31",
"9. c #55431C",
"0. c #4A5518",
"q. c #48651B",
"w. c #436C1D",
"e. c #43751E",
"r. c #4A751F",
"t. c #45781F",
"y. c #4C781F",
"u. c #485627",
"i. c #505327",
"p. c #794E2B",
"a. c #715430",
"s. c #496522",
"d. c #57652F",
"f. c #447C20",
"g. c #4D7C20",
"h. c #507F21",
"j. c #2C3444",
"k. c #2A3348",
"l. c #35384B",
"z. c #533746",
"x. c #6B3B47",
"c. c #366240",
"v. c #4B4E4F",
"b. c #524D54",
"n. c #744849",
"m. c #724D4F",
"M. c #664855",
"N. c #5E6465",
"B. c #78617A",
"V. c #971011",
"C. c #8B2C0E",
"Z. c #A43E1F",
"A. c #8B362E",
"S. c #A8352A",
"D. c #8A450C",
"F. c #934B2E",
"G. c #B24B3A",
"H. c #D96728",
"J. c #90514D",
"K. c #B2534A",
"L. c #946E51",
"P. c #A26845",
"I. c #AA6457",
"U. c #A17F58",
"Y. c #825463",
"T. c #A65768",
"R. c #946F6B",
"E. c #BB7869",
"W. c #C85D46",
"Q. c #C85F63",
"!. c #D56D70",
"~. c #E67D68",
"^. c #2E8225",
"/. c #26812E",
"(. c #2A832A",
"). c #2C892C",
"_. c #328322",
"`. c #3B8222",
"'. c #348823",
"]. c #3C8923",
"[. c #308A29",
"{. c #228332",
"}. c #248A35",
"|. c #298B30",
" X c #269338",
".X c #448422",
"XX c #4C8222",
"oX c #428923",
"OX c #4C8A23",
"+X c #518422",
"@X c #558923",
"#X c #588B24",
"$X c #C8953C",
"%X c #ED832D",
"&X c #9D8371",
"*X c #BC9378",
"=X c #D58D57",
"-X c #EE9154",
";X c #FCB659",
":X c #D48F72",
">X c #E79F6F",
",X c #E7967B",
"<X c #9A7789",
"1X c #B47D9F",
"2X c #C34A8C",
"3X c #B78A8E",
"4X c #A698A0",
"5X c #CF888B",
"6X c #DA9A88",
"7X c #E7958A",
"8X c #F09197",
"9X c #D6A78C",
"0X c #E7B08F",
"qX c #DB9FAC",
"wX c #FC9DBD",
"eX c #D6ACB0",
"rX c #F6B6A6",
"tX c #F1B3B2",
"yX c #F1CD93",
"uX c #F1CBAF",
"iX c #EAD9AC",
"pX c #F2B2C8",
"aX c #ECC9CE",
"sX c #F9C6C6",
"dX c #FCC7D8",
"fX c #FEEDD0",
"gX c #FCD3FA",
"hX c #FFEEED",
"jX c #FCF5F4",
"kX c #FDF5FC",
"lX c #FFFEFE",
/* pixels */
"'.1.4.3.-.-.}.^.| '.`.y.y.y.XXX.| '.'._.| '.'.1.3.-.{.{.).1.6.`.g.g.XXy.7.| _.'.'.} _.'.^.4.-./.8.).1.1.'.o.y.XXy.t.| | '.'.} X.",
"'.'.1.(.{.{.{./.1.1.X.oX].].X.} | X.1.'.| _.'.`.1./.-.}.{.4._.} ].`.].`.] } ^.X.'.1.| '.^.1./.-.{.}.(.^.} `.oX].].| ] _.'._.^.| ",
"@X`.1._.(./.{.8./.3.>.'.} _.| | } ].].o.o.OXoXX.^.^.{.{.{.8.4.>.6.} 1.^.| } `.oXo.X.XXXX`.| ^././.{.-.(.2.| ^.| _.1.} X.oX`.X..X",
"#Xg.6.| ^.1./.(.(.2.1.| ] | | 1.`.+X+X@XXX@Xy.`.| _.^.2.4.^.<.4.1.,.} X.| 7.OXXX@X+X@X@Xo.X._._.4.4.(./.4.X.} ] } | _..X@X+XOXy.",
"+X+Xy.o._._.'.`.]._.| X.X.`..Xt.+Xh.h.+X#X@X+XXXt._._._._.]._.,.6.X.`.XXo.XXh.+Xh.@X@X+X+Xt.X._.^.^.].o.| | X.X..X.Xt.+Xh.y.@X#X",
"+X+X+X@Xt.f.OXXXXXy.t.y.t.y.y.XX+Xy.h.y.h.y.@X+XOXXXt.XXXX+XXXt.y.t.t.y.t.@Xy.y.y.h.y.@XXX+XOXt..XOX+Xy.y..X.Xt.y.y.h.+Xy.h.+Xh.",
"{ f.X.o...7.f.XXg.+Xy.+Xy.+Xy.y.+Xy.XXy.r.w.o.o.o.o.o..Xy.y.@Xy.g.g.g.y.y.h.h.y.XXr.t...t.o.t.o..Xt.y.+XXXy.+Xy.+Xy.y.y.y.+Xy.r.",
"6.5.| 1.X.} 6.].`..X.Xt.XXOXy.y.y.XXo.o..X.X| | } X.X.} '.`.]..Xt.XXOX+Xy.t.XXt....X.X| | | | | } _.].].oXt.y.XXXXy.r.+Xt.X.t..X",
"'.| _._.'.| } _.'.'._.X.X.6.7.7.`._._.'.} _._.^._._._.} _.'.'.'.X.X.X.`.`.`._._.'.| | _.^._._._.| | ^.'.'.| X.X.`.`...`._._._.} ",
"} | } _.| _.| _.6.X.| '.1._._.'._._.} _._.| | | | | _._.| _.| | '.^.1.'.'.| _.| X._.^.| X.} _.| _.| _._.| _.'.| _.'._.^._.| _._.",
"} _.X.| | _.^.| 1.6.1.'._._._.'._.} ) g ~ i i q w R ( _ _ ' ] } '.^.1.'.'.'._._.1.^.| | X._.1.,._.| | '.| '.^._.'.'.'._.^._.| _.",
"/.1.^.| _._.| 6._._._.'.).1.^.%.d % @ O ; 3 o   . . X . . . % i ) } 1.^.'.^.^._.| ^.).^.^.1.1.'._.| | _._._.'.^.1.).^.^._.| 1.).",
"{.{.<.^.1.1.1._.} 1.'.| >.;.r > o   ; 5 6 2 1 ; k 1 : ; o : ; l l % t W <.8.-.3.^./.8.}.-.1.^.1.| | _.} _._.} /.8.8.}.8.2.(./.{.",
"}.{./.=.^.,._._.| | | ] a 3 6 O - 1 ; V x x v Z 1 : 4 3 ; k 4 1 z 3 ; ; 5 +.-.-.{.}.}.}.{.{.2.1._._._.} | | _.).{.{.{.}.=././. X",
"-.{.}.{.{.>.<.1.1.1.' * o ; ; O 1 1 , - ; , , M 1 N V : @ . ; 4 : 1 ; z v 3 < s +.+.+.+.*.2.8.3.>.<.1.} _.^.^.).,.;.*.8.3.8.{.}.",
"}.{.{.-.{.8.8.{.=.#.x z +   o o + ; 1 ; + + . : , 6 A c ;   : 4 3 ; ; m l.S Z O ; v 3 k l 1 v O.*.8.{.=.=.(.1.u.J.I.P.F.J %.-.{.",
"-.{./.{.{.{.-.{.$.> - ;                     . ; , M A M 1 . # 6 b Y z.b.b.Z ,   + : + o - : k : % u ;.|.5.d.&XpXdXuX,XG.J 2.8.{.",
"{.-.-.-.3.-.2.#.> o = o .           X X       .   3 M 6 3 V Y M.M.m.Y V x ;       @ ; @ ; : : 1 c : 5 $.R.aXsXpXwX5XJ.A.H :./.8.",
"/./.(._.1.1.%.b O # d Q %         & $ X   . o @   O 3 9 P J.1XR.z.Z 4 4 M @   o . 3 o - ; : M N Z z 2 S qXpXpXpXdXsX7XK.9.:./.|.",
"^.^._.^.<.} C b r Q X.Q       % E Q $ X 5 # 7 # ; z.L.I.J.1X3XD + + 1 , 1 4 ; 1 - - o . ; - 1 c k ; : - M.dXsXrX8X~.Q.A.i.'.^.[.",
"'.^.^.4.3.=.) ) X.'.} 5 @ X * _ _.w , <XeX>X>X&XL.6XuX7XE.R.v.6 + + + + 1 k 2 ; ; ; + + 1 ; 1 j z ; 1 1 v <XsXrXrX7X5XF.I ^.^._.",
"'.1.3.2.-./.{.'.| _.~ X o * [ X.} r 4XlXjXlXlXjXuXyXyX0X:Xx.5 ; . + ; 6 ; 1 k - o - + k ; - - z z 4 1 1 : V 5X7XQ.K.K.A.9.5._.| ",
"'.'._./.{.{.}.3.1.1.r : > ` { i.p.*XjX4XM.1XkXlXjXfXiXyX6Xz.1 @   + + ; o + - k c 4 ; k 1 1 : : 1 1 - M 4 = Y.tX7XQ.W.S.K  ._.| ",
"oX7.,.^.3.{.}.3.(.;.< 3 g i.G.H.-X9XgXY.F !.kXlXlXlXfXuXrXx.    +   - k ; ; o 3 A Z - 1 z k.Z c M z 1 N v - Y qX~.!.K.H { '.| X.",
"#Xf._.X.'.1.3././.+.@ r _ F.%X%XH.7XgXpX2XaXlXlXlXlXfXyX:XJ.  . + + o + + - ;   k M 4 k j.A N N k.N ; 4 4 : l 5XpXtX:XA.9.XXXXt.",
"XXXX..X.^.`.^._._.R # ) ] D.D.H C.=XdXkXgXlXlXlXlXlXfXyX=XI.X . +     . o ; , + : , 1 1 v 4 N N j.c - : ; - = T.Q.K i.q.y.XX#X@X",
"@XXX@X+Xo.o.].OXy.d r o.{ G J f C.I.iXlXlXlXlXlXlXlXhX0X,X:Xn   .     +   o - , 4 : @ . , N k.N : 1 : 4 : ; = Y.5XA.i.+Xy.y.+X+X",
"w.XXe.XXt..XXXy.y./ ` h.[ 8 w.r.h.u.L.uXhXlXlXlXlXlXfX>X=X0Xn.          o 1 c 1 1 4 o : 1 M B k.k ; : + O 6 > n i.q.g.+Xy.+Xr.r.",
"X._.| | X.| X.].t.y.XXy.w.h y.t.g.g.s.d.L.9XuXaXeXeXdX7X=X,XI.7       . o 1 z 4 j 1 o + - j B l.A l - ; + 1 + P a.r.y.y.y..Xt.XX",
"`.1._.| _.| } '.'.'.X. .[ [ .Xt..X.X5._.}  .u.u.&.&.L.K.W.~.S.7       o k ; - ; - - - ; : c N k.v c , , ; ; . V s..Xt..X]. ._.X.",
"} ^.} _._._.| _.'._.| '.| | `._.,._.1.'.} | | X.6._.X./ H S.V.F       o 1 o o   o - 1 1 : j c j 1 - v v o o . t } _.} _._._.'.} ",
"} 1.| X.| | _.| ^.| '._.^.'.^.'.'.'.5._._.| | | } } | _.[ / G G       o ; : - : 1 1 2 - j c k - 1 o z k O o o w '.'.'._.'.| | '.",
"(.^._.| _._.| _._._.| '.'.4.'.).'.^.1.1.).4.^.^._.| '.,.X._.'.(     = o - - z j , 1 j o 1 z c ; 1 + o =       u ^._.^.'.^.| _.).",
"/./.| ^.| | | _.| _.'.X.^./.(././.-.1.^.3.{.{.<.^.1.5.,.^.} ,.;..   > > o o - - o + 1 - o : 1 - - +   ; O   X E /././.-.<.^.^.{.",
"{.}./.-.^._.^.^.| | | _.(.}./././.-.-./.}.}.}.{.3.^._.'._.} 0.D.7   L 9 1 : - -   - z - o 1 1 1 .   . O O . . W }././.{.=.{.{.}.",
"{.}.}.=./.] | ^.| | ^.| [./.=.-.}.}.{.{./.}.{.}.-./.,.,.,.$.Z.H.9   T U + o O : o 1 - - - 1 k -     o o O % q ;.=.-.{.}././.}.}.",
"{.{.{.{.{.-.{./.=.>./.^.| '.(.-.{.{.8.{.{./.{.{.{.{.{.=.c.N.n.H.9   F.p.    o ;   ; + - - o + o     +   % & ^ | ^./.-./.-.{.{.{.",
"=.{.{.=.{.{.=.{.).3.>._.'.X.^.^.-.{.}.=./.{.-.{.-.{.{.*.C v.r H X # $XL.o   O o o o o +   o o o       . < 0 1._.^.^.).3.{.{.-.{.",
"{./.{.-./.-.=.(._._.^.'._.^._.1.(./.}././.{.{.-.{./.-.*.V C &.N.3 9 -XU.o o O O + o + - -   - -   o   O u a _._._.| 1./.|.}.{.{.",
"/.=.=./.<.(./.^._._.'.'.| o._.| '.[.1.(.}.}.-.=.3.| /.*.s ^ v.C   x.-XP.O = o O     o . + + o + O   o @ u ^ _.5._.| ^.'.'.2./.{.",
"^.(._._.} ^._.| 1.} '.`.o.@X`.| '.^._._.^.^.^.^.^.| | ^.R R u E   F.;XT . ; & o     o ; 2 $   + & + o % ) | ^.XXOXX.| '._._.^.^.",
"_.^.[.^.(.-.<._.1._.'..XXX@X.X^.'.| '.'.'.^.^.'.^.^.-./.] ( R R n =XyX9.= , e . o o o . < & o o y &   q X.'.y.@X@X]._._._.'.^.'.",
"'.| (.=.-.{.-.'._._.`.XXy.XXXXX.'.'.'._.| _.X.^.=.=.{.-.[.| a x B.5XL.! . 2 i   .     o e y o o s y . y ^..Xy.XX+Xt.^.'.^.'._.| ",
"'._.^.-.{.-.{._.1._.`.y.XXXXe.1.| '.^.^.| ^.'.^.3.{.-.{.).| ] 6 b.$.q.Q   a a   - o   o u a   - +.p ; a '.t.XXXXy...| _.'._._.| ",
"]._.^.| =.{.}.-.4.1.} ]._._.X.] X._._.'.| ].].'.^.(.{.}.{.3.} Q ' ] _.( ; ( a o @ % o : p a   @ =.s c #.} _.`.X.'.| } X._._._.X.",
"@X.X| ^.[.(.{.{./.3.>._.| _.| _.} .X.Xt.t.OX.XX.| ^.(./.{./.3.2._.| X.~ , ' u ; e * . + R p   & 2.+.l %.3.^.| 1.| } | X..X.Xo..X",
"@Xy.`.X._._.^.^._.4.X.| ] X.`.X..X@X@X#X+X+Xy..X| ^._.^.^.^.).1.| ] } ~ i 5.r ; g r o ; ! i o i _.O.2 2.| | | ] `.| o.XX@X+X#X+X",
"@XOXOXXXX.X._._.oXX.X.X.X.t.XXt.+Xy.y.y.@X#X@XXXXXo.5.`._.XX..X.`.X.o.~ ` f.6 ; / * o < f.g O ^ 5.E h `. ._. .X.XXXX+X+Xy.h.y.@X",
"y.+Xy.+Xt.XX+X+Xy.+Xy.XXy.y.y.y.@Xy.h.g.y.r.XXg.XXXXg.XXOXy.@XXXy.y.y.` w.[ 2 , ` , ; q g.t 3 [ XX&.&.+XXXy.XXy.XXy.g.+Xg.+X+Xr.",
"..X.X.X.X.X.`..Xy.@Xy.y.XX@Xh.y.g.y.XXy.g.t.o.6.X...5.7..Xt.XXy.h.+X+XXXy.` , d w.4 3 ~ 6.t i X.7.7.t.+XXXy.+Xy.+Xy.t.y.y.g.y.y.",
"_.| X.} | | } '._.].o.o..XoXXXt.g..X6.7.7._.} | 1.| 1.} '.'.].].o.t..X.Xy.g : $._ , 4 %.5.t ^ } | X.'.].].o.e.]..XXXt.XX.XX.`.7.",
"X.| ^.'._._.} _.'._._._.X.} `.X.6._.6.'.} 1.6._._.X.^.| | _._._.X._.X.^.o.q 6 1.) o @ ,.1.s } '.| | ^.'.| _._.} X.`.6.7.1._.^.} ",
"| | | | | ^.| _._.| _.'.X.'.^.'._._.1._.1.1.| } | _.| ^.| _.| | `.^._._.,., E 1.E - u ,.} ] ^.| _.| | _.| ^.'._.'._._._._.| | '.",
"} '._.| _._._.| | _.| '.'.1._.'._._._.1._.1._.^.| | | _.| _._.| '.'.| '._ , ] '.s - E 6._.1.} X._.^._._.| _.'.1._.'.'.^.'.| 1.'.",
"/.(.1.1.| _.} _.| _.^._.^.^.).(.(.1.1.^./.{.{.1.^.^._.} _.| | '.^.^.^.(.E O.1.1.C 6 2.).1.^.| ^.} | _.| _._.^.^.(.)./.(.1.1.^./.",
"}./.=.(._.| | _.| | ^.X.3.}.-.{.{.2.3./.}.{.}.=.^.1.| _._.| | _.^.1.}.-.=.8.{.*.e O.{.}.-.(.^.4.X._.| | _._.| /./.=.{.{.-././.}.",
"{.}.{.=.^.| _._.| | | | [./.-.{.}.{.8.{.}.}.}.}.-./.1.^.^._.,.^.| '.).-.{.}.}.*.e =.}.{.}.{.-.(.| _._.| | } '.).-.{./.}.{.{.{.}.",
"{.{.{.{.{.=.-.-.4.1.[.| '.'.3.=.{./.{.{.8.{.8.{.{.{.2.2.3.<.,.^.^.^._.^.-.3.{.=.@.{.{.8.{.{.{.{.2.3.3.<.1.).| 6.^.2.-.}.{.{.{.{.",
"{.{.{.=.{.-.{.{./.-.=.^._._.^.(.8.8.}.-.{.{.8.{.-.{.{.8./.8.2.2.1.'.| | ^.3.{.{.{.-.{.{.{.8.-.{.3.{.{.3.2.3._._._.^./.-.{.{.8.{.",
"-.8.{.{.}./.-./.^.^.^.'._.| _.^./.{.}./.{.8.-.{.8.{.{.-.3.(.[.1.'.1.^._.^./.{.}.{.{.{.-.{.8.{.{.-.3./.^.^.'._._.| _.^./.}.}.8.{.",
"}.-.-.-.(.-./.^.| _.'.'.| ^.| _.^.).^./.{.}.{.=.3.4.2.{.^.1.^.'.'.} X._.1._.'.^.(.}././.-.3.<.3.{.(.^.1.'.'.'.| _.^.^.'.|.1./.}.",
"(./.| '.| ^.| _._.| '.'.o.OX`.| '.'.| 1.).^.3.^._.1.1.^.1._.| '.'._.XX].| ^.'.1.| ).).4.(.1.'.} ^.1.'.} _.'.X..X.XX.| '.^.} /./.",
"| '.^.^.| 3.| _.| | '.].y.@X`.| '.1.'.'._.'._._.^.^.<.4.1._.| _.'.f.@XXX_.^._.'.'.^.'._.'.^.^.<.^.| ^.| } '.t.XXOX`.| '.^.'.'.'.",
"'._.).-.{.-.<.^.'.'.o.OX+X+Xt._.'.'.'.'._.^.'.).2.-.3.4.1._.'._.XX+X#Xt.X.'.'.'.'.'.| _.^.2.-./.-.<._.'.'.`.@X+X+Xo.'.'.'.'.'.| "
};
