/* XPM */
static char *e1b0cddd4e954596bda96d0d9b2cff97oZMX4cAjKtde2Ex5[] = {
/* columns rows colors chars-per-pixel */
"64 64 211 2 ",
"   c #020304",
".  c #090606",
"X  c #050A05",
"o  c #090D06",
"O  c #050609",
"+  c #090609",
"@  c #06090C",
"#  c #090B0D",
"$  c #150D0B",
"%  c #0B1407",
"&  c #0D1309",
"*  c #0D1C0D",
"=  c #11150B",
"-  c #111D0B",
";  c #070B11",
":  c #0B0D13",
">  c #0B0E19",
",  c #110E10",
"<  c #0D1016",
"1  c #0C1B11",
"2  c #0E121A",
"3  c #111314",
"4  c #11151C",
"5  c #15181E",
"6  c #261B0A",
"7  c #331310",
"8  c #0E210D",
"9  c #12230C",
"0  c #19240E",
"q  c #172B0E",
"w  c #0C2810",
"e  c #162415",
"r  c #132A10",
"t  c #1D2E11",
"y  c #153311",
"u  c #1A3E14",
"i  c #133C1A",
"p  c #272D14",
"a  c #283A12",
"s  c #3E3716",
"d  c #111721",
"f  c #151A23",
"g  c #191D25",
"h  c #161D29",
"j  c #191E29",
"k  c #1D222D",
"l  c #1A3D23",
"z  c #1F2535",
"x  c #212732",
"c  c #252932",
"v  c #6B1E13",
"b  c #5C260E",
"n  c #4C2210",
"m  c #5A2D10",
"M  c #473B12",
"N  c #632416",
"B  c #772A16",
"V  c #653D1C",
"C  c #7A3518",
"Z  c #4F3834",
"A  c #78353E",
"S  c #1B4414",
"D  c #1D4C16",
"F  c #174619",
"G  c #1B4218",
"H  c #154A1D",
"J  c #1C551B",
"K  c #2B4415",
"L  c #25431A",
"P  c #354A17",
"I  c #215517",
"U  c #23551A",
"Y  c #245C1A",
"T  c #2A581A",
"R  c #365418",
"E  c #395B1C",
"W  c #26651C",
"Q  c #2B631C",
"!  c #266A1F",
"~  c #2A6C1D",
"^  c #32671B",
"/  c #3C621B",
"(  c #336B1D",
")  c #3D6E1D",
"_  c #2D751F",
"`  c #2E781F",
"'  c #34751E",
"]  c #3C751F",
"[  c #33781F",
"{  c #3D781F",
"}  c #165020",
"|  c #1A5624",
" . c #1A5C24",
".. c #1D5E29",
"X. c #1D6525",
"o. c #1C6629",
"O. c #1C6B2A",
"+. c #1F752D",
"@. c #1F792F",
"#. c #276A23",
"$. c #257425",
"%. c #2B7522",
"&. c #277927",
"*. c #2E7C22",
"=. c #21762B",
"-. c #237C2D",
";. c #287E29",
":. c #317E21",
">. c #3C7D20",
",. c #287632",
"<. c #217E31",
"1. c #377336",
"2. c #46481A",
"3. c #465D1E",
"4. c #634110",
"5. c #48611C",
"6. c #436B1D",
"7. c #43751E",
"8. c #4A751F",
"9. c #45781F",
"0. c #4C781F",
"q. c #465E21",
"w. c #5D5634",
"e. c #714F21",
"r. c #755A2C",
"t. c #4A6A27",
"y. c #5C6D21",
"u. c #447121",
"i. c #447C20",
"p. c #4D7C20",
"a. c #507F21",
"s. c #5C702E",
"d. c #556339",
"f. c #72632D",
"g. c #564A49",
"h. c #716541",
"j. c #74686F",
"k. c #8E361B",
"l. c #893D22",
"z. c #904810",
"x. c #AC4B11",
"c. c #974829",
"v. c #9F5538",
"b. c #A24D2D",
"n. c #AB502F",
"m. c #BA5C3F",
"M. c #8D6D3F",
"N. c #C65624",
"B. c #865748",
"V. c #886248",
"C. c #AF6242",
"Z. c #BC6B54",
"A. c #AE7554",
"S. c #9A4E7E",
"D. c #917C60",
"F. c #92726E",
"G. c #CD7055",
"H. c #2E8225",
"J. c #26812E",
"K. c #2A832A",
"L. c #2C892C",
"P. c #328322",
"I. c #3B8222",
"U. c #348823",
"Y. c #3D8923",
"T. c #308A29",
"R. c #228332",
"E. c #248A35",
"W. c #298B30",
"Q. c #2D8B3A",
"!. c #448322",
"~. c #4C8222",
"^. c #428923",
"/. c #4C8A23",
"(. c #528422",
"). c #558923",
"_. c #588B24",
"`. c #A48351",
"'. c #8E8365",
"]. c #AF876D",
"[. c #CB816A",
"{. c #D7856E",
"}. c #D58974",
"|. c #D4907A",
" X c #E5836C",
".X c #EF8579",
"XX c #8D6B89",
"oX c #BF9782",
"OX c #BBA1A3",
"+X c #D29082",
"@X c #E79787",
"#X c #EE9586",
"$X c #F19F90",
"%X c #D9A99B",
"&X c #EAAA95",
"*X c #D3A1AF",
"=X c #CBB5B9",
"-X c #E4A7A2",
";X c #E8BAA7",
":X c #F0BAA0",
">X c #F5CBBA",
",X c #D9B5C2",
"<X c #E3BDD5",
"1X c #D7C0C9",
"2X c #D7D0D2",
"3X c #F7CECF",
"4X c #FAD8C9",
"5X c #FCF1DD",
"6X c #F7E1E4",
"7X c #FCF5FA",
"8X c #FFFFFE",
/* pixels */
"U.*.;.-.@.@.R.H._ U.I.0.0.0.p.:.` U.U.P._ U.U.` ;.@.<.R.L.:.:.>.0.p.~.8.I.` P.U.U._ P.U.P.;.@.J.<.W.*.` P.{ 9.~.0.9._ ` U.U.` ` ",
"U.U.*.K.R.R.E.J.*.*.[ ^.Y.Y.[ ~ ` [ H.U.` P.U.U.*.R.<.E.R.;.P.%.Y.Y.Y.I.~ _ H.[ I.:._ U.H.*.J.@.R.E.K.H.` I.^.Y.I.` _ P.U.P.H.` ",
").I.*.P.K.J.R.<.J.-.$.U._ P.P._ _ Y.Y.7.{ /.^.[ *.H.R.R.R.<.;.$.:._ *.H.` _ I.^.>.*.(.(.>.[ H.J.R.R.@.K.+.` P.` P.` ` [ ^.!.[ !.",
"_.p.:.` H.*.K.K.K.=.*.*.~ _ ` *.I.).(.).~.(.0.I.*.P.H.&.;.*.-.;.*._ _ [ ` >./.~.).(.(.).>.%.P.P.;.;.K.J.H.` ` ~ ` ` P.!.).~.(.0.",
"(.(.p.{ P.P.U.P.Y.*.` [ [ I.!.9.(.(.p.(._.(.(.~.9.P.[ P.P.^.:.%.:.:.>.~.{ ~.a.a.a.).(.(.(.8.%.P.P.H.I.I._ _ ^ ^ 6.) 7.(.~.0.(._.",
"(.(.(.).9.i./.~.(.p.9.0.9.0.0.(.(.0.p.0.a.a.(.a./.~.9.9.8.u.q.E R K K P E u.6.u.p.a.p.(.(.a./.i.!.~.y.y.e.e.V b n s 0.(.8.(.p.(.",
") i.' { ] >.i.~.0.(.p.(.0.(.0.0.(.8.~.8.u.6.>.) E K q = = $ $ $ .   . . o o = p K E 6.>.9.{ 7.5.f.A.|.{.[.C.l.B N M 8.8.0.).0.8.",
"*.[ ` *.[ _ :.Y.I.^.9.9././.0.8.8.s.'.].`.M.r.B.Z             .     .       . + X + p w.t.d.D.}..X$X$X$X{.G.v.k.v 2.8.(.9.[ 9.!.",
"U.` P.P.U.` ` P.U.U.P.[ [ [ ) E h.=X2X,X6X6X4X:XV.    +     O + . + O     O     . . . w.].%X6X4X>X#X X.X.X{.Z.k.b 2.] P.P.P.P._ ",
"` ` ` P.` P.` P.:.[ _ P.P 4.z.x.+X<XA A 1X8X8X8XF.    .     . # : + +   + +   + + #   ; F.;X>X>X&X X X.X.XG.m.l.M R [ H.P.[ P.P.",
"` H.[ ` ` P.H.` *.:.*.[ C x.x.N..X3X,X3X7X8X8X7Xj.O O       O , # . # < > : 2 f : : +   g.;X4X>X}.G.G.G.{.m.c.C m R P.P.H.P.` P.",
"J.` H.` P.P.` [ P.P.P.~ 6 a 3.f.oX:X5X8X8X8X8X7XXXO X X   O + < 3 : # # d d j j j 4 2 + $ F.-X@XG.Z.v.n.m.b.b P ( H.H.H.P.` *.L.",
"R.R.&.H.*.*.` P.` *.U.W G J.J.J.1.d.'.OX,X1X,X*XS.+         O 3 2 4 : O ; : f j k j : #   7 w.h.V.v.C B V 3.T $.J.-.E.@.=.K.J.R.",
"R.E.J.+.H.` U.H.` ` ` *.K.J.R.R.R.R.+.,.Q.1.1.,.a O   O X O O O @ # ; : ; # > j k c O   O & X.H.*.%./ P R ~ U.L.R.R.R.E.+.J.W.E.",
"@.R.R.E.R.$.&.*.*.*.U.` U.H.+.@.R.R.<.R.<.R.R.E. .    O : # + : 2 < : : > : ; d 4 x : + O X o.-.$.&.*.` P.H.H.H.*.@.@.E.R.R.R.R.",
"E.R.R.@.R.R.@.R.+.+.J.` H.` K.J.<.<.R.<.R.R.R.J.|       = < # 4 2 f > 2 : : ; d < f 4 4 + o o.R.@.R.R.+.+.K.P.*.H.K.-.R.@.R.@.R.",
"@.R.J.R.R.R.@.R.L.-.*.H.P.[ P.H.K.R.E.<.R.<.@.R.|       O : : f 2 < h f : < 2 h 4 4 < 5 # X } R.@.+.R.L.H.` H.H.P.P.H.J.R.E.R.R.",
"R.+.@.@.-.@.@.H.%.U.U.U.` H.P.P.H.L.W.J.R.R.R.@.X.      # # : 2 : 4 j k d 2 : 2 d ; X : :   w &.R.K.*.H.H.U.P.` P.` P.H.W.J.R.J.",
"J.J.K.P.*.H.K.H.U.:.U.U.[ Y.>.` H.U.` ;.J.L.@.-.Y X   X : < < O < 4 d d 2 O # 2 d f O O +   X W H.&.U.` U.U.I.{ Y.` ` U.H._ -.W.",
"H.H.P.H.&.*.` H.:.[ U.P.!._.>.` U.` U.U.L.P.H.U.Q O X O O O X X : : f f f O # : # 2 @ # O   & W H.P.H.` [ P.I.~./.I.P.U.[ U.H.L.",
"P.H.H.;.-.@.K.` P.U.P.!.p./.!.[ U.P.U.U.U.` P.L.#.+ O : #   O ; : < z f 3 @ # :   O O ; : O + X.-.&.P.P.P.I.~.(.~.I.P.P.U.U.P.P.",
"U.` -.+.@.J.J.U.` P.I.8.p.(.~.[ P.U.U.P.` U.[ &.| +     O   : 4 2 2 f : + O O : O O ; O       H R.L.H.H.P.7.0.~.(.7.P.P.U.U.P.` ",
"U.U.H.K.R.R.E.J.*.H.I.~.!.!.' _ ` P.P.P.` U.U.U.| +   O     : g j d 2 @ 2 ; O O d d ; 3 # O   i R.J.;.` P.I.!.!.] ' ` ` P.P.P.` ",
"Y.I.` H.@.E.E.@.H.&.~ U.[ P.U._ _ P.P.P.[ ^.Y.` Y O O       O 2 d j h ; : O O @ d x j d O     w R.J.R.K.$.` P.P.U.[ ` ` Y.U.` [ ",
"_.9.P.[ P.*.-.J.J.J.*.H._ ` _ [ [ ~.~.~.8._.~.:.U X O     O   O : 2 2 O O   @ : > 2 j f O O   F -.-.J.&.-.*.` _ ` ` H.I.(.~.~.7.",
"(.~.{ [ P.I.H.P.P.*.[ $._ { I.[ /.(.(.).).).(.7.K O       O @ : # 2 ; O @ X : 2 # O : : O O X 9 *.H.I.P.*.P.~ _ I.I.9.0.).(._._.",
")./.)./.{ { Y./.~.7.{ I.!.9.0.0.).0.0.a.(.(.).).a O         # f 2 : 4   O   2 j 4 O O # O     * >.Y.~.!.] 9.{ 9.7.0.(.(.0.0.p.).",
"6.~.7.~.7.!./.0.0.).0.~.8.(.0.8.(.0.(.0.0.6.i.7.p         O @ d 4 # 5   : : k x > O d # X O O 0 i.(.0.(./.0./.0.~.0.0.(.0.(.8.8.",
"' [ ` ` [ ` [ Y.9.!./.0.(.(.~.8.0.0.9.9.!.!.' _ 8       O O O 4 : # : O < 4 d h > @ f 4 O +   X T U.^.i.~.8.(.0.(.0.0.0.0.!.7./.",
"I.*.P.` P.` _ U.U.U.[ ' { I.!.9.!.!.[ P.:.U.:.%.&     O # ; O @ # < O O O @ O ; # O 2 d : X   9 ~ :.U.P.U.[ { I.Y.!.7.^.Y.' P.' ",
"_ H.` P.P.P.` P.U.P.` U.` ` I.P.` P.*.U._ ` *.T #     O O @ ; @ @ 5 : : O O ; # O O 4 f 2 O O 9 :.:.P.P.` P.U._ ` P.` P.P.P.U._ ",
"_ *.` [ ` ` P.` :.` U.P.H.U.H.U.U.U.[ P.:.:.` U #   X O : : : d 4 c 5 : # O : : O   O 4 :     9 _ *.:.:.` P.P.P.U.U.U.P.U.` _ U.",
";.H.P.` P.P.` P.P.P.` U.U.&.U.U.U.H.*.*.T.;.H.G       O @ 4 > 2 k k ; 2 @ O f 4 O O O ; O     I :._ P.H.P.` U.P.H.U.H.U.H.*.P.L.",
"J.K.` K.` ` _ H.` P.U.[ K.J.L.R.J.=.*.H.-.R.R.y       ; O d 2 > j g ; 2 : 2 : f   O ; O X O   % W [ P.` P.P.P.J.J.J.J.@.&.H.H.R.",
"E.R.J.@.H.P.H.H.` ` ` P.K.R.J.J.J.@.-.R.E.E.R.*       # O k 2 : h 2 2 d : : # <     O O     O u :.P.` ` ` P.` J.E.J.R.R.+.R.R.W.",
"R.E.R.@.K.~ *.H.` ` H.` L.K.+.@.E.E.R.R.R.E.o.+       O # 4 4 2 > : 2 2 O   @ : O       # O . J _ *.P.` H.` U.T.=.@.R.W.R.R.R.E.",
"R.R.R.R.R.@.R.J.-.$.J.P.` U.K.@.<.R.R.<.R.R.i           : 4 < d @ < 2 4 O O O : < < O   O O # H @.@.@.-.&.H.` P.H.J.@.R.+.R.R.R.",
"@.R.R.+.R.R.@.J.W.-.$.P.U.[ H.H.@.R.R.@.<.=.1 X O     O : @ O < 4 2 f < @   : 2 : O     + + + X.@.R.J.W.+.;.P.P.P.H.K.-.R.R.@.R.",
"R.K.@.R.J.@.@.K.*.P.H.P.*.H.P.*.K.J.E.R.J.o.O   O O O O : O   ; 4 2 k :   O 2 ;         X +   i @.-.;.H.P.U.P.P.P.` *.J.W.E.R.R.",
"-.@.@.-.&.K.J.H.P.P.U.U.` >.:.*.U.T.:.K.E.l   O O @ O   : O   O O O 2 ; O O @ @             o I J.K.P.` H.U.P.[ P.` H.U.U.&.J.R.",
"H.K.P.P.*.H.H.` *._ U.I.{ (.I.[ U.H.P.P.%.*     # 5 # O   O   O @ < : @ ; # : O O     O   O - ^ H.P.P.` H.U.[ /./.[ ` U.P.P.H.H.",
"H.H.U.H.;.-.&.P.*.P.U.^./.).!.:.U.` U.U.U       O 4 + O #     O 2 < 4 O     O O O O         + ..&.H.[ H.P.U.0.(.(.Y.P.P.P.U.H.U.",
"U.` K.+.@.R.-.U.P.P.{ /.0.~.0.P.U.U.U.P.9       O 3 O # O       @ # O O O + X             1 } +.@.K.U.` P.!.0.(.(.9.H.U.H.U.P.*.",
"U.P.H.@.R.@.R.H.*.P.I.0.~.~.7.*.` U.H.~ X       O 5 O     O       O   O O   O             & +.<.R.W.*.` U.9.!.~.0.{ ` P.U.P.P._ ",
"I.P.H.*.@.R.R.@.;.*._ Y.P.P.:.~ [ P.P.I   X     # > O   O O @ O   O O                 O 9 S ;.-.R.R.@.H.%.[ I.I.U.` ` [ P.P.P.[ ",
"_.^.` H.T.K.R.E.R.-.%.P._ P._ P._ !.!.p         O #     O O O O O ; ; O                 * Q H.H.K.R.J.J.-.*.P.%.` _ ` [ !.!.{ !.",
"(.0.{ ` P.P.H.H.P.;.[ [ ~ [ I.[ !.).u.0   X     ; O                 : O     X X     . % 0 T *.P.P.H.H.K.*.P._ ~ I.[ I.0.).)._.(.",
"_././.~.[ [ P.I.^.[ [ [ [ 9.~.7.(.0.6.X X =   O O         # X       O       & a o     P ~.(.!.[ :.P.!.I.[ [ [ [ ~.!.p.(.0.p.0._.",
"0.(.0.(.9.~.(.a.~.(.0.~.0.0.0.0.(.0./ X 0 -       O     O O   X & X O X       R 6.a = t p.0./.9.~.(.p.(.0.0.(.0.~.0.0.).0.(.a.8.",
"{ ' [ [ ' [ Y.!.0.(.8.(.~.(.a.0.0.0./ & P %               %     0 %   X 9     t 0.0.6.~ *.' { [ >.Y.i.(./.0.(.0.(.0.9.0.0.~.0.0.",
"P.` [ _ ` ` _ U.P.I.{ { ~.^.(.7.0.!.W L Q .   X   X     o 9     t -   X K o   % ~ I.Y.` [ ` ` ` _ *.U.I.Y.{ 7.Y.!.~.7.~.!.' I.I.",
"[ ` H.U.P.P.` P.U.P.P.P.` _ I.[ P.P.[ H.I X r o # O     8 -     S q   . T S   X W [ ` *.:.P.P.U.` *.H.U._ P.P._ [ I.:.I.*.P.H._ ",
"` ` ` ` ` H.` P.P.` P.U.*.U.H.U.P.P.P.P.S * S X O X   O F 0   X T S   X Q ` r   D *.P._ ` ` H.` P.` ` P.` H.U.P.U.P.P.P.P.` ` U.",
"_ U.P.` P.P.P.` ` P.` U.U.*.P.U.P.H.P.` D Y J   - X   % Y *   X ~ I     J U.` 8 y U.*.*.P.*.` [ P.H.P.P.` P.U.*.P.U.U.H.U.` *.U.",
"J.K.*.*.` P._ P.` P.P.P.H.K.L.K.L.` ` H.=.J.i @ D X   y _ o   * &.! o   J J.*.%.U K.J.L.*.H.%.H._ ` P.` P.P.H.H.K.L.-.K.*.*.H.J.",
"R.R.=.K.P.` ` P.` ` H.[ -.E.=.R.J.+.@.J.E.E.i i #.X   Y ~ X   S P._ w X  .R.@.+.J.R.R.E.@.K.H.*.[ P.` ` P.P.` J.J.=.R.R.@.J.R.W.",
"R.E.R.@.K.` H.U.` ` ` ` U.J.@.R.E.R.<.R.E.E.o.@.o.; e &.! X   J _ P.F X O.E.E.@.R.E.E.R.E.R.@.K.` P.P.%.` _ U.L.@.R.J.E.R.R.R.E.",
"R.R.R.J.J.+.-.@.&.*.L.` U.U.-.+.R.J.R.R.R.<.R.R.X.; l +.J   * %.H.H.~ w +.@.R.J.R.<.R.<.R.R.R.R.=.-.-.&.*.T._ :.H.-.@.E.R.<.E.R.",
"R.R.R.+.R.@.R.R.R.@.=.H.P.P.H.K.R.<.E.@.R.E.<.R. .1 O.@.J   i +.P.U.` ~ K.@.<.R.R.<.R.R.R.<.@.R.-.R.R.-.=.-.P.P.P.H.J.@.R.R.@.R.",
"@.R.R.R.E.@.@.J.H.H.H.U.P.*.P.H.J.J.E.J.<.@.@.R.O. .R.@.H o %.*.U.` H.P.H.K.J.E.R.R.R.@.R.<.R.R.@.-.J.H.H.U.P.P._ P.H.J.E.E.<.R.",
"E.@.@.-.K.@.J.H.` H.U.U.` P.` P.H.L.H.J.R.E.R.+.<.;.+.R.G G H.U.U.[ [ P.*.P.U.K.;.E.J.J.@.-.&.-.R.K.H.*.U.U.U._ P.H.H.U.W.*.J.E.",
"K.-.*.U.` H.` *.P.` U.U.{ /.P.` U.U.` *.L.H.-.H.H.*.*.H.Y ` ` U.U.U.!.^.` H.U.` ` L.L.;.K.*.U._ H.*.U._ P.U.[ ^.^.[ ` U.H.` K.J.",
"` U.H.H.` J.` P.` ` U.Y.0.).!._ U.*.U.U.P.U.P.P.H.H.&.;.*.P._ P.U.7.(.~.P.H.U.U.U.H.U.P.U.H.H.&.H.` H.` [ U.7.a.(.I.` U.H.U.H.U.",
"U.P.L.+.-.J.=.H.U.U.{ /.(.(.9.P.U.U.U.U.P.H.P.L.+.@.-.;.` P.U.P./.(._.9.[ U.U.U.U.U.` P.H.-.@.J.@.&.P.U.U.I.(./.(.{ U.U.U.U.U.*."
};
