/* XPM */
static char *f45ff1fa50ee4048f413c02d0f23e91cKVyuNYTt2JJrX1dr[] = {
/* columns rows colors chars-per-pixel */
"64 64 226 2 ",
"   c #020100",
".  c #0A0202",
"X  c #0C0A04",
"o  c gray3",
"O  c #170805",
"+  c #081107",
"@  c #13140C",
"#  c #1C120B",
"$  c #0C0F12",
"%  c #180E13",
"&  c #1A1615",
"*  c #250B07",
"=  c #310E09",
"-  c #2A140A",
";  c #2E1B0C",
":  c #35170A",
">  c #250D14",
",  c #2B1612",
"<  c #251817",
"1  c #291A17",
"2  c #361A14",
"3  c #3A1818",
"4  c #1B211D",
"5  c #33280F",
"6  c #27241A",
"7  c #39241B",
"8  c #2A1A21",
"9  c #351D23",
"0  c #2D2522",
"q  c #282826",
"w  c #392A26",
"e  c #373329",
"r  c #3B392C",
"t  c #332D31",
"y  c #2E3234",
"u  c #3A3838",
"i  c #41190D",
"p  c #421D17",
"a  c #43220F",
"s  c #46251A",
"d  c #522D1B",
"f  c #59321D",
"g  c #491F23",
"h  c #492522",
"j  c #462A25",
"k  c #542B25",
"l  c #493528",
"z  c #5B3325",
"x  c #573629",
"c  c #472D31",
"v  c #552E30",
"b  c #483934",
"n  c #593B33",
"m  c #643825",
"M  c #693C2C",
"N  c #723E2C",
"B  c #673D36",
"V  c #22431B",
"C  c #2A6D1D",
"Z  c #386F1D",
"A  c #2D751F",
"S  c #2E781F",
"D  c #37751E",
"F  c #33781F",
"G  c #3D781F",
"H  c #38443A",
"J  c #1F752D",
"K  c #1F792F",
"L  c #287524",
"P  c #277927",
"I  c #2E7C22",
"U  c #21762B",
"Y  c #237C2D",
"T  c #287E29",
"R  c #317E21",
"E  c #3B7D21",
"W  c #217E31",
"Q  c #436C1C",
"!  c #43741E",
"~  c #4A751F",
"^  c #45781F",
"/  c #4C781F",
"(  c #56492B",
")  c #49443A",
"_  c #58453A",
"`  c #6A422C",
"'  c #6B4234",
"]  c #6D4E35",
"[  c #654638",
"{  c #744839",
"}  c #447C20",
"|  c #4D7C20",
" . c #4C7C29",
".. c #507F21",
"X. c #446E3C",
"o. c #6B6533",
"O. c #74693C",
"+. c #383F41",
"@. c #433D42",
"#. c #3C4342",
"$. c #4A4544",
"%. c #4C4C4A",
"&. c #594A48",
"*. c #4D534C",
"=. c #57554A",
"-. c #4E4E53",
";. c #5A5A54",
":. c #654B4B",
">. c #714F4D",
",. c #675648",
"<. c #775848",
"1. c #685A55",
"2. c #755B55",
"3. c #5A6754",
"4. c #6E6A4C",
"5. c #686559",
"6. c #786759",
"7. c #79735C",
"8. c #5E696F",
"9. c #696965",
"0. c #776A67",
"q. c #78736A",
"w. c #6D7578",
"e. c #797677",
"r. c #81793B",
"t. c #81594E",
"y. c #876E54",
"u. c #866966",
"i. c #877967",
"p. c #83746D",
"a. c #977A6C",
"s. c #827C72",
"d. c #897875",
"f. c #2E8225",
"g. c #26812E",
"h. c #2A832A",
"j. c #2C892C",
"k. c #328322",
"l. c #3B8222",
"z. c #348823",
"x. c #3D8923",
"c. c #39832C",
"v. c #308A29",
"b. c #228332",
"n. c #248A35",
"m. c #298B30",
"M. c #2F8B3F",
"N. c #328C39",
"B. c #448322",
"V. c #4C8222",
"C. c #438824",
"Z. c #4B8A23",
"A. c #528422",
"S. c #558923",
"D. c #588B24",
"F. c #5A862D",
"G. c #478938",
"H. c #508E3B",
"J. c #388C43",
"K. c #3E964C",
"L. c #579656",
"P. c #659856",
"I. c #6EA55B",
"U. c #78876E",
"Y. c #5AA266",
"T. c #76A473",
"R. c #918653",
"E. c #90866E",
"W. c #89837A",
"Q. c #9A927E",
"!. c #969A7C",
"~. c #7C8585",
"^. c gray53",
"/. c #979489",
"(. c #929190",
"). c #A59887",
"_. c #A9908B",
"`. c #AC9B8F",
"'. c #89B784",
"]. c #97B489",
"[. c #98BD92",
"{. c #AAA38C",
"}. c #A2BE8E",
"|. c #AAA695",
" X c #B7A897",
".X c #B4B293",
"XX c #A99FA8",
"oX c #9DA5A7",
"OX c #A5A8A7",
"+X c #A9AAB3",
"@X c #AFB4B1",
"#X c #B9BAB8",
"$X c #C3AE93",
"%X c #C8B9AA",
"&X c #99C299",
"*X c #A5C396",
"=X c #9DC8A5",
"-X c #B5CAAA",
";X c #B7D0B4",
":X c #CCC29F",
">X c #CBC4AA",
",X c #CFCDB7",
"<X c #D9D6B7",
"1X c #E7D4B4",
"2X c #B9BDC3",
"3X c #BAD4C2",
"4X c #C6C8C9",
"5X c #C9DAC4",
"6X c #CED4D0",
"7X c #D5D8D8",
"8X c #E4DBC8",
"9X c #DBE7DC",
"0X c #E8EBD7",
"qX c #E1DFE2",
"wX c #DDE2E1",
"eX c #E7EAE8",
"rX c #F4EFEE",
"tX c #E2F1EE",
"yX c #EEF3ED",
"uX c #EAEDF2",
"iX c #EEF4F4",
"pX c #F4F4F4",
"aX c #F6FAF6",
"sX c #F8F7F9",
"dX c #F5FBFB",
"fX c gray99",
/* pixels */
"z.I T Y K K n.k.I k.l./ / / | k.S z.z.k.A z.z.I Y K b.b.j.R R E | | V./ l.A k.z.z.A k.z.f.h.K g.W m.I S z.G / V./ ^ S S z.z.S S ",
"z.z.I h.b.b.b.b.I I F C.x.x.F C A R I z.S k.z.f.I g.K n.b.T oX# u x.x.l.C A f.F k.R S z.f.I g.K n.b.h.f.A l.C.x.l.S C k.z.k.f.S ",
"S.l.I k.h.g.b.W g.Y L k.A k.R A A x.C.G G S.x.E I f.b.b.b.W u _., c.I f.S A l.x.G F Z.A.E S f.g.g.b.K h.U S f.S k.S S F C.x.F B.",
"D.| R S f.I T h.h.U I I C A S I l.D.V.A.V.A.| E S f.f.P Y @X) <X; X.A F S l.V.A.D.A.A.S.G F k.k.T T h.g.h.F A C S S k.B.A.A.V./ ",
"A.A.| G k.k.v.l.x.I S F F l.B.^ A.....A.D.A.A.| ^ z.f.k.k.;.U.1X7 #.E | G V.A.A...A.A.A.A.^ F k.f.f.l.G S S D F B.B.! A.A.V.A.D.",
"V.A.V.S.^ } Z.V.V.| ^ / ^ / / | A./ ../ A.| S.A.V.;.O 4XfXq .X<X( b H.| ^ A./ / / A./ S.V.A.Z.^ B.Z.A.V./ B.B.^ / ~ A.A./ ......",
"Z } D G G } } V.| A.| A.| A.| / A./ A./ ~ Q G G E H &.7X2X6 >X$Xx q <X| / ..../ V.~ ! G ^ G ^ G B.^ / V.V./ A./ A./ / / / A./ ~ ",
"R E A I E L R x.l.B.} ^ V.Z.| / / V.G G B.l.A fXH s.2 6X^.y a.m z & rXI./ ^ V.^ G B.B.S S S S S S k.x.x.C.^ / V.V./ / A.^ F ~ B.",
"z.S k.k.z.S A k.z.z.k.F F R E G l.k.k.z.A k.k.OXe |.2 OX9.6 s ' ` @ eX[.E l.k.k.z.I R R f.k.k.k.S S f.z.z.S F F l.l.G x.k.k.k.A ",
"A S A k.S k.S k.R F S z.I k.k.z.k.k.S k.k.S I ;.9.`.k 9.u , >.$X{ + 3X!.k.I z.I I R f.D S S k.S k.S k.k.S k.z.S k.z.k.f.k.A k.k.",
"A k.F S S k.f.S I R I z.k.k.k.z.z.k.z.S k.S f.$.s.' B 1 # 2.).<Xt.  @XI.z.z.k.k.A f.A S F k.S S k.S S z.S z.f.k.z.z.z.k.f.k.S k.",
"g.I f.S k.k.S I k.k.k.z.v.I j.f.f.f.I S h.g.f.0 b a m - u _.i. X>.X +XJ.x.h.R k.S f.m.f.f.I I z.k.S S k.k.k.z.f.S j.f.f.k.S I j.",
"b.b.P f.I I A k.S S z.S U m.Y b.b.J K g.g.n.b.0 ; a i.= 1.).,.( ` X 2XJ.g.b.U W f.b.W n.K I f.I S S k.A k.k.A g.g.Y n.K J h.g.b.",
"n.b.g.J f.I z.k.S S A f.j.g.b.g.J.yXdX7X  (.fX$.O ,.).* =._.: 0 N O 7XY.W n.b.W b.n.n.n.b.b.J f.k.k.k.A S S k.j.b.b.b.n.J g.m.n.",
"K b.n.b.b.L P I I I z.I z.f.U K Y.pXfX^.O q dX%.b 2.Q.B o ` = w '   OX'.W b.n.b.b.b.b.b.b.b.b.K L P I A k.f.k.f.I K K n.b.b.b.n.",
"n.b.b.K b.W W b.K U Y I k.I h.g.&XsXdX;.,.O 2Xe.j e.p.{   7 B c `   w.yXM.U W U b.W b.b.b.b.W b.K b.b.J J h.k.S h.h.K b.K g.K b.",
"K b.g.b.b.b.K b.j.K S f.k.F k.L.9XiXfXy E.x t OX8 p.w x @ 7 _.c l   #.fX[.h.g.n.W b.b.J b.W b.g.K J b.j.f.f.f.f.k.k.f.b.b.n.b.W ",
"b.K K K Y K K f.S z.z.z.S f.k.;XfXdXsX+.,.x 2 H u v > , O @ |.$.j o & sX9Xz.j.m.g.b.b.b.K W W Y b.h.I f.f.z.k.S k.S z.f.n.g.b.b.",
"g.g.T k.I f.h.f.z.k.z.z.F x.[.fXuXOXuX$.= n a.<   , -   h . W.q.7 1 . 4XaX-Xz.S L m.j.g.Y I f.S f.P z.S z.z.f. .P.V '.k.I I T m.",
"k.f.k.f.P I S f.S S z.k.B.D.0XfXeX  q u O n >Xa.* . 1.  6.,.O b 7 , . ^.fXiX[.k.z.f.z.f.f.f.f.L f.f.f.S F '.pXfX).& T.k.I z.k.v.",
"z.f.f.T Y K h.I k.z.f.V...S.yXyXsX< t X . 1.).] z 0 $.c 5._.k @ O 1 O #.aXfX0Xz.z.f.f.k.v.f.Y h.Y P k.k.k.I.aXfX1.8 G.k.z.z.l.f.",
"z.S Y J K g.g.z.S f.l./ ..A.].dXsXq q.<.  =.d.  @ - o $ t 2.2 x * o <   @XfXiXv.z.I F k.f.U J K b.j.k.f.f.F.dXuX) 6.c.k.z.z.k.A ",
"z.z.k.g.b.b.n.g.I f.l.V.B.B.Z -XdX+.;.a.7 > 2.X 5.n *     6 2 2 y.; O > u fXiXG.z.k.S z.f.S h.K b.g.h.A f.G.fX+X,.( A S k.k.k.A ",
"x.l.S f.K b.n.K f.L C z.F k.z.A 5X^.b 2.p 6 , * 5.).a.' 3 & 2 w 6.i.  h . ^.dXI.k.F x.C.f.f.f.Y b.g.b.h.L P.fXe.h 2 A S x.z.S F ",
"D.^ k.F z.I Y g.g.W I f.A S A F G.7Xb b v W.* % 6 ^.:.3 B j 7 2.@.9.e * k @ 7X].A.^ D.S.G A k.v.Y Y b.Y Y '.fX$.x 7 k.E A.A.V.^ ",
"V.V.G F k.k.f.k.k.I k.L A G l.F A.}.q.o n d.>.; . o + o . :.0.h j u $.@ z w t eXF.A.A.A.V.G F k.k.f.l.l.R 9X4X  6.O ....A.A.D.D.",
"D.Z.D.A.G G x.Z.V.^ G G B.^ / / A./ 5X6 <.d.: x n O + 0.7.* $.d.1.t O   : [ 2 ^.-XA.D.D.A.A.V.G B.x.A.V.-XdX%.0 6.. P.../ / ..A.",
"Q V.! V.^ B.V./ / A./ A./ A./ ~ A./ P.#X4 W.x * 7.2.O ) 4.n 1 1 s.d.2.> * z z %.dX~ Q ^ V.! ^ ^ V.V. .5XfX^.j e _ O ].../ ..~ / ",
"F S S S F S F x.^ V.V./ V.S.V.~ / / ^ ^ ,Xy 3 n ;.&.#   O h y.i.0 u.e.% 9 M f =.dX! B.F F S F A F '.6XeXqX1 x @ 1 - 4X| / B.^ V.",
"l.I k.S k.S A z.z.z.F F G x.B.^ B.V.F k.dXwXy e {.,.e /.)   i.0X9.  @ . f { % oXfXl.k.k.I z.S F A fXW.^.OX6._ o , 7 [.C.x.D k.F ",
"A f.S k.k.k.S k.z.k.S z.S S l.f.F k.S z.rXfXfX(.t q.) ,X`.f : (  X8   1 N h &.fXdXS f.S k.S k.f.k.eX1.9.-.( <   l c G.k.k.k.z.A ",
"A S S F S S k.S I S z.k.f.z.f.k.z.z.F k.sXfX(.-.% # O 5.{ d ' a.) q   s [ * 4XfXdXS k.S S S A I R XXj j q d , & d 3.z.k.z.S S k.",
"T f.k.A k.k.A k.k.k.I z.z.P z.v.k.f.I I 7Xe O s M z 3 - w k 9 |.|.@ . m 3 *.dXfXeXf.h.k.k.I I k.l.=.x l t 2.O n 2 L.f.z.f.S f.v.",
"g.g.S f.S F A k.A k.z.F h.g.h.g.b.J I f.@.b _.m t.$Xy.2   a d.1.5.*.# M O 4XU I k.W b.b.U I T I A ,.u.2 &.u : z =.N.g.K P f.f.b.",
"n.b.g.K f.k.f.k.A S S k.h.m.g.b.b.Y K b.@Xq u.: 6./.6 q.i.: _ i.&.& , s $.fXb.U b.n.n.n.b.pXiXw ;.W.j , _ % ] ; T.g.g.n.J b.b.n.",
"b.n.n.K g.C I f.S S f.S j.h.J K n.n.b.b.fX`.O 2 >.u.# ;.<.v 7.Q.1.1 c a w.fXb.b.b.b.n.b.n.fX+Xn # s b w o s z ) L.K b.n.b.b.b.n.",
"b.b.b.b.W K b.g.U L b.k.I l.h.W W W b.b.eXfX@Xo 5.u.2 - # 8 3.6.&.% x ; ~.fXb.W b.b.b.W g.fXe.[ 1 n >.1 @ { p U.f.g.K b.K b.b.b.",
"K b.b.J n.b.K W j.Y L k.l.I L.f.W W b.K fXrXfX6XH @.p s w q   t q * B O @XfXb.b.b.b.b.K b.eXb v 6 Q.&.o d n H k.z.f.f.K b.b.K b.",
"W h.W b.b.U U h.I 4 ^.fXsXfXpXI h.g.n.b.iXiXsXdX~.. O < 5 =.E.W.@ 2 ' # 6XfXb.n.g.g.W b.W 4Xw a.# i.:.O [ , G.E f.S S g.m.n.b.b.",
"g.K J Y P h.b.f.k.+.X b #XfXfXI z.v.R h.pXfXuX6 6 2 , . i.<X8X).. g z e eXdXz.f.P b.b.g.U @X6._ * _ b k , P.k.I k.S f.z.z.P g.b.",
"h.h.k.k.A f.k.S I OX% ;.@ %.4XfXfXsXpXrXfXrXfX9.0.:.3 : , H 7.l > h z l dXpXz.k.k.f.f.f.v./.l 7 h 1.j 2 7.z.I V.Z.F S z.k.k.f.f.",
"k.f.v.f.T Y P k.I pX6 t t.c 1 -.4XfXfXsXyXpXdXeXb v ' f n > X   9 d B , 7XfXR z.e.q ;.#XdX^.- &.@.= 0 ) G.z./ S.Z.x.k.k.k.z.f.z.",
"z.S h.J K b.Y z.k.fX#X. ) &.s = 2 1.(.6XsXsXfXfX6Xh s <.>Xi.O X w i ' % +XdXdX(., x x a 1.^.,.0.w 3 & T.v.x./ V.A.^ f.z.f.z.k.S ",
"z.k.f.K b.K b.f.I iXfX-.- ^.p.s 1 l w j %.e.XX7XtXeX1.w .X8X@Xe 1 3 k h $ y r w x m N ` l b W.) , : 9.P.z.^ V.B./ G A k.z.k.k.S ",
"x.k.f.f.K b.n.K T I A pX$ u |.E.z x Q.i.,.' z s e ) $.% @ b E.1.O h 2 z O d p [  X>X<.m ` a ;.q 2 5 tXc.S f.l.l.z.S A F k.k.k.F ",
"D.B.S f.v.h.b.b.b.Y L pX7Xo 0 1.&.p 2.$X|..X X>.B { <.6 3 3 2 h 7 3 2 7 , x B ` ).Q.$Xy.y.y.; ; < OXpXb.Y S F S S A S F V.C.G B.",
"Z./ G S k.k.f.f.k.T G L C 7X@ u 1.c O k u.p./.d.l n 1 3 a n { N M z x - j s [ ` .X5.=. X%X<X1., 0.fX[.h.S k.A C l.S G V.S.A.D.A.",
"D.A.V.V.F F k.l.B.F F E I fXeX$.&.@Xi.p [ Q.Q.Q.y.s * 7 i 7 m ` M ` ' x ; j M ` `.).#X*.a.E. X0.4XpXH.l.F F F F B.V.A.A./ ../ S.",
"/ A.~ A.^ V.V...V.A./ V./ -XfXdX$.y Q.u.x y.%X).{.{.; ; j - 2 j h x M ` x 3 k m f 6.{.3.O.R.( (.uX}./ V.V./ V./ V./ / S./ A./ / ",
"G F F F D F x.B./ A./ ..V.A.../ fXW.1 ;._ O * n  X8X0.9 1 = 7 j h v m m M j - =.Q.:XE.R.R.O.O. X,Xz.^ A.V./ A./ A./ ^ / / V./ / ",
"k.S F A S S A z.k.x.G G B.C.V.^ ,XdX4X$ q p.>.B 6.6.b 1 9 c s f ` ' = ,.p.7 q.,X:X<XQ.o.( ; 5 '.A k.z.x.x.G ! x.B.V.^ V.B.F l.l.",
"F S f.z.k.k.S k.z.k.k.k.S A l.D f.;XfXwX$.0 1.3 O O w   , s m ` N f b %X<X{.q.5.{.>X>XE.) q.;.H.S S f.z.S k.k.A F l.F l.I k.f.A ",
"S S S S S f.S k.k.S k.z.F z.f.z.k.k.L.*XiXoX#.  , *   8.w 3 s _ z - {.<X:X8XQ.7.>X{.Q.;.9.dX'.S k.S S k.S f.z.f.z.k.k.f.k.S S z.",
"A z.k.S k.k.k.S S k.S z.z.I k.z.k.k.z.S H.5XfX+Xu e.wX^.7 ; # @ w &.(.)..Xq.1.`.q.1.;.^.eX-XL F k.f.k.k.S k.z.S k.z.z.f.z.S S &X",
"g.h.I I S k.A k.S k.k.k.f.h.j.h.h.S S f.g.n.3XfXfXdXyX$.O.5 5 l ) q.2.9.=.< q @ @ e.7XyXS f.S h.A S k.S k.k.f.f.h.j.g.h.f.S k.g.",
"b.b.U h.k.S S k.S S f.F Y n.U b.n.J K g.n.n.K.tX7X(.eX_ y.y.4.[ 7 w l < ;.9.^.(.6XtX&XL.K h.f.P F k.S S k.k.S h.g.J g.b.K g.g.n.",
"b.n.b.U h.I k.k.S S S S v.g.K b.m.b.W b.n.n.n.=X4Xr ] ] 4.7 O.o.< ] r.b yXfXfXdX3XK.n.b.n.b.K h.S k.k.S S A k.j.K b.g.n.b.b.b.n.",
"b.b.b.b.b.U U W T I v.A z.z.Y J b.b.b.W b.b.K Y.dX,.,.4., j E.l w E.( 9.dXrXpX;Xb.b.b.W b.b.b.b.J Y Y P S v.S k.f.Y K n.b.b.n.b.",
"W b.b.U b.K b.b.b.K U f.k.k.f.h.b.W b.K W b.W J.aX#X) ; y ; 5   e ( % 6XfXpXiXK.b.W n.b.b.W K b.Y g.b.K K Y k.k.k.f.g.J b.b.K b.",
"K W W W n.W U n.f.f.f.z.k.S k.f.g.b.n.g.b.W K J.dXfXqX@XsX9.(.(.9.d.#XfXfXdX&Xb.g.W b.K b.b.b.b.K Y h.f.f.z.k.k.S k.f.g.n.n.K b.",
"n.K K W ;XJ.g.f.S f.z.z.S k.S k.f.j.f.g.b.b.b.L.aXiXdXfXiXfXfXdXfXfXfXfXeXfXI.h.h.b.g.g.K Y P Y b.h.f.I z.z.z.S k.f.f.z.j.S b.n.",
"f.b.I z.S f.R I k.S z.z.G Z.l.S z.z.S I j.f.W f.k.I I f.S k.S z.z.k.V.l.A k.z.I S j.j.T h.I z.A h.S z.S k.z.F B.B.F S z.h.A h.g.",
"I z.I f.I J S k.S S z.x./ D.l.S z.I z.z.k.v.k.k.f.f.P T f.k.S k.z.^ D.V.k.f.f.z.z.f.z.k.z.f.f.P f.S f.S S z.^ V.V.l.S z.f.z.z.z.",
"z.k.j.U b.g.L f.z.z.G Z.V.A.^ k.z.z.z.z.k.f.k.j.U Y Y T S k.z.k.V.A.D.^ F z.z.z.z.z.S k.f.Y K g.K P k.z.z.l.A.S.V.G z.z.z.z.z.f."
};
