/* XPM */
static char *_79e6f8edf474cf1fe8283a0606adbbfq77JDl8rTm6H0BCO[] = {
/* columns rows colors chars-per-pixel */
"64 64 241 2 ",
"   c #020204",
".  c #0C0405",
"X  c #050B05",
"o  c #0B0B07",
"O  c #050609",
"+  c #09060B",
"@  c #06090B",
"#  c #090B0C",
"$  c #160B09",
"%  c #0A1507",
"&  c #0C140B",
"*  c #0C1B0A",
"=  c #17120B",
"-  c #111C0B",
";  c #080B13",
":  c #0A0D12",
">  c #150E12",
",  c #0E1216",
"<  c #131517",
"1  c #300E0D",
"2  c #26170B",
"3  c #0E220C",
"4  c #172A0E",
"5  c #17330E",
"6  c #0D2812",
"7  c #172712",
"8  c #0F3615",
"9  c #163617",
"0  c #153B12",
"q  c #1A3C12",
"w  c #2E2B0F",
"e  c #37251A",
"r  c #283E14",
"t  c #161B23",
"y  c #1B212D",
"u  c #2B2D2C",
"i  c #480304",
"p  c #551107",
"a  c #6B0F09",
"s  c #751C0A",
"d  c #49280B",
"f  c #53300D",
"g  c #47291A",
"h  c #563A15",
"j  c #6B290D",
"k  c #673C15",
"l  c #793915",
"z  c #48352A",
"x  c #553827",
"c  c #53302C",
"v  c #673E20",
"b  c #1B4313",
"n  c #1D4B14",
"m  c #16441A",
"M  c #1F5217",
"N  c #284816",
"B  c #314D16",
"V  c #245819",
"C  c #375719",
"Z  c #28631B",
"A  c #2B6C1D",
"S  c #39681C",
"D  c #2D751F",
"F  c #2E781F",
"G  c #33751E",
"H  c #3D751F",
"J  c #33781F",
"K  c #3D781F",
"L  c #184B21",
"P  c #2E5229",
"I  c #1B6327",
"U  c #1C6C2A",
"Y  c #1F752D",
"T  c #1F792F",
"R  c #1F7B30",
"E  c #2A6B24",
"W  c #39682C",
"Q  c #257425",
"!  c #2A7421",
"~  c #277927",
"^  c #2E7C22",
"/  c #21762B",
"(  c #237C2D",
")  c #287E29",
"_  c #317E21",
"`  c #3C7D20",
"'  c #217030",
"]  c #217E31",
"[  c #4F4C18",
"{  c #74501E",
"}  c #44691D",
"|  c #44731E",
" . c #4A741F",
".. c #45781F",
"X. c #4C781F",
"o. c #5B4033",
"O. c #724F2A",
"+. c #476828",
"@. c #447C20",
"#. c #4D7C20",
"$. c #437A29",
"%. c #507F21",
"&. c #59702B",
"*. c #5B762E",
"=. c #686E2D",
"-. c #394C41",
";. c #74444B",
":. c #667A46",
">. c #8E0E08",
",. c #98160C",
"<. c #B1140E",
"1. c #B51813",
"2. c #8F2C12",
"3. c #883818",
"4. c #AA2F18",
"5. c #B82616",
"6. c #953A24",
"7. c #B52E20",
"8. c #D30D0D",
"9. c #C81917",
"0. c #D91A18",
"q. c #E31D1B",
"w. c #C72C1C",
"e. c #D5261A",
"r. c #E7251E",
"t. c #DA2827",
"y. c #CC332A",
"u. c #DA3627",
"i. c #E42525",
"p. c #E92523",
"a. c #E32B2B",
"s. c #EA2B2B",
"d. c #F32825",
"f. c #E9362E",
"g. c #F7312F",
"h. c #EC3736",
"j. c #F43637",
"k. c #92461D",
"l. c #AC481E",
"z. c #994628",
"x. c #8C522F",
"c. c #A75729",
"v. c #AF512C",
"b. c #B65A33",
"n. c #8F6D2C",
"m. c #A9722A",
"M. c #AB6539",
"N. c #B66638",
"B. c #CD4E2D",
"V. c #D1552D",
"C. c #C55437",
"Z. c #E44930",
"A. c #D86220",
"S. c #C86C3A",
"D. c #D66F37",
"F. c #96654F",
"G. c #926258",
"H. c #B96D46",
"J. c #AC704C",
"K. c #887371",
"L. c #CD5946",
"P. c #DA5C44",
"I. c #EC4F46",
"U. c #F74546",
"Y. c #DA6849",
"T. c #C67749",
"R. c #D4794A",
"E. c #C56A50",
"W. c #DB6752",
"Q. c #CA7759",
"!. c #DA7556",
"~. c #EA6751",
"^. c #D97864",
"/. c #F87869",
"(. c #2E8225",
"). c #26812E",
"_. c #2A832A",
"`. c #2C892C",
"'. c #328322",
"]. c #3B8222",
"[. c #348823",
"{. c #3D8823",
"}. c #308A29",
"|. c #228332",
" X c #248A35",
".X c #298B30",
"XX c #269338",
"oX c #448422",
"OX c #4C8222",
"+X c #428923",
"@X c #4C8A23",
"#X c #518422",
"$X c #558923",
"%X c #588B24",
"&X c #658651",
"*X c #8E802D",
"=X c #D4832D",
"-X c #EC9030",
";X c #E4A339",
":X c #BA8D74",
">X c #97A07A",
",X c #DF804B",
"<X c #C9855A",
"1X c #D78658",
"2X c #E3895A",
"3X c #F5AB48",
"4X c #C78D6C",
"5X c #D78B67",
"6X c #DA9469",
"7X c #DA9975",
"8X c #E38868",
"9X c #E7976B",
"0X c #F28A72",
"qX c #E49C77",
"wX c #F69778",
"eX c #E9A379",
"rX c #F9A27A",
"tX c #8D5E80",
"yX c #BD958E",
"uX c #EB9D84",
"iX c #D7A88A",
"pX c #EAAA86",
"aX c #F2B38C",
"sX c #F7AB98",
"dX c #EBB797",
"fX c #F6B996",
"gX c #F2B7A9",
"hX c #FBC29F",
"jX c #D9D1B6",
"kX c #F8C7A9",
"lX c #E5CEB3",
"zX c #FAC9B3",
"xX c #FCD1B7",
"cX c #E1B7D5",
"vX c #F2DAC6",
"bX c #FDD9C6",
"nX c #FAE2D1",
"mX c #E7C8E7",
"MX c #FBEEE8",
"NX c #F8F2F4",
"BX c #FFFEFE",
/* pixels */
"[.^ ) ( T T |.(.F [.].X.X.X.X.'.F [.[.'.F [.[.^ ( / |.|.`.J '.].X.X.OXX.].F '.[.[.D '.[.'._.] ).] .X^ ! [.K X.OXX...F F [.[.F F ",
"[.[.^ _.|.|. X).^ ^ J +X{.{.G D F J ^ [.F '.[.'.^ ).]  X|.( '.D {.{.{.].A D (.J '.F F [.V V |.U 9 T _.'.F ].+X{.].F A '.[.'.(.F ",
"$X].^ '._.).|.] ).( Q [.D '.F F D {.{.K K @X+XJ ^ (.|.|.|.] ) Q _ D ^ (.F D ].{.N A @XC * Z ^ 7 6 ] R _./ F (.F '.^ D J +X{.J oX",
"%X#._ F (.^ )._._./ ^ F A D F (.].#X#X$XOX$XX.].^ '.(.~ ) (.( ) ^ D D J F K @XN - X.S o 7 G 4   9 ) ) ( ) J D A F F '.oX#X#X#XX.",
"$XOX#.H '.'.[.].{.^ J J J ].oX..#X%.%.#X%X%X#XOX@.'._ '.'.+X_ ! J G K X.K OXC + w +.-   B N     V _.r V F F G G @.oX..#X%.OX#X%X",
"#X#X#X$X..@.@XOXOXOX..X...X.X.OX#XX.%.X.%.#.#X#X@XOX@.OXOXOX#.@.X...N N ..} , + r 4   = N o   - ` r = } X.oXoX..X.X.#X#XX.%.%.%.",
"S @.G H H ` @.OXX.#XX.#XX.#XX.X.#XX.OXX.X.} K K H K K oXOX#.#X#.#.N . N X.7 O X 4 +   - %     N N   7 #.X.X.#XX.#XX.X.X.X.#XX.X.",
"'._ G ^ J D _ {.].+X....@X@XX.X.X.OXK K oXoXF F D G J D [.].oXoXB o   S B #   . o           - r +   V 5 A ..X.OX@XX.X.#X..G ..oX",
"[.F '.'.[.F D '.[.[.'.J J J ].K '.'.'.[.D '.'.(.'.'.'.D '.'.}.D %   * A = O + .     o   O   4 =   * * % F D J J K {.K ].'.'.'.D ",
"D F D '.F '.F '._ J F [.^ '.'.[.'.'.F '.'.F F F F F '.'.F '.D 5 # # q q     :       +     o &   X o   q F '.[.^ '.'.'.(.'.F '.'.",
"D '.J F F '.(.F ^ _ ^ [.'.'.'.[.[.'.[.F '.F (.F F F F (.F '.n O @ X b X   .                     o   % ! D A ! '.[.[.[.'.(.'.F '.",
").^ (.F '.'.F '.'.'.'.[.}.'.`.(.(._.^ F _.).(.F F '.[.F F D * O   3 3                   O           n ^ r 7 _ (.^ `.(.(.'.F ^ `.",
"|.|.~ (.^ ^ F '.D F [.F /  X( ).|.T ~ ).).|.|.T (.(.F D '.5     O *                               4 Z 7 # n ! ).).T  XT / _.).|.",
" X|.).Y (.! [.'.F F F (.`.).|.).|.|.T ).XX X|.|.( _.F [.E #       X                     # O X   - b & O 4 ! ^ _.|.|. X XY ).|.XX",
"T |.|. X|.Q ~ ^ ^ ^ [.F [.(.Y T |. X|.|.|.|.|. X|.|.Y ~ 9 @ +             O O , # #   O # O   + 3 X   - M 0 5 ! ^ T T  X|.|.|. X",
" X|.|.T |.] ).|.T / ( (.'.F _.).T T |.|.|.|.|.).T ).).I - , # +         X #   :     O   # O + :     o 3 % X V ^ (._./ |.T ).T |.",
"T |.).|. X|.T |.`.( ^ (.'.J '.(._.|. X] |.] / |.T  X|.0 O O .   #     @ O X :   @ O       : O         + + b (.(.'.'.(.|. X X|.|.",
"|.T T T ( T T (.! '.[.[.F (.'.'.(.`..X] |.|.|.R ).( I &               O ; : +   O     + > :             * n D F '.F '.(..X).).( ",
").).~ '.^ (._.(.'.'.[.[.J +XK F (.[.F Q ( `.] ( ^ ^ m O       .     O @ # : O O     : : , O         o : O 5 _ H ].F F [.(.D )..X",
"(.(.'.(.~ ^ F '.'.D [.'.oX%X'.J [.F V 6 ~ '.^ [.'.! 7 1 o $ j d   2 +                 + &     @ O O # o q '.].#X#X].'.[.J [.(.`.",
"[.(.(.~ ( T ~ (.'.[.'.OX#X#XoXJ [.Z # * '.! _ }.).N k 3.g c.S.j k O.$ 1 =                         O * n Z ! %.#XOX].'.'.[.[.'.'.",
"[.F ).Y T ).).[.F '.].X.%.#XOXG D 3   0 Z q G ~ U h M.v.M.9XS.N.<XO.o.c.$     O         O O       X * X X B ..OX#X..'.(.[.[.'.F ",
"[.[.'.).|.|. X).F (.'.OXoXoXG D q     n 3 9 [.[.V k.N.N.1XS.R.aX<Xx.1XM.z e   O         O : ;       # X M ].oXoXK G F F '.'.'.F ",
"+X'.F (.T |. XT _.~ A [.G '.'.Z % @ % 5 O C G q h x.T.5X,XS.hXeXJ.4X<X<X7X2         # # ; < @     O & 0 0 M '.'.[.J D F {.[.F J ",
"%X..'.J [._ ( ).).( ^ (.D D D q     & o = +.4 2 l N.5X1XS.9XaX<XT.J.7XhX:Xe X       t , , @ O O O # X @   * D D F F (.].#XOXOX..",
"#XOXK J '.'.(.'.'.^ '.! D ..J < O   X   r r o d k.M.5X1X1XaX2X1XT.iXfXeX6XF.o     O < @   O O ; @ # @     5 A D K ]...OX#X#X%X%X",
"$X@X$X#XH H {.@XOX..H ` oX..B +   +     7 > 2 s c.c.R.S.9X9XeX5XqXdX7X9X4Xe     O O O O O ; , ; ; O O # N | H ....X.#X#XX.X.%.#X",
"} OX| OX..oX@XX.#.#XX.OXX.%.4     +     .   p ,.x.k.l.b.1X9X9X7X9X6XeXrX<Xg     O   O O O O O O O       C X.#X..OXX.X.#XX.#X .X.",
"J '.F F J F J {.@.OXOXX.#XX.*     O O @ ; + <.<.>.s k.b.V.,XaXkX7X1X1XeXO.=       O # O     # : ; O   O C X.OXOX#XX.X.X.X.oX..OX",
"'.F '.F '.F D [.[.'.J G K A X : # O @ , + 1 8.8.w.,.,.5.A.9XdXkXkXeX9X2XH.e       # #       ; : O O O q '.J H ].].oX..+X{.G '.G ",
"D (.F '.'.'.F '.[.'.D [.F n O t ; O ; , O i 8.d.h.9.8.w.f.P.rXpX6XpXpX8XO.O   O     #       @ @ @ @ O N F '.[.D F '.F '.'.'.[.D ",
"D J F J F F '.F _ ^ [.'.(.b   #   @ : ; O i 0.g.a.s.9.i.f.B.,XeX6X9XqX4Xz     O O           # O   O & Z F '.'.'.[.[.[.'.[.F F [.",
"~ (.(.F '.'.F '.'.'.F [.[.6       @ : @ . 1 8.p.i.q.i.p.q.u.2X6X<X<XO.w                         % b D F '.F [.'.(.[.(.[.(.F '.`.",
").).F (.F F D '.D '.[.J _.6 O O O # ; ; O $ <.d.p.t.0.0.i.Z.L.T.N.<XF.x O       O               X M '.F '.'.'.).).).).T ~ (._.).",
" X X).T (.'.(.'.F F F '.).6   #     , + O + >.p.p.0.0.t.j.a.V.R.T.4XJ.o.e =                 X 4 n F F F F '.F ). X).|.|.Y |.). X",
"). X XT ).A F _.F F '.D }.9   O     < O O   a q.s.t.q.h.I.I.y.Q.6XeXaX6XF.e                     X M '.F (.F [.}.Q T |. X).|. X X",
"|.|.|.|.|.T |.)./ Q ).'.F q       O O O     i q.g.s.a.U.Z.f.B.5X1XeXdXeXJ.e                 . * m Y T Y ~ (.F '.(._.T ).T |.|.|.",
"T |.R T |.|.T )..X( Q '.[.b O               i q.g.a.t.i.s.r.7.b.N.<XqX6XF.e                     8 |.)..XT ~ '.'.(._._.( |.|.T |.",
"|.).|.|.).T T _.^ '.(.[.J D *     O         i 0.d.q.i.s.s.p.w.R.<X1XeXiXK.=                 X 8 I T _.(.[.[.'.'.'.F F )..X X|.|.",
").T Y ~ ~ _.).(.'.'.[.[.D ].A 3             i 8.d.a.h.U.s.q.e.C.1X4X<X1XF.$                   0 )._.[.F (.[.'.J '.F _.[.[.~ ).|.",
"(.).'.'.D (.'.F ^ F [.` K $X].A q O #       i s.U.h.h.j.q.0.9.7.N.<X6X1XM.2   O     O       7 Z (.'.'.F J [.'.OX@XJ F [.'.'.(.(.",
"'.(.}.(._./ ~ '.F '.[.{.@X#XoX_ '.5 O #     a s.U.t.i.a.q.0.e.B.S.M.N.m.k.$   O         + 3 V / D '.J '.[.[.X.#X#X{.'.'.'.[.(.[.",
"[.F _.Y Y |.( [.'.'.K @X#.OXX._ '.F * @     >.g.j.q.a.h.i.q.0.7.S.N.c.c.x.2               8 Y R T |.[.F '.oXX.OX#X..(.[.(.[.'.F ",
"[.'.(.T |.T  X(.'.'.].X.OXOX..^ F [.V X   1 t.U.U.j.h.U.j.a.9.y.S.c.k.b.g .             X 0 T |.|..XF A G } | OXX.K F '.[.'.'.F ",
"].'.(.F T |.|.T ~ F F [.'.'.J A F '.J %   a p.U.j.a.a.j.f.9.5.l.S.b.c.J.e     +     . * n _ ) W +.O.O.k.j j 2 S [.F F J '.'.'.J ",
"%X+XF (.}._.|.|.|.T F (.F '.F '.F oXOX4 a 8.j.U.U.a.y.q.e.<.5.C.N.c.c.o.      O     . C } O.x.H.Q.R.S.z.s a w F F D F J +XoX..oX",
"#XX.].J '.'.(.(.'.(.(.Q S *.&.+. .&.x.6.1.1.t.h.h.y.1.y.5.z.N.S.N.c.x.e $ + O . $ u x z.L.W.W.L.^.^.T.b.2.p N A '.J K OX$X$X%X#X",
"%X@X@XOXJ J (.].{.F E yXjXlXvXlXiX1XR.D.Y.L.W.0X/.P.P./.0XpXeXrX6XN.2X,XM.G.G.G.yXgXqX0XwXY.Y.C.~.W.C.v.2.p N G OXOXOX#XX.X.X.$X",
"X.#XX.#X..OXX.*.*Xn.yXmXK.;.tXBXBXMXsXV.S.E.eXkXbXzXzXbXbXhXaXkXpXeXfXeXeXgXgXgXxXbXxXgXsX8XE.C.P.W.H.6.2.p [ | OXX.X.#XX.OX#X .",
"H J J J G S m.D.=XD.yXmXtX;.cXBXBXBXNX8Xl.b.eXkXxXxXzXnXnXzXhXxXgXaXfXsX7XfXbXbXzXkXbXzXsX^.Q.!.0XuXQ.6.2.f ..X.#XX...OXX.OXX.X.",
"'.F J F F N s [ d j m.dXNXNXBXBXBXBXBXzXb.2.S.rXzXxXbXkXfXkXxXzXdX7XG.z z :.jXbXxXzXnXzXuX7X^.^.^.M.3.d C } | {.oXOX..OXoXF ].K ",
"J F (.[.'.n 5 F [.'.H %X>XjXnXNXNXMXMXzXy.4.V.P.0XsXgXsXrXfXaXuX<Xz ; ; ; , u :XuX5XyXJ.7XuX1XH.l h C C A '.'.D J ].'.K J '.'.F ",
"F F F F F A A '._ ^ '.[.'.$.#X&X&X:.:.O.2.,.e.r.f.Z.~.9XwXrXwX~.c > ; ; ; ; > 6.Z.5.l A } =.O.h d w Z '.^ (.[.'.[.'.'.(.'.F F [.",
"D [.'.F '.(.'.F ^ '.^ [.{.F }.}.'.'.'.^ A C [ 2.5.e.u.u.I./.~.u.u t ; + O ; 2 7.w.,.S ! '.^ D D '._ '.'.F '.[.^ '.[.[.(.[.F F [.",
")._.^ ^ D '.D '.G ].'.'.(._.`._._.^ ^ '.) _.|.! F S [ l 3.2.4.s u y , ; O , p <.<.k ( `.^ (.D _.! ! '.D '.'.(.(._.`.)._.F (.'._.",
"|.|./ _.'.F F '.F D _ _ ]  X' |.|./ ] ). X|. XP { m.m.%XX.G F M y t : O ; a 7.1.[ ] |. XT _.(.^ ` '.^ G '.'.F ).).T |.|.T ).). X",
"|. X|.T _.F (.[.F F F F }.).T |. X|.R |. X' -.x.A.-X*X=X;Xx.+.C t ; . $ a <.0.h T  X X|. X|.R _.F '.(.F F F [.`.T |.). X|.|.|. X",
"|.|.|.).|.Y ~ T ~ ^ }.F [.[.( Y |.).|.|.T u -.u 2.{ n.=X3X3X3X;Xv i p >.>.s C ' |.|.|.] |.|.|.] Q ( ( ~ F }.F J (./ T |.|.|.|.|.",
"|.|.|.Y |.T |.|.|.Y / (.'.'.(._.T |.|.T U 9 L -.u k.A.A.;Xm.=.*Xv.,.s k S ' |.|.] ] |.|.|.|.R |.( |.|.( T ( '.'.'.(.).T |.|.R |.",
"T |.|.|. XT T )._.(.(.[.'.F '.(.)..X X).|.L m 8 Q ^ k.-Xn.! }.F S C W '._ `.|. X|.|.|.T |.R |.|.T T ).(.(.[.'.'.F '.(._. X X|.|.",
" XT T ( _.( ).(.F (.[.[.F '.F '.(.`.(.)..X|.Y m I W x.m.G ^ (.[.{.D J '.^ '.[._._.|.)..XT ( ~ ( |._.(.^ [.[.[.D (.(.(.[..X~ ). X",
"_.( ^ [.F (.F ^ '.F [.[.K @X'.F [.[.F (.`.(.T D P P P E ^ '.F [.[.'.@XoX! ].[._ F `.`.~ _.^ [.D (.^ [.F '.[.J +XoXJ F [.(.D _.).",
"F [.(.(.F T F '.F F [.{.X.$XoXD [.F [.[.(.[.'.'.(.(.( ).^ '.D '.[...%XOX'.(.'.}.[.(.[.'.[.(.(.~ (.F (.F F [...#X@X].F [.(.[.[.[.",
"[.'.`.Y |.( ~ (.[.[.K @X#X#X..'.'.[.[.[.'.(.[.`./ T ( ~ F '.[.'.@X#X%X+._ [.[.[.[.[.F '.(.( T ).T ~ '.[.'.{.#X#X#XK [.[.[.[.[.F "
};
