/* XPM */
static char *b054d0dcf74f4de2fe1ba9e0030fec421f9wIYDW0Rt1Dpg9[] = {
/* columns rows colors chars-per-pixel */
"64 64 210 2 ",
"   c #000106",
".  c #00050D",
"X  c #09060D",
"o  c #01090E",
"O  c #180109",
"+  c #1A0908",
"@  c #010611",
"#  c #020911",
"$  c #090E15",
"%  c #060D18",
"&  c #0A0E1A",
"*  c #090712",
"=  c #1A0D1C",
"-  c #1C0814",
";  c #0A1116",
":  c #05121A",
">  c #0C131C",
",  c #0E191D",
"<  c #061117",
"1  c #12151E",
"2  c #1A131D",
"3  c #111A1E",
"4  c #161417",
"5  c #240103",
"6  c #2A0F00",
"7  c #24060C",
"8  c #240C04",
"9  c #390400",
"0  c #38060C",
"q  c #3A0803",
"w  c #2F1A0B",
"e  c #2C1604",
"r  c #35160F",
"t  c #3A1905",
"y  c #220B15",
"u  c #2B0A12",
"i  c #240E1A",
"p  c #290E1D",
"a  c #22121C",
"s  c #281818",
"d  c #3D1314",
"f  c #381A10",
"g  c #351419",
"h  c #39230C",
"j  c #2F2219",
"k  c #3F2911",
"l  c #1E0F22",
"z  c #0E1421",
"x  c #0E1923",
"c  c #0B1B2A",
"v  c #0A1426",
"b  c #131622",
"n  c #1B1523",
"m  c #141923",
"M  c #191B25",
"N  c #13172B",
"B  c #1E162B",
"V  c #161B2A",
"C  c #1A1D2A",
"Z  c #161D31",
"A  c #231524",
"S  c #2A1524",
"D  c #281A29",
"F  c #331422",
"G  c #321924",
"H  c #301E2C",
"J  c #2A1F32",
"K  c #1D2326",
"L  c #15222D",
"P  c #1D222C",
"I  c #152533",
"U  c #1D2332",
"Y  c #1C2A33",
"T  c #1C253B",
"R  c #1D2F3E",
"E  c #172A38",
"W  c #1D303E",
"Q  c #22232E",
"!  c #2B2B2E",
"~  c #2E2727",
"^  c #332B23",
"/  c #342C2C",
"(  c #3B2728",
")  c #3E3129",
"_  c #222533",
"`  c #292733",
"'  c #242936",
"]  c #292A36",
"[  c #2A2539",
"{  c #262B39",
"}  c #2B2D3B",
"|  c #312E3D",
" . c #3E2E39",
".. c #322735",
"X. c #273334",
"o. c #2B3133",
"O. c #25313C",
"+. c #2D313D",
"@. c #2E3B3A",
"#. c #3F3037",
"$. c #32323E",
"%. c #323B3E",
"&. c #373236",
"*. c #450B04",
"=. c #450900",
"-. c #500E00",
";. c #441102",
":. c #49170C",
">. c #531501",
",. c #5A1903",
"<. c #4E1516",
"1. c #491D1A",
"2. c #441918",
"3. c #5D1E15",
"4. c #611700",
"5. c #43270A",
"6. c #4A2E18",
"7. c #5B291B",
"8. c #593419",
"9. c #6D2902",
"0. c #672A0D",
"q. c #752D00",
"w. c #6F3716",
"e. c #773010",
"r. c #753517",
"t. c #451721",
"y. c #4C2423",
"u. c #412126",
"i. c #582521",
"p. c #41382C",
"a. c #4A2930",
"s. c #433535",
"d. c #6D3F25",
"f. c #40403E",
"g. c #242C42",
"h. c #2C2F40",
"j. c #322F40",
"k. c #2E3241",
"l. c #293148",
"z. c #353643",
"x. c #383745",
"c. c #383745",
"v. c #353944",
"b. c #393947",
"n. c #393945",
"m. c #363749",
"M. c #3B3549",
"N. c #34394A",
"B. c #3B3A48",
"V. c #3E3D4B",
"C. c #3A3B4A",
"Z. c #3E3F51",
"A. c #423C49",
"S. c #3C4247",
"D. c #3E424E",
"F. c #3C414D",
"G. c #36404C",
"H. c #3F4351",
"J. c #41444E",
"K. c #414551",
"L. c #454553",
"P. c #424453",
"I. c #484755",
"U. c #434955",
"Y. c #464A56",
"T. c #454A56",
"R. c #4A4A56",
"E. c #454758",
"W. c #46495A",
"Q. c #4A4E5A",
"!. c #4A4C5A",
"~. c #4C525D",
"^. c #4D4F61",
"/. c #4E5460",
"(. c #525465",
"). c #555A66",
"_. c #5C626E",
"`. c #815E38",
"'. c #925C3B",
"]. c #9E5C39",
"[. c #99562C",
"{. c #A66E3D",
"}. c #B26A3B",
"|. c #B3703C",
" X c #995B48",
".X c #986E4C",
"XX c #9A7349",
"oX c #886551",
"OX c #976B52",
"+X c #907355",
"@X c #A37544",
"#X c #B57944",
"$X c #B57947",
"%X c #A67C57",
"&X c #B77054",
"*X c #A76545",
"=X c #946962",
"-X c #BB8458",
";X c #A88460",
":X c #C19362",
">X c #C7CDD3",
",X c #D4D9DD",
"<X c #D8DEE4",
"1X c #DEE3E7",
"2X c #E5EAEE",
"3X c #EEF3F7",
"4X c #F6FBFF",
"5X c #FBFFFF",
"6X c #F9FFFF",
"7X c #F2F7FB",
/* pixels */
"# # # # # o # # >   o o X     o o # # o o @ #   @ # @ o o # @ o @ # @ o @ @ # o o @ # # o @ # @ o @ # o . o o % o @ @ # o o # @ ",
"# # # # # o o @   o m .   , 4   o o @ . o # # o @ # o @ @ # o # @ o o # # o o @ @ o o @ # o o @ o o @ # % # @   o # o # @ @ # o ",
"# @ # # o # # # >   #   o o o   o @ @ . . @ # @ # o # @ @ o o @ # o @ @ @ o @ # @ # o @ @ @ o # @ . o @ % # o . @ @ o o o # o @ ",
"# # # # # # o o S.# ; o 4   o o # # % o . . @ o o @ # o o @ # # o @ # o o # @ o o # @ o o # @ o # . o @ @ o @ @ # o # @ @ @ o # ",
"# # # # # # o # ;   $     o X   o o @ % @ o o o @ # @ o @ # @ o o # @ o # # @ o o @ # # o @ @ o o @ < > % o o * @ # o # o o @ # ",
"# # # @ # # # # o o ; ;   o     .     @ # @ . o @ o o # @ o o # @ @ o # @ o o @ # o o @ # o # @   o > M > o o # o o @ @ @ # @ o ",
"# # # @ # # # # $         Y ~ K & o   . # # @ @ @ o @ @ # o @ @ # o o @ # o # @ @ @ o # @ o o # . o & z > o . # # @ @ o o # o @ ",
"# # # % # # # @   ;   o @.,X7X1XP > . o % # o @ o # # o o @ # o o @ # @ o @ # o o # @ o @ # @ o %     @ o   . % # o # o @ @ o # ",
"# # # # o # @ o o   o K <X5X5X4X<X> #   . . b   # @ @ o @ # # o o o o @ o   . % # @ o @ @ @ o @ @ o o @ @ o o # o @ # o   % > # ",
"# @ # # # # o # 3     3 5X4X3X5X6X' o # &   o o o o # # o o @ @ @ # # @ @ o @ # o o o o o o o @ o # @ # o # @ @ . o % # # 1 P 1 ",
"# # # # # o o #   o o 1 ,X5X5X3X>XM   o >     % @ o @ o # o # o o # # o o @ @ . @ # @ @ # # @ @ # @ @ o @ # @ o o @ # @ o % > # ",
"# # # # o # # o . >   o J.>X5X2XC.. @ . > o # % # @ # o @ @ @ o   & > # . % #   # # # # # # # # # o o # @ o o # # @ # o     o . ",
"# # # # o # # # . o   ,   K K ;     > o # # %   o o @ o # o @ @ . b M > o @ # o # o @ @ o @ @ o @ o @ # # o @ @ @ o o # . # $ o ",
"# # # @ # o o # ; ;     X     ; @ o # @ # @ o o @ # # @ @ o o #   $ 1 $ o   . . o o . . o o o o o # @ o o @ # o @   @ % o @ & @ ",
"# # # % # # # #   ; ;   K ;     > @   @ @ o # # @ @ o @ @ # o @ . . % % @ o o o o @ @ o o @ @ # @ o @ o o # # # # o o #   o o   ",
"# # # @ o # o o # #   ;   o $ X   # % $ o @ % o # o # # # # @ @ @ o . @ & & * % @ * % # @ # @ * # # @ # @ @ o @ #   o % @ @ % # ",
"@ # # # $ # o o % . . @ % @ @ % % % @ . @ & & @ # @ @ @ @ @ @ @   D V.I.R.!.!.I.Y.b.L.} R.} z.Q % # # # % # # # . . .   . . o o ",
"# % . . # o o * @ @ @ % # @ @ @ . @ % % @ % @ @ # @ @ # & z > % _ B.!.^.I.I.I.P.B.} c.] A.} $._ C C b z > > * # * * * o X o o X ",
"# o     % @   % @ @ % % @ @ @ @ % @ @ . @ @ % % # @ % P N.T./.~.N.L.R.L.A.V.B.c.z.| } | z.| | } z.} J C P C b & 1 1 > > $ o o   ",
"o . . ; m %   o @ @ @ @ @ % % @ @ . @ % _ F.!.^.~.Q.U.U.P.U.F.C.v.B.c.z.z.m.c.z.c.B.z.M.] z.} z.z.+.' P P P M m m m b 1 4 ; o . ",
"# X # 3 P > . o % % @ @ @ @ @ @ @ > Q v.P.Y.P.D.J.U.D.J.D.H.F.H.z.z.z.$.z.c.M.c.c.B.| B.` $.` } +.+.} _ P C M M M m m m 1 > $ . ",
"o o o % > # . # @ @ . @ @ @ . . . m v.R.Q.H.D.U.v.G.G.b.z.+.+.z.b.c.z.c.z.c.c.z.z.c.$.B.[ z.} | } +.+.} _ C P P M m 1 2 m 1 ; X ",
". o     o o   # @ . @ % % @ # m Y.!././.D.z.z.G.+.z.v.v.z.k.v.v.c.c.c.m.c.z.z.z.c.B.z.B.$.c.} z.k.k.k.h.] _ P P M m b m m 1 ; # ",
". $ #   @ # o # % . @ @ @ . M G.).Y.G.v.C.v.v.v.G.v.v.z.v.G.z.z.c.z.c.c.c.z.c.B.c.c.c.c.m.z.| ] } } } h.+.} _ P P C m m m 3 > * ",
"o . . X # % o . > . @ @ @ % H.).Y.J.B.z.c.b.v.z.z.v.v.v.m.m.b.v.$.z.z.z.z.c.z.c.z.z.c.c.c.c.z.| } } } h.h.[ ' ' P C C M m m b b ",
"o o o o @ @ o o . & @ @ > ~./.D.P.V.v.z.m.c.m.z.z.z.z.z.z.z.z.z.z.z.z.z.z.c.c.c.z.z.c.c.c.z.z.h.{ h.h.} } } ' ' _ _ P M m m m b ",
"# $ # o o . o # . % @ b z._.~.G.A.B.m.z.c.c.c.j.c.c.m.z.c.c.z.c.c.c.c.c.c.z.c.c.z.z.c.c.c.c.j.z.h.h.h.h.h.{ { ' _ Q P C M m b m ",
"; ; ; o . o # # @ @ @ & T.U.J.U.C.m.z.z.c.c.c.c.c.m.b.c.c.c.c.c.c.c.c.c.c.c.c.c.z.z.c.c.c.c.c.z.j.h.h.h.h.h.[ ' _ _ _ P C m m m ",
"$ ; ; o . o # # @ & x z H.U.U.G.v.m.z.$.z.c.z.c.z.z.c.c.c.c.z.z.$.c.z.c.c.c.c.c.z.z.c.c.c.c.z.m.m.z.h.h.h.h.{ ' _ _ _ C C m m m ",
"; > ; o X # ; % @ @ # k.H.T.k.v.z.z.c.z.z.z.c.z.c.c.c.c.c.c.z.| } } | z.c.c.c.c.c.c.c.z.c.c.b.N.m.l.h.h.z.h.} _ _ _ P P C M M M ",
"$ ; # . o & > % %   & Q.U.G.} v.z.c.m.c.z.c.z.c.z.c.c.z.| } ` _ D _ } z.c.c.c.z.c.z.z.c.c.c.M.N.m.m.h.h.h.h.g.[ ' _ _ C P C C C ",
"$ ; o . o > m > . z P.P.U.C.T.z.v.v.z.v.z.z.z.c.| } } ` Q C n b M _ ] $.b.n.z.z.z.v.z.z.c.b.B.M.M.l.h.h.h.h.} ' _ _ _ P U P P U ",
"o m # @ @ @ N % V A.!.P.L.J.z.%.k.v.v.v.v.$.z.%.z._ C b & % % # * 1 P X.%.@.%.%.S.@.v.z.v.v.M.M.c.c.c.$.$.} $.$._ _ { _ U U V V ",
"# b > > & @ N & M.W.W.V.b.b.$.v.v.v.v.v.v.+.} ' Q m 1 & * @ o o # # , K X.@.@.@.@.@.v.v.c.c.M.M.z.z.c.$.| } } $.] ] ' ] _ U P L ",
"# > & N z * z N ^.W.L.A.z.$.b.z.v.v.z.z.v.+._ P 1 % @ @ @ @ # # o . o , K X.@.@.z.v.m.z.B.c.M.c.$.v.$.$.$.| } } +.' _ _ ' U U V ",
"% % v n & @ N g.(.Z.P.I.c.c.V.&.z.@.%.v.v.+.U V # @ @ # # # # < # # o < x K Y X.+.z.z.c.M.B.m.c.c.b.#.%.$.$.o.} +.' ' _ { { U V ",
", # > > % @ N A.(.Z.Z.L.V.n.n.&.v.z.z.k.+.o.P z # # # # # % % : % % % % : m C ' h.j.m.m.n.n.v.v.n.%.c.#.z.z.$.+.+.{ _ _ { ' U U ",
"M > z > * % Z ^.(.P.M.M.n.$.%.n.C.v.v.@.O.Y , # # # % % < % < : : > z & > b V [ [ j.j.m.b.n.v.z.n.c.%.n.z.z.$.} +.} { ' T ' ' U ",
"P > m , % z Z ^.!.E.M.z.c.c.%.B.b.v.z.+._ M < # # # % : : < : , : > b b b n B A J J | z.c.v.z.k.%.n.z.c.n.z.$.} } +.{ ] ' T T _ ",
"M : C > & b C P.Z.P.m.} B.B.$.B.$.z.+.} L , % # # < : : x : : x m m z n B B l l D J ..&.c.n.z.%.n.#.$.%.n.$.+.] } } +.' ' ' ' ' ",
"x > , N z M v ^.A.Z.m.z.z.z.c.#.c.n.z._ m % # % # # < : : x m m M M 2 2 H a S G ( -  .[ ` J._ @.%.n.%.n.n.$.z.v.} +.} } { T ' ' ",
"m 1 , m > V N !.E.N.m.z.m.z.%.$.n.$.| Q > # o # # # < : , x m m 2 a G y F 7 u u 7 g y / &.+.Q.S.c.$.c.n.n.n.z.z.} +.k.} { { T ' ",
"m 1 x m b b N E.E.Z.z.z.c.c.z.c.c.$.Q 1 % @ o # % < > z z b m 2 a O u.7 y.y.<.1.2.r g s ~ %.X.O.%.c.c.#.%.c.z.v.+.+.+.} { { ' ' ",
"m , m m b N ' E.Z.M.M.m.c.c.$.c.c.` m $ @ o o @ % % > b b b n = y a.5 d :.9 :.9 ;.f f e ^ %.F.G.n.$.%.$.c.c.v.v.+.+.+.} O.{ { ' ",
"m 1 x m b V M.W.A.Z.m.z.c.c.$.c.z._ 1 @ @ @ # # % : b b n n l i u d 1.q =.>.>.0.'.d.oXw ^ R.Y G.n.$.%.c.c.$.n.$.z.+.k.} +.O.{ ' ",
", > m m N M E.W.P.N.m.z.B.A.%.%.| D % @ @ # # % : & > n n A l p d 0 9 7.,.*Xq.[.r.'.8.6 ^ 3 H.h.%.c.b.#.c.v.v.v.v.z.k.k.k.h.{ U ",
"m , m b V V ^.E.Z.N.z.c.B.n.$.n.] n % @ # # # : > > z n l A S F t.<.=.-.&X4.}.q.#X-X.Xt ) ! z.v.v.n.n.%.v.v.z.z.v.z.k.k.k.+.{ { ",
"m b m b b N W.H.A.c.z.c.B.n.c.v._ > # # # o # > > > l n A D H F 0 <.3. Xe.*Xq.|.|.-XXXe j ! O.N.v.$.c.c.v.z.v.z.N.z.k.k.k.k.} T ",
"m M b z b ] b.Y.P.C.z.+.z.m.z.z.X., o o < # < < : 4 4 2 A A D F 2.*.=.d.].q.|.|.#X@X;Xh s ] N.N.$.+.z.z.m.z.z.m.z.z.z.+.} } ] { ",
"& b b & P b.!.R.D.v.z.z.v.N.v.+.K , o # o o o ; 1 , 1 1 2 A S s 5 i.*. Xw.-X{.-X-XXX+Xw s M g.N.B.B.N.v.v.N.v.v.v.C.v.v.z.+.] ] ",
"b J B > _ P.Y.v.z.+.z.z.z.m.%.] ' L M x < o o : 1 m m A A A A S t.t.=X8.OXXX;XXXd.8.h + / z.g.T k.z.z.z.z.z.k.z.+.z.z.m.z.$.} ] ",
"P _ C M Q m.m._ ] ] ] { } ] { _ z.X.O.X.L K L K 1 1 1 1 n 2 2 i a 7 f r 8 6.e k k h ) ^ %.T T g.{ ] ] ] ] ] ] ` ] ] { ] ] _ _ _ ",
"m V V C Q _ J C _ C Q P _ _ _ _ ' +.o.+.+.X.+.k.v.v.z.v.z.c.c.c.A. .#.s.) ) j ) ^ X.f.X._ Z T l.{ _ _ _ _ _ _ _ _ _ _ Q C V b b ",
"b b b J M 1 b b M M m M C Q ] ] _ Q _ ' } O.{ { ' _ ' ] ] ] ] ] D $.Q ` ! Q o.~ X.K K 3 { g.g.Z _ _ _ Q C M M b M M b b b b n b ",
"> b m b b z > > b b m b m C P Q J U _ _ _ _ _ C _ _ ' _ _ _ _ _ U o.+.P @.I O.L Y W X.W Z c N V V V m m b b 1 b b & b b m m M V ",
"* b m > & M M b b b b b b 1 b b C _ { { _ ' ' ' Y ' U ' _ ' { _ ' T L O.I W E W W I v L N N n b b b b b b M m M b M m M m 1 > & ",
"> ; > > > > , 1 > m m , m m m m b b m b M N b N V m N m m x x x m x x c c c c c c c N N b b 1 1 m , 1 1 m m m , m m 1 1 : > % # ",
"# % % $ > , , 1 > b 1 m > , , m b z N b b b b b b b z x x L x x 3 x x x c c c c c c c b m 1 2 2 3 m , > 1 m > 1 m > > > > ; ; # ",
"o o @ # % $ ; > > > > > > > > > z z m 3 b m n m z b m x x x c , 3 , 3 , x c : c c m m 1 2 2 4 2 1 > > > , > > > % % # $ # # # o ",
"  o o # # # # # # < $ ; $ % % > , , , 3 m b b b > > > z > x x , , 3 , , : , , : m b 1 1 1 4 4 4 $ $ < # % > ; # # # # o # @ o o ",
"o o o . o o . o o o o o o o o o < < < : ; > & > * & & & , : : , ; , ; ; < ; & & > & 4 & ; X ; ; o o o o o # o o . o . o o o o o ",
"# # o o o o   o o o o o o o o o o o o o # # * # # # * o o < < o # o o o # o X X X $ X X o o o o o o . . o o o o o o o o o o o o ",
"o o o o o o o o   o o o o o o o o o o o o o o X X o o . o o o o o o o o o o X X X X o o o o o o o . . o o o o o o o o o o o o o ",
"o o o o o o o o o o o o o o o o o < o # # o # X o X o o o o o o # o o o X X X X * * * $ # o # o o o o o o o o o o o o o o o o o "
};
