/* XPM */
static char *ade1c8dd1a644296b6bd6edf9f6af299WtIhd5jLGYazBSSJ[] = {
/* columns rows colors chars-per-pixel */
"64 64 234 2 ",
"   c #02060C",
".  c #020A0E",
"X  c #020611",
"o  c #040B13",
"O  c #090C14",
"+  c #060E19",
"@  c #0A0E1A",
"#  c #1B0E1B",
"$  c #0D1414",
"%  c #061219",
"&  c #0B171A",
"*  c #0C131C",
"=  c #141A15",
"-  c #12141E",
";  c #1B131C",
":  c #11191F",
">  c #2F0E0F",
",  c #3B0B0A",
"<  c #3B110E",
"1  c #2A0D14",
"2  c #241413",
"3  c #281618",
"4  c #2A1B1B",
"5  c #361515",
"6  c #112D0F",
"7  c #0D2914",
"8  c #132A17",
"9  c #1A2A1B",
"0  c #1A3117",
"q  c #1A3319",
"w  c #173818",
"e  c #2D2018",
"r  c #362418",
"t  c #26341C",
"y  c #1E0E21",
"u  c #0E1621",
"i  c #0E1A22",
"p  c #0B1729",
"a  c #0A1B2A",
"s  c #131622",
"d  c #1B1323",
"f  c #141923",
"g  c #191C26",
"h  c #131629",
"j  c #1B1429",
"k  c #141B2A",
"l  c #1B1E2A",
"z  c #171D31",
"x  c #210F23",
"c  c #231423",
"v  c #281927",
"b  c #231C2D",
"n  c #2A1D2C",
"m  c #351924",
"M  c #251D30",
"N  c #1A2725",
"B  c #1D222C",
"V  c #1E2B2A",
"C  c #1B3625",
"Z  c #1D2232",
"A  c #162836",
"S  c #1C2A35",
"D  c #1D263B",
"F  c #1B2E3B",
"G  c #1D303D",
"H  c #2A2727",
"J  c #22242E",
"K  c #222C2D",
"L  c #352324",
"P  c #322D2B",
"I  c #243425",
"U  c #35312D",
"Y  c #232533",
"T  c #2B2535",
"R  c #252935",
"E  c #2A2C36",
"W  c #24273A",
"Q  c #2B273B",
"!  c #252A39",
"~  c #2B2D3B",
"^  c #322E3D",
"/  c #392D39",
"(  c #263536",
")  c #2D3236",
"_  c #26323B",
"`  c #2D313D",
"'  c #2E3B3B",
"]  c #373635",
"[  c #32333E",
"{  c #3B323B",
"}  c #323A3E",
"|  c #48130B",
" . c #481816",
".. c #431A1C",
"X. c #501715",
"o. c #482217",
"O. c #5B2416",
"+. c #482728",
"@. c #513027",
"#. c #603B23",
"$. c #1C4818",
"%. c #26411A",
"&. c #235B1C",
"*. c #385919",
"=. c #25641D",
"-. c #2C671F",
";. c #2A6C1D",
":. c #376D1E",
">. c #2D751F",
",. c #2E781F",
"<. c #33751E",
"1. c #3B741F",
"2. c #33781F",
"3. c #3D781F",
"4. c #1A4625",
"5. c #195923",
"6. c #284924",
"7. c #235723",
"8. c #385A23",
"9. c #344732",
"0. c #1D6B28",
"q. c #1F752D",
"w. c #1F792F",
"e. c #286824",
"r. c #386821",
"t. c #257425",
"y. c #2B7522",
"u. c #277927",
"i. c #2E7C22",
"p. c #21752B",
"a. c #237C2D",
"s. c #287E29",
"d. c #367625",
"f. c #317E21",
"g. c #3C7D20",
"h. c #217E31",
"j. c #3D7736",
"k. c #446D1C",
"l. c #43741E",
"z. c #4A751F",
"x. c #45781F",
"c. c #4C781F",
"v. c #5D4035",
"b. c #6C4730",
"n. c #7E4D37",
"m. c #78553C",
"M. c #456C22",
"N. c #487323",
"B. c #447C20",
"V. c #4D7C20",
"C. c #507F21",
"Z. c #476237",
"A. c #1C2640",
"S. c #242C44",
"D. c #2C2F40",
"F. c #332F43",
"G. c #2D3242",
"H. c #2E3948",
"J. c #353643",
"K. c #383745",
"L. c #353944",
"P. c #393946",
"I. c #363749",
"U. c #393648",
"Y. c #363A4A",
"T. c #3B3B4A",
"R. c #3A3F51",
"E. c #413F4D",
"W. c #413D50",
"Q. c #3B4844",
"!. c #3C414C",
"~. c #3E4451",
"^. c #42424F",
"/. c #474B4E",
"(. c #4D5348",
"). c #434453",
"_. c #474656",
"`. c #454954",
"'. c #494A56",
"]. c #464A59",
"[. c #4A4C5C",
"{. c #465554",
"}. c #4C515D",
"|. c #52585A",
" X c #734E4A",
".X c #4B6148",
"XX c #527151",
"oX c #7D6347",
"OX c #4B4F61",
"+X c #4E5362",
"@X c #4D5960",
"#X c #535562",
"$X c #585C68",
"%X c #5B616B",
"&X c #646A75",
"*X c #884528",
"=X c #884B38",
"-X c #895939",
";X c #935333",
":X c #935439",
">X c #B06C3D",
",X c #885643",
"<X c #925B47",
"1X c #906347",
"2X c #B57748",
"3X c #2E8225",
"4X c #26812E",
"5X c #2A832A",
"6X c #2C892C",
"7X c #328322",
"8X c #3B8222",
"9X c #348823",
"0X c #3D8923",
"qX c #39862B",
"wX c #308A29",
"eX c #228432",
"rX c #248A35",
"tX c #298B30",
"yX c #269338",
"uX c #448322",
"iX c #4C8222",
"pX c #428923",
"aX c #4B8A23",
"sX c #528121",
"dX c #518222",
"fX c #508723",
"gX c #548623",
"hX c #558923",
"jX c #588B24",
"kX c #BF844D",
"lX c #BB8457",
"zX c #B78C63",
"xX c #CB8B57",
"cX c #C39365",
/* pixels */
"9Xi.s.a.w.w.eX7Xi.9X8Xc.V.V.V.f.,.9X9X7X,.7X9Xi.a.a.eXeX5Xf.7X3.V.V.V.c.8X,.7X9X9X,.7X9X3Xs.w.4Xh.6Xi.i.9X3.c.iXc.x.,.,.9X9X,.,.",
"9X9Xi.5XeXeXrXa.i.i.<.pX0X0X2.;.,.2.i.9X,.7X9X9Xi.eXw.rXeXs.7X,.0X0X0X7X;.,.3X<.9Xf.,.9X3Xi.4Xw.rXeX5X3X,.8XpX0X8X,.;.7X9X7X3X,.",
"fX8Xi.7X5X4XrXh.a.a.t.9X,.7Xf.,.2.0X0X3.3.aXpX2.i.3XeXeXeXh.s.t.i.>.i.3X,.,.8XpX3.<.iXaXg.,.3X4XeXeXw.5Xp.,.3X2.7Xi.,.<.pXpX2.uX",
"jXV.f.,.3Xi.s.5X5Xp.i.i.;.,.,.i.8XgXaXhXiXhXc.3.i.7X3Xu.s.3Xa.s.i.>.>.<.,.g.aXiXhXfXfXgX3.2.7X7Xs.s.5X4Xs.2.,.;.,.,.7XuXiXgXiXc.",
"hXdXV.3.7X7X9X7X0Xi.,.2.<.g.uXB.dXsXc.gXjXhXgXiXx.7X7X7X7XpX7Xy.f.2.8XiX3.aXV.dXC.hXgXgXdXx.2.7X7X3X8X8X,.,.2.2.uXuXx.dXdXiXdXjX",
"dXdXdXhXx.B.aXiXiXV.x.V.x.V.V.V.gXc.sXc.dXc.gXiXaXc.x.iXiXiXV.B.c.x.x.c.x.gXc.z.c.dXc.gXfXdXaXx.uXaXdXiXz.uXuXx.c.c.dXdXz.dXC.C.",
"1.B.<.3.3.g.B.V.V.dXV.C.V.dXV.z.sXz.dXc.z.k.3.3.3.3.3.pXiXc.fXc.c.iXdXz.z.dXdXz.c.c.l.3.x.3.x.3.uXx.c.iXdXz.dXc.dXc.c.c.z.aXz.z.",
"f.<.,.i.<.,.f.0X8XuXB.x.iXaXV.z.z.iX3.3.pX8X,.,.y.2.2.,.9X8XuXuXx.iXaXfXc.x.iXc.3.uXuX,.,.,.,.,.>.7X0X0XuXx.c.iXaXc.c.dXc.2.c.uX",
"7X,.7X7X9X,.,.7X9X9X7X<.2.f.g.g.8X7X7X9X>.7X7X3X7X7X7X>.9X7X9X7X2.2.2.8Xg.8X7X7X9X,.i.7X3X7X7X7X,.,.3X9X9X,.2.2.3.0X3.7X7X7X7X,.",
",.,.,.7X,.7X,.7Xf.f.>.9Xi.7X7X9X7X7X,.7X7X,.,.,.,.,.7X7X,.9X,.,.9Xf.i.9X9Xi.9X>.2.7X3X,.,.,.7X,.7X,.7X7X,.7X9X,.7X9X7X3X7X>.7X7X",
",.7X<.,.,.7X3X,.i.f.i.9X7X7X7X9X9X7X9X,.7X,.3X,.,.,.,.3X,.7X,.,.9X3Xi.9X9X9X7X7X,.3X,.,.<.7X,.,.7X,.,.9X,.9X3X3X9X9X9X7X3X7X,.7X",
"4Xi.3X,.7X7X,.f.7X7X7X9XwXi.wX3X3X5Xi.,.5X4X3X,.,.7X9X,.>.7X7X7X9X9X3X3X7X3X3X7X,.3XtX3X3Xi.i.9X7X,.,.7X7X7X9X3Xf.6X3X3X7X,.f.5X",
"eXeXu.3Xi.i.,.7X,.i.7Xi.p.tXa.eXeXq.s.4X4XeXrXq.3X3X,.>.3X,.,.7X7Xy.eX4X4XeXa.a.3XeXh.rXw.u.3Xi.,.,.7X,.7X7X>.4X4Xa.rXw.p.5X4XeX",
"eXrX4Xq.3Xy.9X7X,.,.,.f.6XeXh.4XrXw.w.4XyXeXrXeXa.3X,.9X3X3X,.,.,.3XrXa.eXrXeXw.h.tXrXrXeXeXq.3X7X7X7X,.,.,.7X6XeXeXeXrXp.4XeXyX",
"w.eXeXeXeXt.u.i.i.i.9Xi.9X3Xp.a.rXeXw.rXeXeXeXrXeXeXq.u.u.i.i.9X3X7X9Xu.a.eXeXeXeXeXeXeXeXeXeXa.t.t.i.>.7X3X7X3Xi.w.w.rXeXeXeXeX",
"eXeXrXw.eXh.h.eXw.p.a.i.7Xi.5X4Xw.eXeXw.eXeXeX4Xw.eX4Xw.4Xw.q.q.i.3X,.3Xa.h.eXw.eXh.eXeXeXeXh.eXw.eXh.q.q.5X7Xi.3X5Xa.eXw.4Xw.eX",
"w.eX4XeXeXeXw.eX6Xw.i.3X3X2.7X3X3Xh.rXw.eXw.w.eXw.rXeXeXeXa.3Xs.7X7X7X7X3X5X4XrXeXeXeXq.eXh.eX4Xw.w.eX6X3Xi.3X3X7X7X3XeXeXrXeXeX",
"eXw.w.w.a.w.w.5X>.9X9X9X,.3X9X9X3X6XtX4XrXeXeXw.4Xa.w.w.5Xi.7X9X9X2.,.3X,.3X6X6Xa.4XeXw.w.h.w.t.h.5Xi.3X3X9X7X,.7X,.7X3X6X4XeX4X",
"4X4Xs.7Xi.3X5X3X9X7X9X9X2.pX8X,.3X9X,.s.4X6Xa.a.,.,.i.6Xi.9X,.9X9X7XuX<.;.>.,.=.=.a.u.q.0.=.&.$.&.0.7X,.7X9X7Xg.0X,.,.9X3X>.4XtX",
"7X3X7X3Xu.i.,.7X2.,.9X3XuXjX2.,.9X,.9X9X6X3X3X9X9X3Xu.5Xy.t.;.>.d.-.*.t 0 0 0 t w 0 0 0 q 6 6 = 7 w $.=.d.9Xg.iXiX8X7X9X2.9X3X6X",
"7X3X3Xs.a.w.5Xi.7X9X7XiXC.aXuX2.9X7X9X9X9X,.7XwX5Xq.q.5.$.6 6 0 ] {.{.(._._././.T.T.} } E.) ) b o   = $.;.7XV.gXiX8X7X9X9X9X7X7X",
"9X,.a.q.w.4X4X7X,.7X8Xc.C.dXiX,.7X9X9X3X,.9X2.t.q.5.$.8 = $ $ B @.$X$X#X|.#X#X[.!.T.P.E._.J.K.J s - - : $.:.V.iXdXl.7X3X9X9X7X,.",
"9X9X7X4XeXeXrX4Xi.3X8XiXuXuX:.>.i.7X9X7Xd.qXqXe.$.C V ` !.^.!.I._.|.OX_.^.^.E.T.[ Q ^ ^ I.^ ~ ~ ~ Q J g V 6.N.uX3.<.>.,.7X7X7X,.",
"pX8X,.3Xw.rXrXw.5Xu.;.9X<.7X9X,.y.f.d.j.XXXXXX.XQ.!.~.}.+X|.[.T.).E.E.I.K.I.J.J.J.[ F.^ ~ J.` J.T.[ T J B K 7.e.9X2.>.,.0X9X,.2.",
"jXx.7X<.9Xf.a.4X4Xh.i.3X<.,.;.e.8.Z..X.X|.%X%X$X|.}.].].`.~.!.L.J.J.^ J.J.I.K.K.T.K.K.F.E [ E J.J.` ~ Z B B N 6.-.>.7X3.gXiXiXx.",
"aXiX3.2.7X7X3X7X7Xi.f.y.y.1.r.%.9.[.#X}.`.`.Q.).~.~.T.P.Y.L.Y.L.J.J.` J.K.I.K.K.P.J.J.[ T ^ E Q ~ ` ~ E B N g V 6.-.z.C.gXiXjXjX",
"hXiXhXfX3.3.0XaXiXz.3.3.x.8.9.Q.'.#X}.E.T.!.L.G.I.I.K.` ~ ` J.L.K.K.K.K.K.K.K.J.K.J.K.K.~ J.~ J.` G.G.~ R B B B K t 8.M.z.z.dXgX",
"k.iXl.iXx.uXiXc.c.fXz.*.6.Q.%X#X@X}.^.J.` !.H.G.L.L.L.J.G.L.J.K.J.I.K.K.J.K.L.K.T.P.L.L.J.J.~ [ D.G.G.G.~ Q J B g N I 6.*.N.z.z.",
"2.7X,.,.2.,.2.0Xx.3.*.t } +X%X[.Y.L.L.K.J.L.Y.Y.L.L.I.Y.Y.Y.J.J.J.L.K.K.J.L.T.P.I.L.T.I.K.J.~ Q ~ ~ ~ ` G.~ W Y J l g N K 6.k.V.",
"8X,.7X,.7X,.,.9X,.$.9 ] +X$X[.!.L.J.K.P.I.L.J.K.L.L.I.Y.T.L.L.` J.J.J.J.K.J.K.K.J.J.K.K.K.K.J.~ Q ~ ~ ~ D.Q Q R Y l l l g 9 6.y.",
",.3X,.7X7X7X,.,.&.9 } &X#X~.!.T.L.J.I.I.I.J.J.J.I.L.J.J.K.K.J.J.J.J.K.J.J.K.K.J.J.J.K.K.K.J.J.~ ! ~ ~ ~ ~ ! ! R Y Y B B g f C &.",
">.i.,.<.,.,.i.=.w K |.&X}.!.T.T.I.J.L.I.L.J.F.J.I.I.K.L.L.K.J.K.J.K.L.K.L.J.K.K.J.J.K.K.K.J.[ J.D.D.D.G.G.~ ! R Y Y B B B g f 6.",
"s.7Xf.f.7X7Xe.$.$ _ |.}.~.~.T.I.J.J.J.K.K.J.K.I.T.P.K.K.K.K.P.P.L.L.K.K.L.K.K.K.L.K.K.L.K.K.J.J.F.D.D.D.D.D.Q W W J Y Z l l f N ",
"eXeXy.f.y.y.$.9 - ! }.].~.!.L.I.J.[ J.K.K.K.J.J.K.K.K.L.L.K.J.[ K.K.K.K.K.K.K.K.[ K.K.K.K.K.K.I.K.J.G.D.G.D.Q R Y Y Y l l k f f ",
"eXeXh.h.7Xy.&.8 N T.[.~.H.L.L.K.J.J.[ K.J.J.J.K.I.I.P.I.P.L.^ Q ~ ^ K.K.K.K.K.K.I.K.L.K.K.K.L.I.I.H.G.D.J.` ~ W Y Y Y B l l g g ",
"rXrXeXh.p.$.7 = } }.`.H.! J.J.I.U.J.J.K.J.K.K.I.P.T.K.[ [ Q T n W ~ J.K.P.L.J.J.J.K.J.J.K.I.I.K.I.I.G.D.[ F.S.W Y Y Y B g k B k ",
"eXeXeXeXq.7 % E '.+X).T.T.L.L.K.K.L.J.J.L.I.{ J.[ ^ E J l g j g Y E J.U.P.L.J.J.L.L.J.K.K.I.U.J.I.F.D.~ D.D.D.! R Z Y B B B B B ",
"a.h.h.p.p.C ! ].#X_.`.~.P.} G.L.L.L.J.J.L.L.L.~ Y l d @ @ @ O O g J ` 9.L.} } T.} } L.L.K.K.U.E.I.I.J.^ [ ^ [ [ ! Y R R Z Z Z k ",
"eXa.eXh.0.Q._.#X'.T.T.P.` [ G.L.L.L.L.` [ ` ~ J h s O X X .     O : K ' ' H.} 9.} ' L.L.J.K.U.U.F.J.I.J.^ ~ ` J.` R R E E Z Z l ",
"4Xw.p.p.7.{.+X[.^.I.` J.J.L.L.L.L.L.L.` R Y l - O O X X X . . .   O f V ( 9.' ' } } I.L.K.I.U.J.J.J.[ [ ^ ~ ~ ` [ ~ R Y W S Z B ",
"7X5X7Xy.9.@X+X~.).E.[ I.K.{ } } } L.L.[ Y l * o X X X X X o o o     $ f K ( ( ' J.J.I.K.I.I.U.K.J.K.{ } [ [ E ` ~ ~ Y Y R ! ! Z ",
"7X3Xh.e.Q.#XOXR._.E.K.P.K.] J.' } L.L.[ R k o X X X o o o o % o . . o % f B K ` J.J.I.I.U.T.I.I.L.P.{ L.[ J.) E ~ ` R Y Y ! ! Z ",
"9Xi.t.4._.$X].R.E.W.L.J.{ ] I.L.} ` ` ( B * o X o o o o % % % + + @ + % u k Y Q F.J.I.I.P.L.J.L.P.L.} +.K.K.[ ` ` ~ R Y Z ! R Y ",
"9Xf.7.A +X$XOXU.U.K.J.} } P.T.I.L.' _ S & o X X o % % % % % & % * s * * s h b T Q D.J.I.L.L.L.J.} L.} L.K.J.[ ~ ~ ~ ~ ! W D ! S ",
"0Xy.C k ].#X[.R.F.J.I.[ [ T.K.K.J.` Y k $ X X o o % & % % % : * * s s h j j c c M T [ L.P.P.J.G.L.T.J.L.K.} ^ ~ ! ~ _ ~ ! S D D ",
"jXr.q f W._.W.R.G.G.T.K.[ K.[ J.J.! B & O O o o % % i i & & s f f u j l b x x n n n / ^ P.P.` ' } +.[ ' K.{ ^ ~ ~ ~ ` ~ ! ! D ! ",
"aXM.N ; [.[.W.U.J.J.L.L.} +.L.T.K.R f + X o o o o % % u p f s k g d ; n c 3 v m 4 H / T [ T.` ' L.J.L.L.T.[ J.L.J.Q ` ~ ! D D Z ",
"jXN.I d _.OXR.I.J.I.K.L.H.I.I.K.^ J & X . o o X o % % & s f s d 3 m 2 m 3 1 1 > 1 1 4 P ] I.~.Q.J.J.K.I.L.L.J.L.` ~ ` G.~ ~ W D ",
"V.M.9 d ~.+X~.U.J.J.I.} J.I.T.[ J - O X . X o + * * u s u d s # 4 m 1 +.@.o. .| 5 > 2 e E ' ' G } K.J.+.] L.L.L.J.` ` ` ~ ! ! ! ",
"d.e.N l ).].R.U.J.U.I.[ { I.K.R f O X X . X o + * u s s s y # 1 +.4 1  .| | , | < 5 5 2 U Q.Y.!.L.[ L.G.J.I.L.L.G.` ` ` ! _ _ ! ",
"7X=.K [ [.).T.Y.K.K.K.[ [ U.K.T *   X X X X o + * s d h y y 1 1 5  .< | | | O.b.n.m.v.e ] !.H.!.L.[ H.L.J.[ J.[ [ [ ` ` ~ ` _ ! ",
"d.&.C ).+X_.~.I.K.K.T.T.} L.{ c @   X X X O % % * - d c x y x , , 5 ..O.=X*X*X;X;X-X@.2 H ) Y.G.} J.L.] K.J.J.J.L.J.[ ` D.G._ R ",
">.&.V [.+X).T.J.K.K.E.L.J.P.T d o X X X . % * * @ s c x c c m  . ., @.<X,X-X*X;XlXlXb.e P P I.J.} T.P.] L.L.L.L.L.L.J.G.G.G.~ ! ",
",.&.V _.[.E.L.J.J.K.T.L.L.L.Y @ . . X . X + * * s d d c n n m  . .O.,X<X,X;X;X>XxXcXm.4 H _ H.I.J.{ J.J.L.J.J.L.I.L.G.G.G.G.G.~ ",
"4X4.K E.`.`.T.J.[ [ I.I.T.L.R $   . o o o & & $ # ; c c n n m  .|  .=X=X*X;X>XxXxXzXoX2 4 ~ H.Y.[ ) J.K.I.L.L.I.I.I.J.G.` ~ ~ ! ",
"eXC } '.}.].T.K.` J.I.I.L.` V $     o . . O * - - $ - c v v 3 5  ...=X=X1X>XxXxXlXzXoX2 # Z H.R.T.J.I.K.I.I.I.I.L.I.L.L.J.[ ~ E ",
"eXE ).#X`.!.L.L.L.P.U.T.L.R B s O O o     . * : u s d # c c x 5 @.,X<X<XzXzXcX2X;Xm.@.; H E S.S.L.P.P.K.P.L.J.L.L.I.K.L.T.I.[ Q ",
"eXQ ).].G.` ~ ` ` J.[ J.` R ` S S V f $ & = * * * # # 2 # # 1 5 m  X@.v.oXoXoX#.o.r e t [ G.A.A.~ [ [ [ [ [ ` [ ` ` J.J.J.G.` Q ",
"eXJ ^ J.Z Z Y Y Y R R Y Y R H.' ' ` ! K ! ! R J Y J J R n Y H T M m L r r e 4 e e U ] ) _ A A.S.E E R R R E W Y Y R ! ! Y Y B k ",
"w.l l b f B l g l B J Y R R ! E _ ` J.' ` J.L.L.J.J.P.P.T.T.T.P.W./ { ] U H r U K ( ] K Y D A.S.R Y Y Y Y B Y l l Z l l g f f - ",
"rXh - * * s f f f f l Y E E J J Y W Q ` ! R R R R R E ~ ! ` Y Y ` R Y ) S ( K K S V N B W S.W z Y Y J l g g f s s s s - s s s j ",
"3X* s * * s s s s s f g l b M Y R ! Y Y R Z B Y Y Y Y R R R Y Z _ ( R _ F G S S G F _ A k h h k f k s s - - - - - - - - s f f g ",
"i.@ s g s * : s s s s - * s l Y R ! Y Y R Z S S Z Y Y Y R Y Y Z Z A F A F A F G A z p k h h f s s s s - f g g f f j g f f s * * ",
"9X* * - : & : f : s s s s s - s f h f h s k k g s s f f a u u u u u a a a a a a a p h h s s - s s i : - s f : : s f f s * * * O "
};
