/* XPM */
static char *_375bf5a0f6a4ee9f54ba977596b0fcbkSe9deI2373S7wvO[] = {
/* columns rows colors chars-per-pixel */
"64 64 140 2 ",
"   c #2A6D1D",
".  c #326F1D",
"X  c #3D6F1D",
"o  c #2D751F",
"O  c #2E781F",
"+  c #34751E",
"@  c #3C751F",
"#  c #33781F",
"$  c #3D781F",
"%  c #1F752D",
"&  c #1F792F",
"*  c #266E21",
"=  c #257425",
"-  c #2A7622",
";  c #277927",
":  c #2E7C22",
">  c #21762B",
",  c #237C2D",
"<  c #287E29",
"1  c #317E21",
"2  c #3C7D20",
"3  c #217E31",
"4  c #436C1C",
"5  c #43741E",
"6  c #4A751F",
"7  c #45781F",
"8  c #4C781F",
"9  c #447C20",
"0  c #4D7C20",
"q  c #507F21",
"w  c #2E8225",
"e  c #26812E",
"r  c #2A832A",
"t  c #2C892C",
"y  c #328322",
"u  c #3B8121",
"i  c #398122",
"p  c #388323",
"a  c #398021",
"s  c #3C8021",
"d  c #3D8222",
"f  c #3B8422",
"g  c #3B8523",
"h  c #3B8723",
"j  c #3C8422",
"k  c #3F8422",
"l  c #3E8523",
"z  c #3C8623",
"x  c #3D8623",
"c  c #3B8322",
"v  c #348823",
"b  c #348923",
"n  c #358924",
"m  c #368924",
"M  c #348A24",
"N  c #3D8923",
"B  c #3E8823",
"V  c #3B8923",
"C  c #308A29",
"Z  c #238131",
"A  c #238230",
"S  c #218132",
"D  c #228232",
"F  c #228333",
"G  c #238432",
"H  c #238633",
"J  c #258430",
"K  c #248632",
"L  c #258732",
"P  c #238634",
"I  c #238734",
"U  c #228332",
"Y  c #248A35",
"T  c #298B30",
"R  c #288C32",
"E  c #269338",
"W  c #408021",
"Q  c #408222",
"!  c #458222",
"~  c #468222",
"^  c #418523",
"/  c #438522",
"(  c #408723",
")  c #458523",
"_  c #438322",
"`  c #4A8121",
"'  c #488322",
"]  c #4D8121",
"[  c #4E8021",
"{  c #4F8121",
"}  c #4C8222",
"|  c #4F8222",
" . c #4E8322",
".. c #488522",
"X. c #4E8523",
"o. c #4C8623",
"O. c #4B8322",
"+. c #408823",
"@. c #418823",
"#. c #428923",
"$. c #438A24",
"%. c #438923",
"&. c #4A8923",
"*. c #498924",
"=. c #4A8A24",
"-. c #4A8B24",
";. c #4E8B24",
":. c #498C24",
">. c #4E8E25",
",. c #4C8823",
"<. c #508021",
"1. c #518021",
"2. c #508121",
"3. c #518121",
"4. c #528121",
"5. c #508122",
"6. c #528122",
"7. c #508222",
"8. c #518222",
"9. c #508322",
"0. c #528222",
"q. c #528322",
"w. c #538322",
"e. c #518522",
"r. c #538422",
"t. c #508723",
"y. c #538723",
"u. c #548623",
"i. c #558623",
"p. c #548723",
"a. c #558723",
"s. c #528322",
"d. c #548923",
"f. c #568823",
"g. c #568924",
"h. c #558A24",
"j. c #578A24",
"k. c #558923",
"l. c #588B24",
"z. c #588C24",
/* pixels */
"b : < , & & L w O v u 8 0 0 0 1 O v v y o v v : , & 3 S t 1 1 a 0 0 ] 8 a O y b v o y v w < & e 3 T : O v $ 8  .8 9 O O v v O O ",
"m v : r F F I e : : # #.h B #   O 1 : v O y b y : J 3 Y Z < y o x h B a   o w # v 1 O m w : e & I H r w O a #.V d o   y v y w O ",
";.d : y r e P 3 e , = v o y 1 O o h B $ $ >.^ # : w F P S 3 < = 1 o : w O o a #.$ # ,.,.a O w e J S & r > O w O y : o # #.k # _ ",
"j.0 1 O w : < r r > : O   o O : d u.t.k. .u.0 2 O y w ; < w , < : o o # O a ,.9.k.4.t.u.$ # y y < < r e < # o   O O y ~ u.9.t.8 ",
"u.8.0 $ y y v a x : O # # 2 ) 9 8.q q 8.l.k.u.] 9 y 1 y y ^ 1 - 1 # a O.$  .q 4.q k.u.u.9.7 # y y w k a O O + # ~ _ 7 8.q ] 4.l.",
"8.8.8.k.7 9 :. . .0 7 0 7 0 8 0 t.8 q 8 q 8 u.4.t.` 9 O.O.8.0 9 0 7 7 8 7 u.8 8 8 4.8 u.t.4.,.7 ~ :.4.` 8 ~ ~ 7 8 8 8.8.8 q 4.q ",
"X 9 + $ @ 2 9 ` 0 w.0 q 0 8.0 8 8.8 9.8 6 4 $ $ $ $ $ _ ` 0 t.0 0 0 q 8 8 q q 8 ] 6 5 @ 7 $ 7 $ _ 7 8 9. .8 8.0 8.8 8 8 8 t.8 6 ",
"1 # O : # o 1 V d ^ 9 7  .&.0 6 8 ] $ $ / k O O o # # o m u ^ ~ 7  .&.t.8 7  .7 $ ~ ^ O O O O O O y V k ^ 7 8 O.,.8 8 8.7 # 7 _ ",
"v O y y v O o y b v y # # 1 2 2 a y y v o y y w y y y o y v v b # # # u 2 u y y v O : y w y y y O O w v v O # # a d $ p y y y o ",
"o O o y O y O y 1 O O v : y y v y y O y y O O O O O y y O y O O v : : v v : v O # y w o O O y O y O y y O y v O y v y w y O y y ",
"o y # O O y w O : 1 : v y y y b v y v O y O w O O O O w O y O O v w : v v v y y O w O O # y O O y O O v O v w y v v v y w y O y ",
"e : w O y y O 1 y y y b C : C w w w : O r e w : O y v O O y y y v v w w v w w y O w T w w : : v y O O y y y M w : t w w y O : t ",
"H S ; w : : O y o : v O > L , J S % < e e A I > w w O o y O o y y - L e e S & , w J 3 Y & : w : O O y o y y o e e , I & > r e S ",
"H I e % w O v y O O O 1 t J 3 J I 3 & J E I I I , r O b w w o O O w Y , S Y J & S Y Y Y I S > w y y y o O O y t S F I Y % e J E ",
"& H I H F = ; : : : v : v w > & H H 3 H S H H I S H > ; ; : : v w y v ; & F I F H S H S I J S , = ; : o y w y w : & & Y H S H H ",
"H S H & F 3 3 F & > , : y : r e 3 3 S 3 S H S J & S e & e & % > : w O w e & S & S 3 P S S F 3 S & S S % % r y : w r , S & J & S ",
"& S e S I S & H t , : w y # y w r S Y 3 S 3 & F & I S 3 S e r < y y y y w r e Y S S S % H 3 S J & & J t w : w w y y w S H Y S S ",
"I & & & , & & w - v v v O w y y w t T e H S F & e , & 3 r : y v v # O w O w t T e J S S & 3 3 , S r : w w v y O y O y w T e A e ",
"e e < y : w r w v 1 b b # k a O w M O < e t , , : : : t : v O v v y / a O y b O - T t e , : w O w ; v O v M y $ f O O v w o e T ",
"y w y w ; : O y 1 o b y ~ z.a O v O v v t y w v y w - w : w O y v $ k.%.# y y y v w v w w w w - w y w O # b a ] t.a y b # b w C ",
"v w w < , & < : y v y O.q t.) # v y m b v O y C r , e > : O y w #.8 k.] y y y b v y w y C w , e , ; y y y p ] u.] f y y v M y y ",
"v O , % & e J v O y a 8 q 4.` # y v b y O v # ; % % S & t y y a 7 q 4.4.$ y y b v : # y : > % & S t y y y 7 8 ] 4.7 y y v v y O ",
"v v y e S S I e : w a O._ _ . o O y y y o v M v , e 3 J e : w y ) ) %.$   O w O v y O M w : e & S e < O y a _ / $ + o O y y y O ",
"#.a O w , I Y & r ;   b # y v o o y y y # #.V O : r S Y F e : * y # y y O o y h y # N #.y w w , I J S r = O p y v # o O h b O # ",
"z.7 y # v : , e e 3 : w o O o # #  . . .8 l. .# y v w , , e e , y o o O o # &. . .7 u.k.$ O y C , , e , , : O o O O w s t. .` 7 ",
"t.] $ # y y w y y : 1 - o $ h #  .t.8.k.k.w.8.7 + # y w y h : : O   # ^ # ) 8.t.u.k.9.u.` $ # y y w p y : 1   o a a 7 ] u.4.l.l.",
"k.t.k.t.$ $ N &.O.5 $ 2 _ 7 8 8 u.8 8 q t.u.k.k.k.) $ B ^  .7 $ _ 7 7 8.8 8.8 8 8 4.f.f.9.u.O.$ _ B  .~ $ 7 $ 9 7 8 8.8.8 8 q u.",
"4 ` 5 ` 7 ~  .8 0 u.8 q 8 4.8 6 u.8 8.8 8 4 7 7 7 7 7 `  .8 k.8 8 8  .7 8 q q q 4.6 4 7 ` 7 7 7 `  .8 8. .0  .8 8.8 8 8.8 4.6 6 ",
"# 1 O O # O # B 9 O. .8  .t.] 6 8 8 7 9 ~ _ # O # O # # V d O.` 0 q  . .8 8 0 8 7 7 ..# # O # o # b ^ ~ ` 8 8.` t.8 8 8 8 _ 7 O.",
"a : y O y O o v v v # + $ h _ 7 _ #.# y 1 v O w : 1 O o y b b b + $ y _ 7 _ B a y a y y : v O # o O b y b # @ u h ~ 7 ^ x # y # ",
"o w O y y y O y v y O v O O a y O y : v o O : # y y y O 1 y y O y y O 1 v O w O y O w O y O y w y 1 y y O y v o O y O y y y v o ",
"o : O # O O y O : O v y w v w b v v # y 1 1 O O O O O y O w # O y y y y v v v y y O y O O O O O 1 O 1 1 O y y y v v v y v O O v ",
"< w y O y y O y y y O M v ; v C v w : : C < w w y O v O # y v O y m : y v v w y o w r w w : O v y O y w y O M y w v w v w O y C ",
"e e O w O O o y o y M # r e r J e > : w , F J ; w : O o w O o b y : e e e F > : w e e J > : w # o O y O y y y e e e e & ; w w S ",
"I H e & w y w y O O O y r H e J J & & J Y Y I J , w w v y O O O : < L F S P F > F Y Y Y J e , y y y O O O y O e H e J H % S H Y ",
"H Y I & e   : w O O w O C r % & Y Y S F J Y I Y & e - : O w o v : b v > 3 J I F F F P J Y F , , o : y O w O v C > & S Y J S H Y ",
"S S H S S & A e > = e y O v r & 3 S S S F J 3 F H S S & F > = , w y w : , & J 3 F S P 3 S J S S & & & > ; w O y w e & J & S S I ",
"& S S % H S & A T , = y v # w w & S I & , F & F & S F & S J e > : v O y w e 3 I S 3 F & F 3 3 F & S e T % < y y y w r , H F & S ",
"S e S S A & % r : y w v 1 w y : r e R J J F F 3 S J & & , : y v v O y y w w e Y J J 3 S 3 S J S & , < w v b y y y O : e T Y H S ",
"e & > < ; r e w y y b b O a 1 : v C : r Y L & > , : r e w v O y b w # y O v M w ; L L J & > ; : e r v O w m y # y O w v v ; e J ",
"w r y y o w y O : o b a 2 h.u O v w y y w w w w w O O w O y O y b $ t.%.O y v y y w w w C w y o w y y O : b 1  .;.# O v y y w w ",
"y w C w < , ; y : y v ^  .u.~ 1 v O b b v w w v w w , < O y y y B 7 k. .y v : b b y v w w w w , ; : # w y m 0 t.t.B y y y M w M ",
"b O r % & S , v y y 2  .0 8.0 1 v v v y O y # r % % S & C w y y  .q 4.4.# m v b v w : y : , % & & e v : y _ 0 8.4.7 w v w v y O ",
"m y w & S & H w : y u 0 ` ` 5 : O v w y O y b w e S & S t O y y 7 7 ,.5 # O # y v O # b w : F S S T : O v 9 ` O.8 @ O y b y y O ",
"h y w : & H I & < : o V y y #   O y y v O h V y w r S Y S , : o V y y V   o y y y O a V y : r , I H & w - 1 u a b O o # y y y # ",
"z._ O w C r S H Z , - y O y O y o ) ) 7 7 >...# O w r e F e , > y # O : O o d O._ $ k.t.a O w w r S e e , : 1 - O o O # ../ $ ~ ",
"t.8 2 O y y w w y < # O   # p # ~ u.w.z.t.4.8 _ O w y w w w r : O   o a # d t.u.k.u.4.w.7 # O y y w w r : 1 o   a 1 a ` f.u.z.4.",
"l.t.t.O.# # y d %.# # # # 7  .7 9.8 q 8 u.z.u.9.O.$ # h y O.$ + a # $  .~  .8 q 8 u.l.k.t.t._ # 1 y ~ u + 1 + # ` ` ] 4.8 q 8 f.",
"8 8.8 8.7 ] t.q ] 4.8 ] 8 8 8 8 u.8 q 0 8 6  .8  . .0 O.t.8 t.q 0 0 0 8 8 8.0 0 8.8 6 8  .8 t.7  .t.0 8.] 8  .8  .8 0 w.0 8.q 6 ",
"@ # # # + # d ) 8 t.8 q ] w.q 8 0 8  .8 0 5 $ 1 # @ # 2 ^ 7 t.8 0 q 8.q 0 8 0 0 0 8 8 # 1 # $ # 2 x 9 8. .8 4.8 8.8 7 0 8 0 8 8 ",
"y O # O O O o v y h $ $ ~ #. .7 0 ) 1 2 u y o O : O : o v b V h $ 9 ^ ) 8 9 O.2 1 d h O # O O O o 1 b h V $ 5 x ) ` 7 O._ # u u ",
"# O w v y y O y b y y y O O u # 1 y 1 v o : 1 y y # w O O y y y 1 1 # 1 2 1 1 y v O O : 1 y y v O O w v O y y o # u 1 a : y w o ",
"O O O O O w O y y O y b 1 v w v y y : 1 : : O o O y O w O y O O a w y y b y v : : : y O O O w O y O O y O w v y v y y y y O O v ",
"o v y O y y y O O y O m v : y v y y y : y : y w O O O y O y y O v v O v y b y y O y : : y : O # y w y y O y m : y v v w v O : v ",
"e r : : O y o y O y y y w r t r r : : w e J e : w w y o y O O b w w r r t e : w : r Z t : w O w o O y O y y w w r t e r : : w e ",
"I S > r y O O y O O w # , Y > F F > , e Y P Y > w : O y y O O y y : Y & 3 S 3 > e P S Y & r w : # y O O y y O e e % J S & e J Y ",
"F Y F % r : y y O O O O C e & F Y F 3 P Y Y Y Y & e : w w y o w o v T % S Y Y 3 S Y Y I Y S & w O y y O O o v t & S J Y S S H Y ",
"S F I J F > > , ; : C O v v , % S J S S S S 3 P J F > > , ; - w w w y w & , F 3 S S F 3 F F P S > , , ; : C O 1 w , & I S S H I ",
"S S F % F & F S S & > w y y w r 3 3 P & S P 3 P & S S 3 e 3 > % : v O : r , 3 S S 3 H S F 3 & F , S S , % , y y y w e & S H & S ",
"& S S S Y , & J w w w v y O y w e J Y J S 3 & S 3 P S & , r C : v : y y w r J Y J S S & H 3 F F & , e w w v y y O y w e Y Y S S ",
"Y & & , < , e w O y v v O y O y w t w e L I F % , < > F w : w v m O # y : y v r < I e J & , ; , S r w : v b v o y w w v t : J Y ",
"w e : v O w : : y O v v $ &.a O v v O : t w , w y : : w : y O v v y O.^ O y m : O t t < r : v o w : v O y b # ^ _ # O v w o r e ",
"O v w w : , : y O O v h 8 k.k O v : v v y v y y w w ; < : y O y b 7 k.] y w y v m w b y v w w ; w O w O O m 7 9.t.a O v w m v v ",
"v y t > 3 , = w v M a ,.4.t.7 y v v v v y w v t > & , < : y v y &.4.l.7 # v v v b v O y w , & e & ; y v v d t.t.4.$ v v v m v : "
};
