/* XPM */
static char *ecae8c478ecc4b8ac9bd7a483098332dGAfFiBZbVAv3OdL6[] = {
/* columns rows colors chars-per-pixel */
"64 64 196 2 ",
"   c #27311C",
".  c #0F6C00",
"X  c #126D02",
"o  c #0E7F03",
"O  c #137B08",
"+  c #1D7411",
"@  c #1E7C12",
"#  c #2A6D1D",
"$  c #386F1D",
"%  c #227C16",
"&  c #26761C",
"*  c #2D751F",
"=  c #2E781F",
"-  c #38751E",
";  c #33781F",
":  c #3D781F",
">  c #364D2C",
",  c #1F752D",
"<  c #1F792F",
"1  c #257425",
"2  c #2A7622",
"3  c #277926",
"4  c #2E7C22",
"5  c #21762B",
"6  c #237C2D",
"7  c #297E29",
"8  c #317E21",
"9  c #3C7D20",
"0  c #317D2E",
"q  c #217E31",
"w  c #377E35",
"e  c #436C1C",
"r  c #43741E",
"t  c #4A751F",
"y  c #45781F",
"u  c #4C781F",
"i  c #43532F",
"p  c #447C20",
"a  c #4D7C20",
"s  c #507F21",
"d  c #54693B",
"f  c #65754C",
"g  c #0D8202",
"h  c #138907",
"j  c #16840A",
"k  c #158A09",
"l  c #198D0D",
"z  c #1B900F",
"x  c #1A8211",
"c  c #1D8F12",
"v  c #1D9311",
"b  c #238316",
"n  c #24841C",
"m  c #268819",
"M  c #298D1C",
"N  c #219515",
"B  c #239916",
"V  c #259218",
"C  c #2C911E",
"Z  c #269D19",
"A  c #299E1B",
"S  c #2BA11D",
"D  c #2E8225",
"F  c #26812E",
"G  c #2A832A",
"H  c #2C892C",
"J  c #328322",
"K  c #3B8222",
"L  c #348823",
"P  c #3D8923",
"I  c #32822D",
"U  c #308A29",
"Y  c #2E9621",
"T  c #329525",
"R  c #339C25",
"E  c #37992B",
"W  c #228332",
"Q  c #248A35",
"!  c #298B30",
"~  c #348433",
"^  c #3B8D36",
"/  c #3C833C",
"(  c #269338",
")  c #3A9233",
"_  c #2EA520",
"`  c #33A425",
"'  c #33AA24",
"]  c #37A228",
"[  c #38A52A",
"{  c #36AB28",
"}  c #3CAB2D",
"|  c #3BB32C",
" . c #3FA433",
".. c #3EAE31",
"X. c #3FB430",
"o. c #3FB830",
"O. c #448322",
"+. c #4C8222",
"@. c #428923",
"#. c #4B8923",
"$. c #528422",
"%. c #558923",
"&. c #588B24",
"*. c #42963D",
"=. c #42A534",
"-. c #42AC35",
";. c #46A73C",
":. c #4AA63E",
">. c #45AC3B",
",. c #42B433",
"<. c #45BA35",
"1. c #48BD37",
"2. c #47B13B",
"3. c #4AB33D",
"4. c #4ABC3B",
"5. c #4CC43C",
"6. c #3E8640",
"7. c #428444",
"8. c #448946",
"9. c #4A864E",
"0. c #478A49",
"q. c #4B8D4E",
"w. c #449342",
"e. c #489644",
"r. c #499B47",
"t. c #4C934D",
"y. c #4D9B4B",
"u. c #56994F",
"i. c #4E8654",
"p. c #4E8A52",
"a. c #528C55",
"s. c #558D5A",
"d. c #4E9150",
"f. c #5A9657",
"g. c #5B945D",
"h. c #6B864C",
"j. c #619C5D",
"k. c #4AA543",
"l. c #4CAB44",
"z. c #4DA349",
"x. c #55A64B",
"c. c #4DB443",
"v. c #4DBC40",
"b. c #57B848",
"n. c #5FB851",
"m. c #68A95B",
"M. c #65BB57",
"N. c #5F9960",
"B. c #7D8E6B",
"V. c #629C62",
"C. c #69A668",
"Z. c #73AC6B",
"A. c #76B669",
"S. c #75AE72",
"D. c #7CB875",
"F. c #4FC440",
"G. c #53C343",
"H. c #59C54A",
"J. c #63C354",
"K. c #69C759",
"L. c #6CD05C",
"P. c #77C768",
"I. c #7AD36A",
"U. c #8DA96D",
"Y. c #82BD78",
"T. c #85C177",
"R. c #88C67C",
"E. c #8AC67D",
"W. c #99CF77",
"Q. c #87D677",
"!. c #8FB984",
"~. c #A3B894",
"^. c #8AC582",
"/. c #8EC982",
"(. c #92CD84",
"). c #94D385",
"_. c #94DA85",
"`. c #96D289",
"'. c #99D58C",
"]. c #97DA88",
"[. c #9CDB8D",
"{. c #9DD790",
"}. c #9FDB91",
"|. c #A7C495",
" X c #A2DD94",
".X c #98E188",
"XX c #A5E295",
"oX c #A7E298",
"OX c #AAE69B",
"+X c #AEE89E",
"@X c #B9CCA6",
"#X c #BBD4A2",
"$X c #C8FB8D",
"%X c #C5E79C",
"&X c #CBF796",
"*X c #C3E0A0",
/* pixels */
"L 4 7 6 < < W D = L K u u u a J * L L J * L L 4 6 5 W W H 4 J J u u a u 9 ; J L L = J L D 7 5 W q ! 8 4 L : u +.u y = = L L = = ",
"L L 4 G W W Q F 4 4 ; @.P P ; # 2 8 4 L = J L J 4 F q Q W 7 J * P P P 9 # * D ; L ; = L D 4 W 5 W Q G D * K @.P K = # J L J D = ",
"%.K 4 J G F W q F 6 1 L * J 8 = 2 P P p : %.@.8 4 D i.i.i.i.i.i.i.a.a.a.= * K @.: ; #.%.K = D F F W 5 G 5 = D ; J 4 * ; @.P ; O.",
"&.a 8 = D 3 G G G 5 4 = # * = 4 9 $.%.$.+.$.a i.i.p.p.y.z.z.l.z.z.y.q.i.i.i.#.+.%.$.$.$.: ; J J 7 7 G F 7 ; * # = = J O.$.$.$.u ",
"$.$.a 9 8 J L K P 4 = ; ; 9 @.p $.$.a s &.i.i.d.z.C.D.P.M.H.5.5.5.5.G.l.d.i.i.$.s %.$.%.$.t ; J D D O.: ; = ; ; O.O.u +.a +.$.&.",
"+.$.+.%.p p #.+.+.a y a y u u a @X|.B.!.s.p.z.b.T.#X~.U.#X!.H.5.5.5.F.5.v.z.i.i.a a u $.$.+.#.y O.#.+.+.u O.@.y u u $.$.u $.s s ",
"$ p - : : 9 p +.a $.a s u $.a #X&XU.> i.y.v.5.P.#X&Xd > &X*XT.5.5.F.5.5.5.5.y.i.i.t r : y : y : O.y u +.+.u +.u +.u u u u $.u t ",
"8 9 * 4 - * 8 K K O.p y $.#.a %X$XA.i.z.v.G.F.!.&X$Xi   $X%X|.G.5.5.5.5.G.G.v.q.i.i.P = = = = = 2 J P P O.y u +.+.u u +.y ; t O.",
"L = J J L = * J L L J ; ; 8 9 *XW.s.b.5.5.5.5.'.&X&Xi   OX&X|.F.5.5.F.5.5.5.5.l.a.a.4 J D J J J = = D L L = ; ; K K : K J J J * ",
"* = * J = J = J 8 * = L 4 J J ~.g.y.5.5.5.5.5.P.@X&Xh.d $X#XP.5.5.5.5.5.5.5.5.G.p.i.i.4 = = J = J = J J = J L = K L J D J * J J ",
"* J ; = = J D = 8 8 4 L J J J s.a.3.5.5.F.5.5.5.P.|.~.~.|.P.5.5.5.5.5.F.5.5.5.5.y.i.i.* ; J = = J = = L = L D J L L L J D J * J ",
"F 4 D = J J = 8 J J J L U 4 U i.z.5.5.5.5.5.5.5.5.H.J.K.H.F.G.K.I.I.G.5.5.5.5.5.l.i.i.D D 4 4 L J = = J J J L D 4 H D D J = 4 H ",
"W W 3 D 4 4 = J * 4 L = 5 W 6 a.c.5.5.5.5.H.5.5.5.5.5.5.5.L.Q.OX+X+XM.4.5.5.5.5.c.i.i.Q , 4 4 4 = = J * J J * F F < Q < , G F W ",
"Q W F , D = L J = = = ; H W i.q.F.5.5.5.5.5.5.5.5.5.5.G.Q.OX+X+X+XoXm.k.5.5.5.5.c.a.a.Q Q W 5 G J J J * = = J H W W W Q , G F ( ",
", Q Q W W 1 3 4 4 4 L 4 L D a.a.v.5.5.5.5.5.5.5.5.5.Q..X+X+X+X+X XZ.a.x.4.5.5.5.c.i.i.W Q W q 6 1 3 4 * D D D D 4 < < Q W W W Q ",
"Q W W < W q q W < 5 6 4 J 4 G p.v.5.5.5.5.5.5.H.L.Q.OX+X+X+X+X'.C.p.f.x.5.5.5.5.z.i.i.W q W q W < W W , , D J 4 D G < W < F < W ",
", W F W W W < W H 6 4 G J ; J p.y.5.5.5.5.G.L._.OX+X+X+X+X XT.s.i.f.C.M.5.5.5.G.p.i.i.5 W q W W < < F H D = D D J J D W W Q W W ",
"Q < < < 6 < < D * L L L = D J J i.z.H.L.Q..X+X+X+X+XOX XT.V.p.i.j.Z.A.4.5.5.5.l.p.p.W W 6 q q 6 W G = G D L J = J = J D H F W F ",
"6 F 7 J 4 D G D L J L L ; K K = i.p.V.D.{.}. X'.].^.Z.g.i.i.i.V.A.A.M.5.5.5.5.t.i.i.H 6 6 4 D = D 3 L = L L J : K = = L D 2 F H ",
"J D D D 3 4 = J ; ; L J O.&.: = L = f p.s.f.g.V.i.i.i.i.i.i.V.D.Y.P.4.5.5.5.z.i.i.D L D D D D 2 D J D = ; L K +.%.J J L ; L D H ",
"L D D 7 6 < 7 4 J L J O.s $.O.= L J L L L ; i.i.G 6 W 5 i.V.T.T.P.4.5.5.5.c.p.p.p.J D J U D 6 F 6 3 J J J K u %.+.K J J L L J J ",
"L = 6 , < F W L = J K t s $.+.= J L L J 2 L ; 3 , 5 W i.V.E./.Q.H.5.5.5.3.t.i.i.L 4 ; J 4 5 , < W H J J D y u +.+.y J J L L J = ",
"L L J F W W Q F = D K +.O.O.$ * = J J J * J L L 6 F i.V.E.(.E.J.5.5.5.4.y.i.i.= L J = L D 4 F < W F 7 = J K O.O.y = * = J J J = ",
"@.K * D 6 W Q < G 3 # L ; J L * * J J J ; @.P 4 4 i.g.E._.).J.5.5.5.5.z.a.a.J P J ; P @.J D D 6 W W W G 3 * J J L ; = = K L = ; ",
"%.y J ; L 4 6 F F < 4 D * = * ; ; +.+.+.u &.$.; i.N.E.'.'.P.1.5.4.5.z.a.p.a.+.+.+.t $.&.: = K U 6 6 F 6 6 = = = ; * J K $.+.+.y ",
"$.+.: ; J K D J J 4 ; 3 * : P ; +.%.$.&.%.$.$.y s.T.'.'.I.5.5.5.5.l.i.i.i.@.$.#.$.%.%.$.u : ; n J G K K 4 D # = : K y +.$.$.&.&.",
"%.+.%.#.: : P #.+.r : K O.y u u $.u u +.$.$.%.a.D.}.}.Q.F.5.5.1.c.i.i.i.u $.u u u $.%.%.$.%.+.: O.P +.@.: y : y y u $.+.u u $.$.",
"e +.r +.y O.+.u u %.u +.u +.u t $.u $.u u e i.S. X X_.H.1.1.4.4.y.i.i.t u s s s +.t e u +.y y y +.+.u $.+.u +.u +.u u $.u $.t u ",
"; 8 = = ; = ; P y +.+.u +.%.+.t u u y p O.i.V.{.oX XK.4.1.5.1.y.i.i.+.+.u u u u y y O.; ; = ; = ; L O.O.+.t $.+.#.u u u u O.y +.",
"K 4 J = J = * L L L ; ; : K O.y O.@.; J 8 a.^.oX XI.4.1.1.1.k.p.p.: L O.y O.P K J J J J 4 L = ; * * L J L ; : : P O.y O.K ; J ; ",
"* D = J J J = J L J = L = = K J ; J 4 L i.S.oXoX].G.1.1.1.3.p.i.i.J * ; L * D * J = D = J = J D J J J J = J L * * J * J J J L * ",
"* 4 = ; = = J = 4 = L J D L D L L L ; J g.'.oXoXK.4.1.1.2.t.p.p.p.p.i.q.a.q.a.i.i.i.i.i.i.= = = ; = = J = J J J L L L J L ; * L ",
"7 D J * J J = J J J 4 L L 3 L U L D 4 i.S.OX+XW.1.<.<.<.r.p.:.:.2.2.3.>.>.>.l.:.k.r.y.d.p.i.i.i.i.* J D J = L J D L D L D = J U ",
"F F = D = = * J * J L ; G F G F F , 4 s.`.OXoXK.<.,.,.3.p.r.,.<.<.<.<.1.<.<.,.1.<.<.,.2.>.:.y.q.9.i.a.a.J J J F F F 6 6 3 D D W ",
"Q W F < D J D J = = = J G W F W W 6 i.V.XXOX.X4.,.,.,.e.p.2.,.<.,.<.,.<.,.,.,.,.,.<.,.1.<.,.,.2.;.y.i.i.i.J = F W F W Q , W W Q ",
"W Q Q < F # = G = = D = U G , < Q Q i.Y.OXOXQ.,.,.,.2.d.y.3.3.3.b.M.M.K.K.J.J.n.v.3.,.,.,.,.,.,.,.,.>.r.i.i.i.U 5 < W Q W W W Q ",
"W W W W W < W F 5 1 F J = L G < q i.i./.+XOXJ.,.,.,.-.p.u.m.A.Y.Y.E.(.`.'.'.[.[.[.].Q.T.H.4.,.,.,.,.,.,.*.q.i.i.D F < F < W W W ",
"< W q , W W < F ! 6 1 J J ; D D i.d.a.'.+X X3.-.,.-.;.p.j.m.A.A.T.E.E.'.'.[. X XXXoXoXOX+X].P.3.} ,.} ,.,.:.9.i.i.D G 6 W W < W ",
"W F W W W , 6 G 4 J D L 8 D J p.z.l.s.[.+X.X,.,.,.=.=.p.u.m.A.Y.Y.E.(.`.'.[. X XXXoXoXOXOX+XOX[.J.,.,.,.} -.:.9.9.= 4 F ! Q W W ",
"F < , 3 3 G F D J J L L 4 K i.z.<.X.a.}.+XW.,.-.` =.=.q.f.m.A.D.T.E.E.(.).'.'. XXXoXOXOXOXOXOXOX XM.[ } } } =.q.a.a.D L L 3 F W ",
"G G J J * D J = 4 * L K : p.d.4.| ` t.'.+X].o.[ [ [ [ t.a.f.j.V.f.V.f.m.N.N.N.g.C.S.^.[.+X+X+XOX+X].,.[ [ [ [ w.i.i.= L J J D D ",
"J D H D G 5 3 J 4 J L O.i.i.z.,.{ A 8./.+X}.>.[ [ [ [ *.i.a.w 0 I = & & & & 1 3 0 w 9.V.Y.OXOXOX+XQ...[ [ [ [ w.i.i.i.J J L D L ",
"L * D , < F 6 L J J : i.i.p.>.| A v ~ D.OXXXc.] [ ] ] ] *.9.w + X . . . . . . . X . O 2 i.^.+XOX_.c.E [ ] ] ] *.p.i.i.i.D L J 4 ",
"L J D < W < Q D 4 J K a.p.p.| { Z v m N.XX+XM.R ] R R R E *.i.i.7.w 3 & % + + + + + & 0 9.D.[.P.=.R R R R R ` w.p.r.i.i.L J J = ",
"K J D D < W W < 7 3 i.d.y.t.X._ Z v k / /.+X).] T R R R R R E ^ e.i.f i.i.9.9.9.9.i.i.9.t.x.=.R R R R R R R T w.t.} a.i.i.J J ; ",
"&.O.= D H G W Q W 6 q.c.z.t.X._ v l h D V. XOXb.C R T T C T T Y C T T E ) ^ ^ ^ ) ) E E Y T Y Y Y Y Y T R C T 0.w.| y.i.i.O.: O.",
"%.u : = J J D D K i.q.5.z.a..._ B l h h ~ S.OX`.R M Y M M C C C C C Y Y Y M C C M C T C M C C C C C C C M C ^ a.[ ,.k.i.i.$.&.$.",
"&.#.+.+.; ; J K @.i.z.5.m.a..._ Z v k g x 8.D.oXP.M M M M M M M M M c D c D M M M M m M M M M M M M M M V D 9.^ ' ,.l.i.i.$.u $.",
"u $.t $.y u %.+.+.a.c.b.A.s.:.' A v l g g x 0.S.}.n.G m m m m m m m m m m m m m m m m m m m m m m m m m D 0.0.` { o.l.p.p.+.$.t ",
": ; ; ; ; ; K O.u p.c.H.T.V.r.| _ Z v k g g x 6.V.P.x.n b b b x b b b b b b b b b b b b b b b b n x n ~ 9.0.Y _ | 5.z.i.i.a u u ",
"J = ; * = = * L J t.4.K.E.Y.d.2.' A v v k g g g I i.V.e.G % @ @ @ @ % @ x @ @ @ @ @ % @ @ @ % % @ ~ 8.i.*.C S { 1.v.d.i.i.; 9 K ",
"; = D L J J = J L p.4.H.).'.C.y.X.' A v l k g g o O ~ 7.i.7./ I & @ @ @ + + + @ + @ % % % 3 7 / i.0.w.D V Z ' <.5.l.i.i.4 J D * ",
"= = = = = D = J J p.c.G.).[.D.p.l.| ' A v z k j g g o O D ~ 7.i.9.9.7.7.7./ / 7.~ 7.7.9.9.i.i.6.~ G c N S ' | 5.c.t.i.i.J = = L ",
"* L J = J J J = 2 i.k.1.Q.oX/.s.p.l.,.' S B v k h k g g o g o @ D H ~ / / / / 7.7./ ~ ~ D n x k l v B S ' <.5.c.p.p.p.D L * 4 L ",
"G G 4 4 = J * J = i.r.1.J.}. XZ.i.p.k.<.| _ S B c k k g h k j x x x j + O O o g g g g g g h l v v S ' | <.5.l.p.i.i.F G 4 4 D F ",
"W W , G J = = J = i.p.3.1.I.oX'.g.i.i.t.l.1.| S Z N A =.l.T M m b x j j O O O O h h h l v N Z A ' | <.5.2.y.i.i.i.5 W W < F F Q ",
"W Q W < G = J J = = i.r.1.1.P.XX`.C.s.p.p.t.l.v.H.P.P.n.E V V v c l l l h z l j l v B Z S _ { | 1.4.b.y.i.i.i.H < W W Q W q W Q ",
"W W W F W 5 < < 3 4 U p.k.1.1.b.I.].`.^.D.!./.Q.P.n.E E { ' ' _ S S Z S A A S A V _ ' | o.o.>.c.z.q.i.p.i.H = J D 6 < W W W W Q ",
"q W W , W < W W W < 5 i.p.>.<.| -.2.v.n.n.b.v.=.R ^ 0.t.y.k.;.>.,...| -.o.} -.,. . .l.z.y.d.p.a.i.i.i.5 5 6 J J J G G < W W < W ",
"< q W W Q F < F D D D J i.p.k.-.X.} } [ { E ) w.i.i.i.i.i.i.p.p.p.p.q.t.p.t.p.p.i.i.i.i.i.i.i.Q 6 6 F D D L J J 2 K G 7 Q Q q W ",
"Q < < < 7 6 F D = J L L = i.i.q.e.e.e.w.0.p.a.i.i.i.5 W D 4 D L L i.i.i.p.p.L G 7 Q F F < 6 3 6 q G D 4 L L L * J D D L H 4 F Q ",
"G F 4 L = D 4 = J = L L : #.J i.i.i.i.i.p.p.p.D L 4 4 D 4 J = L L J +.O.= J L 4 = H H 7 G 4 L * D 4 J 4 J L ; O.O.; = L G * G F ",
"= L G D 4 6 4 J = = L K u %.O.= L 4 L L J L J J D D 3 7 4 J = J L p %.+.J D J L P D L J L D D 3 D = D = = L y +.+.K = L D L L L ",
"L J H 5 W 6 1 D L L K %.+.+.y J L L L L J D J H 5 6 5 7 4 J L J +.$.&.y ; L L L L L 2 J D 6 < F < 3 J L L K %.$.$.: L L L L L 4 "
};
