/* XPM */
static char *_7a08ded197a4aaab70ee5e902d91f2a27gT8CuySrIdAchb[] = {
/* columns rows colors chars-per-pixel */
"64 64 199 2 ",
"   c None",
".  c #27311C",
"X  c #0F6C00",
"o  c #126D02",
"O  c #0E7F03",
"+  c #137C08",
"@  c #157808",
"#  c #1D7411",
"$  c #1E7C12",
"%  c #217C15",
"&  c #26761D",
"*  c #247C1A",
"=  c #237619",
"-  c #364D2C",
";  c #2B7924",
":  c #2E7C29",
">  c #277920",
",  c #317D2E",
"<  c #377E35",
"1  c #41512E",
"2  c #445530",
"3  c #54693B",
"4  c #65754C",
"5  c #0D8202",
"6  c #118506",
"7  c #15830A",
"8  c #1A830E",
"9  c #158A09",
"0  c #198D0D",
"q  c #138907",
"w  c #1B900F",
"e  c #1A8211",
"r  c #1D8F12",
"t  c #1D9311",
"y  c #238316",
"u  c #24841C",
"i  c #268819",
"p  c #298D1C",
"a  c #219515",
"s  c #239916",
"d  c #2C911E",
"f  c #269D19",
"g  c #299E1B",
"h  c #259218",
"j  c #2BA11D",
"k  c #2C8527",
"l  c #2E9621",
"z  c #329525",
"x  c #339C25",
"c  c #35932B",
"v  c #379A2A",
"b  c #399D2B",
"n  c #348433",
"m  c #3B8E36",
"M  c #3C833C",
"N  c #388937",
"B  c #3A9233",
"V  c #3C9A33",
"C  c #32822D",
"Z  c #2EA520",
"A  c #33A425",
"S  c #33AA24",
"D  c #37A228",
"F  c #38A52A",
"G  c #3CAB2D",
"H  c #36AB28",
"J  c #3BB32C",
"K  c #3FA433",
"L  c #3EAE31",
"P  c #3FB430",
"I  c #3FB830",
"U  c #42933D",
"Y  c #439A3D",
"T  c #42A534",
"R  c #42AC35",
"E  c #45A43C",
"W  c #45AC3B",
"Q  c #49AC3D",
"!  c #4AA63E",
"~  c #42B433",
"^  c #45BA35",
"/  c #47B13B",
"(  c #4AB33D",
")  c #4ABC3B",
"_  c #48BD37",
"`  c #4CC43C",
"'  c #3E8440",
"]  c #3F8840",
"[  c #428444",
"{  c #438C44",
"}  c #468549",
"|  c #4A864E",
" . c #478A49",
".. c #4B8D4E",
"X. c #449342",
"o. c #499B47",
"O. c #4C934D",
"+. c #4D9B4B",
"@. c #489644",
"#. c #4E8654",
"$. c #4E8A52",
"%. c #528C55",
"&. c #558D5A",
"*. c #4E9150",
"=. c #549155",
"-. c #5D9A55",
";. c #569159",
":. c #5B945D",
">. c #5D995C",
",. c #56994F",
"<. c #619C5D",
"1. c #6B864C",
"2. c #4AA543",
"3. c #4CAB44",
"4. c #4DA349",
"5. c #4AA445",
"6. c #53A34A",
"7. c #5AAB4D",
"8. c #4DB443",
"9. c #4DBC40",
"0. c #53B344",
"q. c #53BA44",
"w. c #5CB34D",
"e. c #5BBC4C",
"r. c #5FB851",
"t. c #6BA95E",
"y. c #63A958",
"u. c #65BB57",
"i. c #5F9960",
"p. c #629C62",
"a. c #7D8E6B",
"s. c #69A668",
"d. c #71AB6E",
"f. c #76AE66",
"g. c #6CBF61",
"h. c #73B265",
"j. c #7BBA6E",
"k. c #75B969",
"l. c #75AE72",
"z. c #7DBB73",
"x. c #7AB476",
"c. c #4FC440",
"v. c #53C343",
"b. c #5BC34C",
"n. c #58C649",
"m. c #63C354",
"M. c #6AC25A",
"N. c #6BC95B",
"B. c #66C957",
"V. c #6CD05C",
"C. c #73C464",
"Z. c #74CD64",
"A. c #7ACC6A",
"S. c #7CC46E",
"D. c #7CD36C",
"F. c #77D367",
"G. c #82BD7C",
"H. c #82BD76",
"J. c #8DA96D",
"K. c #85C177",
"L. c #85C17D",
"P. c #8AC67D",
"I. c #8CCA7E",
"U. c #84C875",
"Y. c #87D677",
"T. c #99CF77",
"R. c #8FAF85",
"E. c #96BB88",
"W. c #89BD80",
"Q. c #A3B894",
"!. c #8AC582",
"~. c #8EC982",
"^. c #92CD84",
"/. c #94D385",
"(. c #94DA85",
"). c #96D289",
"_. c #99D58C",
"`. c #9CDB8D",
"'. c #97DA88",
"]. c #9FDB91",
"[. c #9DD790",
"{. c #96CB89",
"}. c #A7C495",
"|. c #A2DD94",
" X c #98E188",
".X c #A5E295",
"XX c #A7E298",
"oX c #AAE69B",
"OX c #AEE89E",
"+X c #B9CCA6",
"@X c #BAD3A2",
"#X c #BFD9A2",
"$X c #CAFD8E",
"%X c #C1F288",
"&X c #C5E79C",
"*X c #CAF596",
"=X c #CDFC94",
"-X c #CDF898",
";X c #C3E0A0",
/* pixels */
"                                                                                                                                ",
"                                                                                                                                ",
"                                                #.#.#.#.#.#.#.$.%.                                                              ",
"                                          #.#.$.$.+.4.4.3.4.4.+.$.#.#.                                                          ",
"                                      #.#.*.4.s.x.S.u.v.` ` ` ` c.3.*.#.                                                        ",
"                            +X}.a.R.&.$.4.q.L.@XQ.J.@XE.n.` ` ` c.c.9.4.#.                                                      ",
"                          @X=XJ.- #.+.9.` S.#X=X3 - *X;XK.` ` c.` ` c.` +.#.                                                    ",
"                          &X$Xf.#.4.9.c.c.E.*X$X1 . %X*X}.v.` ` ` ` c.c.9.*.#.                                                  ",
"                          ;XT.&.q.` ` ` ` _.*X$X2 . OX*X}.v.` ` c.` ` ` ` 3.%.                                                  ",
"                          Q.:.+.` c.` ` ` C.+X-X1.3 $X@XC.` ` ` ` ` ` c.` v.$.#.                                                ",
"                          &.%.( ` ` c.` ` ` C.}.Q.Q.}.S.c.` ` ` ` c.` ` ` ` +.#.                                                ",
"                          #.6.` ` ` ` ` ` ` ` n.m.M.n.` c.B.D.F.v.` ` ` ` ` 3.#.                                                ",
"                          $.8.` ` ` ` n.` ` ` ` ` ` ` V.Y.oXOXOXu.) ` ` ` ` 8.#.                                                ",
"                        #.$.c.` ` ` ` ` ` ` ` ` ` n.Y.oXOXOXOXXXy.2.` ` ` ` 8.%.                                                ",
"                        $.%.9.` ` ` ` ` ` ` ` ` Y. XOXOXOXOX|.d.%.6.) ` ` ` 8.#.                                                ",
"                          $.9.` ` ` ` ` ` n.V.Y.oXOXOXOXOX_.s.#.-.7.` ` ` ` 4.#.                                                ",
"                          #.+.c.` ` c.c.V.(.oXOXOXOXOX|.G.&.#.:.t.u.` ` ` c.*.#.                                                ",
"                            #.4.b.V.Y. XOXOXOXOXoX|.L.p.$.#.>.f.h.q.` ` ` 3.$.                                                  ",
"                            #.$.i.z.[.].].[.'.!.d.:.#.#.#.<.j.j.u.` ` ` ` *.#.                                                  ",
"                                4 $.&.;.i.i.#.$.#.#.#.#.p.z.H.g.) ` ` ` 4.#.                                                    ",
"                                        #.          #.p.K.L.S.9.` ` ` 8.$.$.                                                    ",
"                                                  #.p.P.I.U.n.` ` ` ( O.#.                                                      ",
"                                                #.p.P.^.I.m.` ` ` ) +.#.                                                        ",
"                                              #.i.P.(./.B.` ` ` ` 4.%.                                                          ",
"                                            #.:.P._._.Z._ ` _ ` 4.%.$.                                                          ",
"                                            &.L.`._.A.` ` ` ` 3.#.#.                                                            ",
"                                          %.x.].].Y.c.` ` _ 8.$.#.                                                              ",
"                                        #.l.|.|.(.n._ _ ) ) +.#.                                                                ",
"                                      #.p.[.XX|.N._ _ ` _ +.#.                                                                  ",
"                                      %.!.XX|.D.) _ _ _ 2.$.                                                                    ",
"                                    #.l.XXXX'.v._ _ _ ( $.#.                                                                    ",
"                                    :._.XXXXN._ _ _ / O.$.$.$.$.$.$.$.$.$.#.#.#.#.#.                                            ",
"                                  #.l.oXoXT._ ^ ^ ^ o.$.! Q / / ( W W W 3.! 5.o.+.*.$.#.#.#.                                    ",
"                                  %.).oXXXN.^ ~ ~ / $.o.~ ^ ^ ^ ^ _ ^ ^ ~ _ ^ ^ ~ / Q ! +...| #.%.                              ",
"                                #.p..XoX X) ~ ~ ~ o.$.W ~ ^ ~ ~ ~ ^ ~ ~ ~ ~ P ^ ~ ^ ~ ~ ~ / E +.#.#.                            ",
"                                #.G.oXoXY.~ ~ ~ / *.+.( ( 0.e.u.u.M.M.m.m.e.q.( ~ ~ ~ ~ ~ ~ ~ ~ W o.#.#.                        ",
"                              #.#.~.OXoXm.~ ~ ~ R $.,.y.h.j.H.P.^.)._._.`.].`.'.Y.U.b.) ~ ~ ~ ~ ~ ~ Y ..#.                      ",
"                            #.*.%._.oX|.( R ~ R E $.<.t.h.j.K.P.I._._.`.]..X.XXXXXoXoX'.A.( G ~ G ~ ~ E | #.                    ",
"                          $.4.3.;.`.OX`./ ~ ~ G T $.-.t.h.H.H.P.^.)._.`.|.|..XXXXXoXoXOXoX`.m.~ ~ ~ G R ! |                     ",
"                        #.4.^ L =.].OX(.~ G F T T ..-.t.h.z.K.P.I.^./._._.]..XXXoXoXoXoXoXoX.Xu.F G G G T ..%.                  ",
"                      #.*.) J A O._.OX'.P F F F F ..=.-.<.p.>.p.<.<.:.i.i.i.s.l.!.[.oXoXOXoXOX'.~ F F F F @.#.                  ",
"                    #.#.4.~ H g { ~.OX].W F F F F Y #.#.< , : > & & & & > ; , < | i.W.oXoXoXOXY.L F F F F X.#.#.                ",
"                  #.#.$.W J g t n x.oX.X0.A F D D D X.| < # o X X X X X X X o o @ ; #.!.OXOX(.8.b D D D D U $.#.#.              ",
"                  $.$.$.P H f t i i..XOXu.x D x x x b U #.#.[ < ; & = # # # # # & : | z.].C.T x x x x x A X.$.o.#.              ",
"                #.*.+.O.P Z f w 9 M ~.OX/.D z x x x x x v m @.| 4 | #.| | | | #.#.| O.7.K x x x x x x x z { O.L $.#.            ",
"                $.8.4.O.P Z t w q k p.|.oXw.d x l z d z z l l z c c B B m m B B c c l l l l l l l z x d z  .X.J +.#.            ",
"              #.*.` 6.$.L Z s 0 q 6 n l.oX/.v d l p p d d d d d l l l p d d d d l l p d d d d d d d p d m $.F I 2.#.            ",
"              #.4.c.y.%.L Z f t 9 5 8 { x.oXC.p p p p p p p p p r k r k p p p p i p p p p p p p p p h k | ] S I 3.#.            ",
"              %.8.q.k.&.! S g t 0 5 5 e  .l.].r.k i i i i i i i i i i i i i i i i i i i i i i i i i k  . .A H I 3.$.            ",
"              $.8.b.K.p.o.J Z f t q 5 5 e ' p.S.6.u y y y e y y y y y y y y y y y y y y y y u e u n |  .l Z J ` 4.#.            ",
"              *.) B.~.H.*./ S g a w q 5 5 5 C $.p.@.k % $ $ $ $ % $ e $ $ $ $ $ % $ $ $ $ % $ n { #.U d j H _ 9.*.#.            ",
"              $.) b./.).s.+.P S g t w q 5 5 O + n } #.} M C > $ $ $ # # # $ # $ $ % * ; , M |  .{ k h f S I ` 3.#.              ",
"              $.8.v./.].x.$.3.J S g t w 9 6 5 5 O + k n [ #.| | [ [ [ M M [ < [ [ } | #.#.] N k r a j S P ` 8.*.#.              ",
"              #.2._ Y..X~.&.$.3.~ S Z s t 9 6 q 5 5 O O O $ k k n M M M ' ' [ M n n k u e 9 0 t s j S ^ ` 8.$.$.                ",
"              #.o._ m.].|.d.#.$.5.^ J Z j s w 9 q 5 6 9 7 8 e 8 8 # @ + O 5 5 5 5 5 5 q 0 t t g S J ^ ` 3.$.#.                  ",
"              #.$.( _ F.XX_.:.#.#.O.3.^ J j g s g T 3.z p i y e 7 7 + + + + q q 9 0 w a f g S J ^ ` ( +.#.#.                    ",
"                #.o.^ _ Z..X).s.&.$.$.*.3.9.b.C.A.w.v h h t r 0 0 0 9 w 0 8 0 a s f j Z H J _ ) 0.+.#.#.                        ",
"                  $.2._ ^ e.D.'./.!.z.W.~.Y.A.w.b b H S S Z j j f j g g j f h Z S J I I / 8.4.*.#.#.                            ",
"                  #.$.W ~ P R / q.r.r.e.8.K v m  .O.+.2.E W ~ L J L P L L ~ K K 3.4.+.*.$.%.#.#.                                ",
"                    #.$.2.R P G H F F b B X.#.#.#.#.#.#.$.$.$.$...*.$.O.$.$.#.#.#.#.#.#.                                        ",
"                      #.#...@.@.@.X. .$.%.#.#.                #.#.#.$.                                                          ",
"                          #.#.#.#.#.$.$.                                                                                        ",
"                                                                                                                                ",
"                                                                                                                                "
};
