/* XPM */
static char *fb4ef2081cc046b2888195f3217daf31rBrJsovIhRxjLcRm[] = {
/* columns rows colors chars-per-pixel */
"64 64 220 2 ",
"   c #2B1D1C",
".  c #222F07",
"X  c #242C0C",
"o  c #263409",
"O  c #26360A",
"+  c #2C3C0B",
"@  c #313E0F",
"#  c #2E261A",
"$  c #31271E",
"%  c #2D3B12",
"&  c #37361A",
"*  c #352721",
"=  c #352B21",
"-  c #3A2C25",
";  c #3D3327",
":  c #423429",
">  c #49382B",
",  c #4B3A2E",
"<  c #533D2B",
"1  c #433837",
"2  c #4E3D30",
"3  c #2B420D",
"4  c #32430D",
"5  c #36490D",
"6  c #3A4D0E",
"7  c #3E550D",
"8  c #2A4C10",
"9  c #384514",
"0  c #3B4D12",
"q  c #2C5B17",
"w  c #3E5212",
"e  c #385814",
"r  c #2F631E",
"t  c #2A6D1D",
"y  c #346418",
"u  c #356C1C",
"i  c #3D6D1A",
"p  c #2D751F",
"a  c #2E781F",
"s  c #34751E",
"d  c #3C751E",
"f  c #33781F",
"g  c #3D781F",
"h  c #394522",
"j  c #3B5927",
"k  c #1F752D",
"l  c #1F792F",
"z  c #2C6E22",
"x  c #257425",
"c  c #2A7523",
"v  c #277927",
"b  c #2E7C22",
"n  c #21762B",
"m  c #2D752A",
"M  c #237C2D",
"N  c #287E29",
"B  c #337423",
"V  c #327D21",
"C  c #3C7C21",
"Z  c #387A29",
"A  c #217E31",
"S  c #40570D",
"D  c #425A0E",
"F  c #405514",
"G  c #455D13",
"H  c #485E16",
"J  c #475A1B",
"K  c #456213",
"L  c #4A6314",
"P  c #4E6916",
"I  c #4D641A",
"U  c #446B19",
"Y  c #4E691A",
"T  c #506B17",
"R  c #526C1A",
"E  c #44741E",
"W  c #4B741E",
"Q  c #45781F",
"!  c #4C781F",
"~  c #55721C",
"^  c #59751E",
"/  c #537A1F",
"(  c #5C791E",
")  c #495826",
"_  c #584432",
"`  c #5F4A34",
"'  c #4D5132",
"]  c #624932",
"[  c #695439",
"{  c #765C3D",
"}  c #486127",
"|  c #556D20",
" . c #556824",
".. c #4A7422",
"X. c #447C21",
"o. c #4D7C21",
"O. c #5B7522",
"+. c #517E21",
"@. c #5D7A21",
"#. c #5C7030",
"$. c #617E24",
"%. c #637E2B",
"&. c #637836",
"*. c #5D5556",
"=. c #725A42",
"-. c #675A51",
";. c #687747",
":. c #716C54",
">. c #767070",
",. c #896747",
"<. c #906C49",
"1. c #2E8225",
"2. c #26812E",
"3. c #2A832A",
"4. c #2C892C",
"5. c #328322",
"6. c #3B8222",
"7. c #348823",
"8. c #3C8923",
"9. c #38852B",
"0. c #3B852B",
"q. c #318A29",
"w. c #228332",
"e. c #248A35",
"r. c #298B30",
"t. c #2A8438",
"y. c #378733",
"u. c #269338",
"i. c #448322",
"p. c #4C8222",
"a. c #428923",
"s. c #4C8A24",
"d. c #49892A",
"f. c #528422",
"g. c #558923",
"h. c #598B24",
"j. c #588728",
"k. c #5E922D",
"l. c #458A36",
"z. c #49923B",
"x. c #658325",
"c. c #688627",
"v. c #6A8927",
"b. c #678428",
"n. c #698629",
"m. c #638C2A",
"M. c #6C8B2A",
"N. c #708F2D",
"B. c #6C932E",
"V. c #68952F",
"C. c #73932D",
"Z. c #77982F",
"A. c #789A2F",
"S. c #6E8B31",
"D. c #738D38",
"F. c #699731",
"G. c #759531",
"H. c #769931",
"J. c #7A9C32",
"K. c #7C9A3B",
"L. c #7EA134",
"P. c #318D41",
"I. c #55964A",
"U. c #4F9550",
"Y. c #738A4D",
"T. c #669B59",
"R. c #7E9156",
"E. c #599E65",
"W. c #6A9D68",
"Q. c #749D6B",
"!. c #7C9D6B",
"~. c #6B9E74",
"^. c #6AA263",
"/. c #76A46D",
"(. c #77A66E",
"). c #7AA36D",
"_. c #6EA174",
"`. c #72A473",
"'. c #79A876",
"]. c #81A436",
"[. c #84A836",
"{. c #84A738",
"}. c #86A938",
"|. c #89AD39",
" X c #8CB13B",
".X c #81935B",
"XX c #8AA54E",
"oX c #849D6B",
"OX c #8E9578",
"+X c #85A36D",
"@X c #89A46D",
"#X c #85A979",
"$X c #827F82",
"%X c #7CAE85",
"&X c #86848B",
"*X c #88878E",
"=X c #8A888F",
"-X c #8C8C92",
";X c #918E93",
":X c #919097",
">X c #95949A",
",X c #99989E",
"<X c #89AB84",
"1X c #90B083",
"2X c #99AB9A",
"3X c #99B596",
"4X c #A9B392",
"5X c #9D9CA2",
"6X c #9AB4A0",
"7X c #A1A1A6",
"8X c #A5A5AA",
"9X c #A7ACA9",
"0X c #A9ABAE",
"qX c #A7B7A8",
"wX c #B6BEA3",
"eX c #ADAFB2",
"rX c #ADB3B2",
"tX c #B4B7B7",
"yX c #B5C0B6",
"uX c #BFBEC2",
/* pixels */
"(.(.`.~.~.~._.`.Q.(.(.oX+XoXoX).Q.(.(.(.Q./.(.(.~.~._._.`.(./.!.+XoX+XoX).Q.(.(.(.Q.(.(.(._.~._._.`.(.Q.(.!.oX+XoX).Q.Q.(.(.Q.Q.",
"7.7.b 3.w.w.e.2.b b f a.8.a.f t a V b 7.p 5.5.5.b w.A e.2.M 5.p 8.8.8.6.t p 1.f 7.V a 7.1.b 2.l e.w.2.1.a 6.a.8.6.a t 5.7.5.1.a ",
"g.6.b 5.3.2.w.A 2.M x 7.p 5.V a a 8.a.g g g.a.V b 3.w.e.w.M M x V a b b p p C a.g f s.p.C a 1.2.2.w.l 3.x a 1.a 5.b p f a.8.f i.",
"g.! V p 1.b N 3.3.n b a t a a b 6.f.f.g.p.f.o.C V 6.5.v M d.0.3.b c p f a 6.s.p.g.f.f.g.d f 5.5.M 3.3.2.N f a t f a 5.X.g.p.g.! ",
"g.p.! g 5.5.7.5.8.b a f f C i.X.f.+.+.f.h.g.f.p.j.G.k.6.j.].j.c V V a.p.g p.+.+.+.g.g.f.f.Q f 5.5.1.6.g a a f f i.i.Q p./ p./ g.",
"f.f.f.g.Q X.s.p.f.p.Q ! E o.! ! f.W +.j.J.M.j.M.J.H.H.G.{.H.j.o.n.J.M.+.Q g.! W ! +.W g.p.f.s.Q i.s.f.p.! i.i.Q W W f.f.W p.f.f.",
"i X.s g g C Q p.! f.! f.! f.p.! p.+.f.j.{.{.n.].G.XXH.N.G.$.M.V.J.G.@.W ! f.f.! p.W E g Q g Q g i.Q ! p.p.! f.! f.! ! ! ! f.W W ",
"V V a b s a V 8.6.a.X.Q p.s.! W o.n.J.H.B.G.b.M.$.%.$.M.].G.H.].n.S.x.f.+.H.n.! g i.i.a a a a a a 5.8.8.i.Q ! p.s.! ! f.Q f Q i.",
"5.a 5.5.5.a a 5.7.7.5.f f f 6.g 6.8.V.].M.x.M.].Z.M.v.( N.].^ x.@.XX].x.A.L.Q 5.5.a a 5.1.5.5.5.a a 1.7.7.a f f g 8.g 6.5.5.5.a ",
"a a a 5.a 5.a 5.f a a 7.b 5.5.7.5.5.C x.n.$.M.J.{.c.( D D c.T ( M.n.G.M.C.c.Q d f 5.1.a b B 5.a 5.a 5.5.a 1.7.a 5.7.5.1.5.a 5.5.",
"a 5.f a a 5.1.a b 5.b 7.5.7.5.7.7.5.s.].H.n.n.T c.R ( ( P T ~ $.A.G.x.b.J.A.c.C.d 5.f a V 6.b b 5.a a 7.a 7.1.5.7.7.7.5.1.5.a 5.",
"2.a 1.a 5.5.a 5.5.5.5.7.q.a 4.1.1.V B.].n.N.N..X&.G ].].( c.].x.@.n.c.^ C.].%.D.#.m.F.8.d.B.C 7.5.a a 5.5.5.7.1.b 4.1.1.5.a b 3.",
"w.w.v 1.b b a 5.a a 7.a n e.M 2.w.m n.n.( v.x..X$.L M. XG.J.M.^ M.}.x.R L n.&.4XwXD. XM.L.L.Z b a a 5.a 5.5.p 2.2.l w.l n 3.2.w.",
"e.w.2.k 1.a 7.1.a a a 5.4.2.2.w.t.A M o./ $.N.$.M.Z.b.C.N.c.x.~ ( c.R b.I &.S ~ H.c.C.M.M.M.o.X.5.5.5.a a a 5.4.w.w.e.e.k 2.w.u.",
"l w.w.e.w.x v b b b 7.b 7.1.k l e.w.M Z N j.|.v.( M.b.$.N.].}.^ P 5 I O.D D 7 w G.C.x.n.G.H.C.G.X.x a p 5.1.5.1.b l l e.e.w.w.w.",
"e.w.w.l w.l w.w.l k M b 5.b 3.2.A A p.V.B.n.M.N.O.b.Z.$.^ v.].H 0 J F .X#.C.^ 5 H @.$.^ x.J.@.+.E M w.k k 3.5.b 1.3.M w.l 2.l w.",
"l w.2.2.e.w.l e.4.2.a 1.1.f 5.1.1.w.0.j.H.J.M.@.x.[.].^ ^ L $.H H $.H &.&.$.N.G v.|.N.T K ^ E M n n w.4.1.b 5.1.5.5.1.w.w.e.w.w.",
"w.k l k l l l 1.c 7.7.7.a 1.6.7.5.4.0.o.@.M.C.O.N.G.I T T S G I x.Z.( c.R 6 R H Z.G.T ^ K 5 x M A 3.b 1.1.7.5.b 5.a 5.1.4.2.w.2.",
"2.2.3.1.b 1.3.1.7.f 7.7.f 8.6.f B.V.C ..c.].H.j.R L J S 4 S R $.N.|.v.~ P @ o F c.^ P $.v.S q a X.m 7.b 7.7.5.g 6.a a 7.1.a 2.r.",
"1.1.5.1.v a a 5.1.p 7.5.i.h.6.f V.}.b.@.Z.G.$.c.x.I ' . F c.N.M.x.c.( G P R 6 G C.Z.$.].K.;.5 W / 6.V s f 7.6.! p.6.5.7.f 7.1.4.",
"7.1.1.3.M l 3.a 5.5.5.p.+.g.F.J.C.C.N.( M.C.N.$.N.R + + ^ N.x.M.x.H D ( N.x.C.M.n.].$.x.&..XI x.+.C m.c.+.6.p.g.p.6.5.5.5.7.5.5.",
"7.a n k l 2.2.7.a 5.6.! +.f.j.H.].c.N.A.C.C.].C.$.( N.T ^ ].A.( x.^ L N.x.^ C.].N.b.N.A.^ I ( ].n.n.C.W g X.W p.f.Q 5.5.7.7.5.a ",
"7.7.1.2.A w.e.2.b 1.6.p.f.H.B.@.c.x.R c.}.c.$.M.( R N.x.C.Z.].c.].v.$.T P R ^ %.b.^ ( ].M.F ^ C.M.n.$.Y Q 5.i.a.g s p a 5.5.5.a ",
"8.6.a 1.l e.e.l 2.v z 7.V f.x.n.}.N.G D x.c.].].^ ( M.M.c.A.x.M.J.c.].M.T x.$.].A.T S F |  .n.x.n.J.].$.( Q 6.5.7.f p a 8.7.a f ",
"h.Q 5.s 7.a M 2.2.M b 1.p a o.].C.T ~ L S x.}.x.T ^ C.C.c.n.( $.C.c.M.M.L H M.[.^ ~ G + 6 G w 0 O.n.[.x.~ W s p a a 1.6.g.p.p.Q ",
"s.p.g f 5.5.1.5.5.b V V f g f.n..X#.T D I ( ~ 6 H G P $.%.^ T L N.}.C.( ^ ~ $.$.L @.F H $.Y o o @.I O./ V C t a f 6.Q ! f.f.h.g.",
"g.s.g.f.g g 8.s.p.E X.B.B.W ^ c.M.I D D N.N.D G + + $.].c.c.( S L x.M.L T ^ T $.^ 0 O.L x.J + 0 n.} h y g Q g X.Q ! f.f.! ! p.g.",
"U p.E p.Q i.p.! o.g...G.L.x.C.].D.$.x.x.b.G.R T @ 6 ].A.^ ].( 9 P J.J.P D D T N.O.G ^ S G w K 7 w & 5 K ! ..p.! f.! ! f.! / W W ",
"f f a a f a f 8.X.p.m.M.N.M.M.x..XY.K.J.M.%.$.G.^ R M.H H N.L 6 $.[.x.h.v.7 4 x.N.T L 5 4 5 I F h #.C.+.@.c.@.o.g.W ! W ! i.Q p.",
"6.b 5.a 5.a a 7.7.8.k.H.b.b.A.J.~ D P $.M.$.$.].].P F @ D L G D ~ x.W m.].S I }.n.x.$.O.Z.$.F T G T ].N.M.C.o.C 6.i.Q 8.8.f 5.f ",
"p 1.a 5.5.5.a 5.7.5.j.m.b.b.H.|.x.R ~ Z.}.^ ^ T $.6 F $.N.c.N.I S M.M.w J @ b.n.7 Z.^ 6 %.N.T c.].C.c.n.b.n.i.a a 5.a 5.5.5.7.p ",
"p b a a a a 5.a b C L.L.n.J.x.B.$.S $.].O.^ c.D L R O.M.|.C.R 9 # %. XO.9 4 J + & I @ & | Z.M.^ M.N.x.O.C.].h.5.7.7.7.5.7.a a 7.",
"M 1.5.a 5.5.p 5.5.k.}.C.M.L.J w 0 o I I o $.^ ^ J.M.C.x.M.O.o o 6 R A.Z.n.D P 9 ) ) & : C.|.I 5 O.C.C.T P v.h.5.1.7.1.7.1.a 5.q.",
"2.2.a 1.a a a 5.c V.G.+.j.b.' @ 4 J R S o ;.R ].J.( ].( c.$.4 ~ N.R 0 O.G.I D & H H + F A.I % 9 M.|.$.~ K U ! 2.2.2.2.l v 1.1.w.",
"r.w.2.l 1.5.1.1.c V V 5.X.Z ..P L n.V.G o ;.P | w D x.K ^ J.^ M.$.@ X H $.T T P H.R o J $.F ' ;.b.I 4 ^ K f s 2.w.2.w.w.k w.w.e.",
"w.e.w.l 2.t b 1.a f b b q.V L D L J.x.7 w R G . . @ H T P ( n.C.( H 4 H M.^ ~ ~ n.H 9 J M.x. .% w 6 4 L s a 7.q.n M w.e.w.w.w.e.",
"w.w.w.w.w.l w.2.n x M 5.a 6.s t Z n.Z M B J 4 J F 4 7 $.^ G c.}.J.P I | [.c.( M.J.^ + 9 n.M.b.I  .%.7 y u 3.a 5.1.2.l w.l w.w.w.",
"l w.w.k w.w.l 2.4.M x 5.7.f 1.1.M N e.A c 5 o $.Z.P C.n.4 D T T N.@ o J c.N.( $.{.b.. J [.H.G.M.h Y.u b n N 5.5.5.1.3.M w.w.l w.",
"w.2.A w.w.M k 3.b 5.1.7.f 1.5.b 3.w.r.Z @.M.M.$.C.x.C.F . 0 R % ) >.: J ].].R T %.@.o b.J.@.L.R o 8 3.1.7.7.5.5.5.a b 2.4.e.w.w.",
"2.k k M v 3.2.1.5.5.7.7.a 6.5.a 7.q.b V H $.J.M.n.N.].$.+ + 0 % - :.> M.].R R ~ ;.) o u c Z x.i r G V B 1.7.5.B 5.a 1.7.7.v 2.w.",
"1.3.5.1.a 1.5.a b a 7.6.g g.6.a 7.5.5.f u d $.x.@.$.].].G o o ; - = 9 O.P o I w % r o p 4.5.g a 1.f f a a 7.5.p.s.f a 7.5.5.1.1.",
"5.1.q.1.v M v 5.a 5.7.a.p.g.i.1.7.c 7.7.7.i.C.J.@.^ @.C.o.q $ ; ; - $ $ o o q y 3 b a c 1.1.1.M v b f 1.7.7.! g.g.8.5.5.5.7.1.7.",
"7.a 3.k l 2.M 7.5.5.g p.! f.! f 7.7.7.5.V B.}.x.$.M.B X.q.b ; ; 1 *   & q q 5.7.5.1.b 5.b l k k l 2.7.b 5.a.! f.p.Q 1.7.1.7.5.a ",
"7.5.1.l w.k e.1.1.5.6.! i.p.E b s 7.1.5.s m.c.i $.| m w.4.a j > , * * e f a f 5.7.a f 7.1.b w.w.w.4.b a 7.Q i.p.W g a 5.7.5.5.a ",
"8.5.1.a l e.w.l v 1.a 8.5.5.f t a 5.6.7.s 8.8.f i V w.e.w.M j ` 2 * = C t p 5.5.5.a 6.8.5.a 1.M e.e.l 1.c 5.6.6.7.a a f 5.5.5.f ",
"h.a.a 1.4.3.w.e.w.M c 5.a 5.a 5.p a.i.Q Q s.p.f a 1.3.M w.2.j [ 2 - = z a p 6.p.i.g g.f.6.a 1.1.2.2.2.2.M b a c a a a f p.a.g i.",
"p.! g a 5.5.1.1.5.v f a t f 6.f i.g.f.g.f.f.! a.c 1.5.b 1.1.j _ ] : = B a 8.f.g.g.g.f.f.Q f a 1.5.1.1.2.b f a t C b g p.g.g.g.f.",
"h.g.s.p.a s 5.6.a.f f f f E p.Q f.W f.! f.h.f.f.o.C V 8.5.i.) _ ] - * ..i.p.! +.! f.g.g.p.g.a.f f 5.i.6.f f s f i.p.p.+.W f.W g.",
"! p.! f.Q o.s.+.p.f.! p.! ! ! ! g.! o.o.! W p.W p.f.! p.p.! } 2 , $ $ } ! f...+.p.! W W p...f.X.p.p.! f.p.! p.! f.! ! f.! f.o.W ",
"d f f f s f 6.i.! f.! / p.f./ ! o.! p.! o.Q g V f g f C 8.Q  .] 2 : & o.o.! +.+.! ! ! f V s C s 6.8.Q f.p.! f.W f.! Q ! ! p.! ! ",
"5.a f a a a a 5.5.8.g g i.a.p.Q ! i.5.C 6.5.a a b a b a 7.7.} _ ] : = X.! X.p.d.0.i.8.b f a c b a 5.7.8.6.g E 8.i.p.Q p.i.f 6.6.",
"f a 1.7.5.5.a 5.7.5.5.5.a a 8.f V 5.V 7.a b V 5.5.f 1.a p 5.} [ [ ; $ Z #X#XW.qX6XW.l.a l.l.5.7.a a 1.7.a 5.5.a s 6.V 6.b 5.1.a ",
"a a a a a 1.a 5.5.a 5.7.f 7.1.7.5.5.b V b b a p a 5.a 1.a V ' { ` > : 2XrX7X7X:XrXrX2XW.qX2X`.V 5.a p 5.a 1.7.5.7.5.5.5.5.a a 7.",
"a 7.5.a 5.5.5.a a 5.a 7.7.b 5.7.5.5.5.b 5.b 5.1.a a 0.^.T.T.[ { =.] < ;X,X;X&X=X7X7X:XrX5X-XrX3XI.1.z.8.a 5.7.b 5.7.7.1.7.a b 7.",
"M 2.b b a 5.a 5.a 5.5.5.1.3.4.3.3.b b 1.M w.w.b 1.y.3X0X8X9X=.<.,.] > &X=X=X*X*X;X:X=X=X*X*X5X5X2X<XtX#X5.5.1.1.3.4.2.3.b b 1.2.",
"r.w.n 3.5.a a 5.a a 1.f M e.n w.w.n M 3.e.w.e.k 1.V <X0X=X;X=.<.<.< : =X=X*X*X*X*X*X*X=X*X-X8X5X-X>X9XQ.1.5.a 2.2.k 2.w.l M w.r.",
"w.e.w.k 3.b 5.1.a a a a 7.2.l w.e.w.A w.e.e.e.e.M %X0XuX-X$X{ <.,.< : $X*X*X*X*X*X-X5X*X*X*X*X5X-X0XqXI.a a 7.3.l w.2.e.w.w.w.e.",
"w.w.w.2.w.n n M v b 4.a 7.7.M k w.w.w.w.A w.A P.6XuX:X5X-X$X{ <.,.< - $X*X*X*X*X*X*X-X-X-X*X5XtX-XrXU.v b q.a V 1.M l w.w.w.e.w.",
"w.A w.k w.l w.w.w.l n 1.5.5.1.3.w.M w.M w.w.A e.~.6X:X7X5X>.[ ,.,.>   *.*X*X*X:X*X*X*X>X5X>X:X8XrXtXE.M k M 5.5.1.1.2.l w.w.l w.",
"l w.w.w.e.M l 2.1.1.1.7.5.b 5.1.2.w.e.w.A A l w.w.U.uX-X5X<.:.<.{ < $ _ :X7X-X5X0X7X*X*X>XeX:XrX%X~.t.1.1.7.5.5.a 5.1.2.e.e.A w.",
"e.k l l 3.M 2.1.a 5.7.7.a 5.a 5.1.4.1.2.w.e.w.k l y.6XqX<X'.'.#X{ > 1 >.5X8X*X*X>X>X;X*X=X>X5XuX%X3.1.b 7.7.7.a 5.1.1.7.4.c w.e.",
"1.w.b 7.a 1.b b 5.a 7.7.g s.C a 7.7.a b 4.1.M 1.w.M 1.U.a 5.f T.OX-.-.=X:X8XeX7X>X9X3X9X5XyX1X#XI.b 5.b 5.7.f a.a.f a 7.1.p 3.2.",
"a 7.1.1.b k b 5.a a 7.6.! g.6.a 7.b 5.7.5.7.5.5.1.1.x M p 5.p 5.l.oX@XeX3XW.l.'.3XI.8.I.3X`.1.v 1.a 1.p f 7.Q p.p.6.p 7.1.7.7.7.",
"(.(.`.~._._.~.(.(.(.(.@X@X@X!.(.(.(.(.(.(.(.(._.~.~._.(.(.(.(.(.+XoX@X1X#X(.(.(.'././.(.'.`.~.`.~.~.(.(.(.(.@X@X@X!.(.(.(.(.(.(."
};
