/* XPM */
static char *b9803ff1a01c4926e13485bbc775a9b7rDhJN6oCi5AJZQVR[] = {
/* columns rows colors chars-per-pixel */
"64 64 153 2 ",
"   c None",
".  c #3F3857",
"X  c #3F3858",
"o  c #403858",
"O  c #403958",
"+  c #413A59",
"@  c #423B5A",
"#  c #423C5B",
"$  c #433C5B",
"%  c #433D5C",
"&  c #443D5C",
"*  c #443E5D",
"=  c #453F5D",
"-  c #463F5D",
";  c #463F5E",
":  c #47405E",
">  c #47415F",
",  c #484260",
"<  c #494260",
"1  c #494361",
"2  c #484463",
"3  c #494463",
"4  c #4B4562",
"5  c #4B4663",
"6  c #4C4663",
"7  c #4C4763",
"8  c #494464",
"9  c #494564",
"0  c #4A4564",
"q  c #4A4565",
"w  c #4A4665",
"e  c #4B4766",
"r  c #4C4764",
"t  c #4D4765",
"y  c #4C4866",
"u  c #4C4867",
"i  c #4D4867",
"p  c #4C4967",
"a  c #4D4967",
"s  c #4E4968",
"d  c #4E4A68",
"f  c #4E4A69",
"g  c #4F4B69",
"h  c #4F4B6A",
"j  c #504A67",
"k  c #504C6A",
"l  c #514D6B",
"z  c #534E6A",
"x  c #514D6C",
"c  c #514E6C",
"v  c #524E6C",
"b  c #53506E",
"n  c #56526D",
"m  c #54516E",
"M  c #55516E",
"N  c #55526F",
"B  c #585571",
"V  c #585472",
"C  c #595672",
"Z  c #5B5874",
"A  c #5E5C77",
"S  c #615C77",
"D  c #625D78",
"F  c #635F79",
"G  c #65607A",
"H  c #65617A",
"J  c #65617B",
"K  c #66627B",
"L  c #66627C",
"P  c #67637C",
"I  c #67637D",
"U  c #69657E",
"Y  c #69657F",
"T  c #69667F",
"R  c #6A667F",
"E  c #6B6780",
"W  c #6B6880",
"Q  c #6C6881",
"!  c #6C6981",
"~  c #6C6982",
"^  c #6D6982",
"/  c #6D6A82",
"(  c #6E6B83",
")  c #6F6C84",
"_  c #6F6C85",
"`  c #706C84",
"'  c #706D84",
"]  c #706D85",
"[  c #706E85",
"{  c #716E85",
"}  c #737088",
"|  c #74728B",
" . c #74738B",
".. c #76748B",
"X. c #75748D",
"o. c #797890",
"O. c #7A7991",
"+. c #7B7A92",
"@. c #7B7B93",
"#. c #7C7B93",
"$. c #7D7C93",
"%. c #7C7C94",
"&. c #7D7C94",
"*. c #7D7D94",
"=. c #7F7E96",
"-. c #7F7F96",
";. c #807F96",
":. c #807F97",
">. c #808097",
",. c #818198",
"<. c #828199",
"1. c #828298",
"2. c #828299",
"3. c #828399",
"4. c #838399",
"5. c #83839A",
"6. c #84859B",
"7. c #85859B",
"8. c #85869C",
"9. c #86869C",
"0. c #898A9E",
"q. c #898A9F",
"w. c #8B8E9F",
"e. c #8C8E9F",
"r. c #8D90A1",
"t. c #8F92A2",
"y. c #9093A4",
"u. c #9296A6",
"i. c #9396A6",
"p. c #9397A7",
"a. c #9497A6",
"s. c #9497A7",
"d. c #9598A7",
"f. c #9599A8",
"g. c #969AA9",
"h. c #979AA9",
"j. c #979AAA",
"k. c #979BAA",
"l. c #989CAB",
"z. c #999DAC",
"x. c #9A9DAC",
"c. c #9A9EAC",
"v. c #9A9EAD",
"b. c #9B9FAD",
"n. c #9CA1AF",
"m. c #9DA1AF",
"M. c #9DA1B0",
"N. c #9DA2B0",
"B. c #9FA4B1",
"V. c #A0A5B2",
"C. c #A0A6B2",
"Z. c #A1A6B3",
"A. c #A1A7B3",
/* pixels */
"                                                                                                                                ",
"                                                                                                                                ",
"                                                                    O o O O O O O O O O                                         ",
"                                                                    7 y y 7 7 y 7 7 y 7                                         ",
"                                                        O O o o o 7 e.d.d.d.d.d.s.d.d.e.y O                                     ",
"                                                        7 e y 7 7 n h.A.Z.Z.Z.Z.Z.Z.A.d.7 O                                     ",
"                                                O o o 5 e.d.d.d.d.g.n.Z.Z.B.Z.Z.Z.Z.Z.d.7 o                                     ",
"                                                7 e 7 n h.Z.Z.Z.Z.Z.n.n.n.n.n.n.n.n.M.s.z :                                     ",
"                                        O O . 5 w.g.g.k.B.B.B.B.B.n.q.8.8.8.8.8.8.8.8.8.*.| < O                                 ",
"                                        7 e 7 n g.A.B.B.N.N.N.N.n.x.8.1.5.-.5.5.:.5.5.1.<.+.< O                                 ",
"                                    . 7 e.d.d.g.B.Z.B.M.q.8.8.8.8.8.1.1.5.5.5.5.:.5.:.8.<.+.2 X                                 ",
"                                    5 n h.Z.Z.Z.n.N.N.z.8.1.<.<.1.1.1.1.5.-.5.-.5.1.5.:.<.+.y 2                                 ",
"                                o 5 w.h.B.B.B.M.q.8.8.8.5.<.<.<.5.1.1.5.-.5.5.5.5.1.5.5.1.-.+.| < o                             ",
"                                e n g.Z.M.M.M.z.8.1.1.1.5.5.<.<.1.5.5.5.5.5.5.-.:.5.:.5.5.5.5.+.5 .                             ",
"                            . 5 e.g.B.M.q.8.8.8.1.5.1.1.5.-.5.5.5.1.5.:.-.5.-.5.5.5.:.1.5.5.1.O.< O                             ",
"                            5 n g.A.M.z.8.1.5.:.5.1.5.1.5.5.-.5.1.5.1.5.5.5.5.5.5.1.5.5.:.5.5.O.5 O                             ",
"                    O o . 5 e.g.Z.n.q.8.1.5.1.5.5.-.5.-.5.5.5.-.<.3.<.3.<.3.<.3.<.3.<.3.<.3.3.o.: O                             ",
"                    7 y 7 n g.Z.n.x.8.1.1.1.5.1.5.5.5.5.-.5.5.5.3.<.3.<.3.<.3.<.3.<.3.<.3.<.<.*.d <                             ",
"                O 7 w.d.d.g.B.n.q.8.1.1.5.5.1.5.5.-.5.5.5.-.5.-.<.3.<.3.<.3.<.3.<.3.<.3.<.3.<.<.$.| < O                         ",
"                X 7 g.Z.Z.Z.n.x.8.1.1.1.5.-.5.1.5.5.-.5.5.5.5.5.3.<.3.<.3.<.3.<.3.<.3.<.3.<.3.<.1.@.< O                         ",
"                X 7 d.Z.B.M.q.8.5.5.5.5.-.5.-.5.5.-.5.-.5.5.5.5.<.3.<.3.<.3.<.3.<.3.<.3.<.3.<.3.5.@.5 o                         ",
"                5 n g.Z.M.z.8.1.5.-.5.-.5.5.5.5.5.5.5.5.-.5.-.5.3.<.3.<.3.<.3.<.3.<.3.<.<.<.3.<.>.@.> o                         ",
"            O 7 e.k.B.M.q.8.5.1.<.<.5.5.5.5.-.5.5.-.5.5.5.5.5.-.<.3.<.3.<.3.<.3.<.3.<.3.<.<.1.5.<.@.: o                         ",
"            O 7 t.z.n.g.1.-.1.1.<.<.5.-.5.-.5.5.5.5.-.5.-.5.5.5.3.<.3.<.3.<.3.<.3.<.3.<.<.<.5.1.5.+.y :                         ",
"            O : Q { { { ( ) >.1.<.<.<.3.5.5.5.5.5.5.5.-.5.-.5.-.<.3.<.3.<.3.<.3.5.1.5.1.5.1.1.5.1.*.R D : O                     ",
"            O : G R R R R Q $.-.<.*.3.<.-.5.-.5.-.5.5.5.5.5.5.5.3.<.3.<.3.<.3.<.1.1.1.5.<.5.-.-.1.$.Q G : O                     ",
"            o = F R R R R R Q Q ~ ) <.<.5.1.5.1.5.-.5.-.5.-.5.5.<.3.<.3.<.3.<.3.1.1.1.1.<.-._ ~ Q Q E G = O                     ",
"            = 5 Q { { { Q R R R E ~ @.-.1.5.1.5.5.5.5.5.5.5.-.5.3.<.3.<.3.<.3.<.-.-.-.-.-.+.~ E E E E G < O                     ",
"        O : D Q i.x.x.d.( R R R T R ~ ) -.1.1.1.5.-.5.5.5.-.5.-.1.1.1.1.<.3.<.-.) Q Q Q ( Q R R E R R G = O                     ",
"        O = D ( x.Z.Z.x...( R R R R R ~ *.-.1.1.5.5.-.5.5.5.5.5.1.1.<.-.<.*.-.*.~ R ~ R R R R R R R E G 2 O                     ",
"        O % e C g.Z.Z.Z.n.d.( R R ~ R R Q ) -.1.5.5.5.5.5.5.5.-.5.-.) Q ~ ~ ~ ~ R R R R R R R R R ~ R G d 5 # #                 ",
"        O = 8 N g.B.n.n.B.x...{ ) ) R R E ~ *.;.-.5.-.5.-.5.-.-.<.+.~ R R R T E R R R R R ~ ( { ) [ ) ~ h 5 # O                 ",
"        # X q N g.M.q.q.M.B.M.z.x.s.Q R R E Q ( :.1.5.1.1.>.{ Q ~ ~ R R R R R R R R R R R ( i.x.x.x.x.y.m 8 # O                 ",
"        # % q N g.M.8.8.z.N.B.B.Z.n...' E E E Q #.:.1.1.;.*.Q R E E R R R R R E ' { { ) { ..n.Z.Z.B.Z.k.N 8 # #                 ",
"    # # 2 e 8 N g.M.8.5.8.q.N.B.Z.m.b.s.( R R R ( ( 1.*.) Q R R T R R E E E T Q s.x.z.z.x.n.B.B.Z.Z.Z.d.N 8 # X                 ",
"    # # 8 e m A k.M.8.1.1.8.l.M.n.n.Z.z.X.( R R E ( +.*.~ E R R R E ( { ) ) { ..n.A.Z.B.B.B.n.n.n.n.n.p.Z h % %                 ",
"    O % e m r.z.B.M.8.1.5.5.8.8.8.q.n.Z.z.s.{ R E E E E R R R R R ( d.x.z.z.z.z.M.B.Z.B.B.n.q.8.8.8.8.8.*.X.h q # O             ",
"    O # 8 N k.B.M.z.8.1.-.5.5.<.<.8.x.n.Z.b.| { E E E E R Q ' { ' | n.Z.Z.B.Z.A.n.n.N.n.n.n.5.<.1.1.5.1.5.+.h q # #             ",
"    O % 8 N g.M.q.8.5.1.5.5.5.-.>.8.8.q.M.A.z.i.( E E E R Q i.x.x.x.Z.B.B.Z.Z.M.w.8.8.8.8.8.3.<.1.1.1.5.1.+.b q # O             ",
"    O % 8 N g.M.8.1.1.1.-.5.5.5.>.1.1.8.z.M.M.z.( E L E ' ..x.Z.A.B.n.n.n.n.n.z.5.1.5.<.3.5.3.<.1.1.5.1.5.+.V h = #             ",
"    O = 8 N g.M.8.5.1.5.5.1.5.5.<.8.>.8.8.9.9.8.Q ~ R { d.z.Z.Z.B.m.w.8.8.8.8.8.5.5.<.<.<.3.<.3.-.5.5.:.1.:.#.X.k 5 # O         ",
"    O # 8 n g.B.8.1.5.:.:.5.-.5.<.>.>.8.>.<.1.$.Q Q Q ..n.Z.n.n.n.x.8.1.3.<.1.5.1.1.3.<.3.<.3.<.5.1.5.5.5.1.8.#.k 2 % #         ",
"    O # q N g.N.8.5.:.5.5.5.:.1.<.>.8.<.1.1.1.>.Q { d.z.B.M.q.8.8.8.1.1.<.3.<.3.<.3.<.3.<.3.<.3.5.5.5.1.1.5.5.#.c 8 O O         ",
"    # # q N t.k.5.5.5.1.5.1.5.5.8.>.>.<.1.1.1.;.Q { z.Z.n.z.8.1.5.1.1.1.3.<.3.<.3.<.3.<.3.<.3.<.5.-.5.:.5.1.-.O.n d = O         ",
"    O # q h ~ } :.5.1.5.5.5.5.5.-.5.-.5.1.5.1.-.Q { z.M.q.8.5.1.1.5.<.3.<.3.<.3.<.3.<.3.<.3.<.3.5.5.-.5.1.;.{ E I F y 5 % O     ",
"    # # 2 h K ~ #.-.5.1.5.-.5.-.5.5.5.5.5.1.5.-.E Q z.M.8.:.1.5.5.1.3.<.3.<.3.<.3.<.3.<.3.<.3.<.-.-.-.-.;.*.Q E R L k 8 # O     ",
"    O # 5 h K R ~ _ -.5.-.5.5.5.5.5.-.5.-.5.1.+.b C g.M.8.5.:.5.1.<.<.<.<.3.<.3.<.3.<.3.<.3.<.<.( ~ ~ ~ Q Q R R R L k 8 % #     ",
"    # # 8 y T R E ~ +.-.-.-.-.-.5.-.5.5.5.5.5.+.x N g.M.8.5.5.1.5.<.<.<.3.<.3.<.3.<.<.*.<.*.*.*.~ E E E R R R R R L k 8 # O     ",
"    O % 8 k L R R R ~ Q Q Q Q ) 1.1.1.1.1.5.5.#.x N g.M.8.1.5.5.1.5.1.1.1.1.1.1.1.*.{ Q Q Q Q Q E E E L E I E E R L k 5 O O     ",
"    O # 8 d G T R R R R ~ R ~ Q *.*.-.-.-.-.*.O.x b t.z.8.1.:.5.5.1.*.<.<.*.<.>.1.*.~ R E R ~ R E E E E E E L L L D k 8 % O     ",
"    O % 5 e h k G R R R R R R R Q Q ~ ~ ~ Q ( E d d Q } :.5.1.1.1.-.( Q ~ ~ Q Q Q Q R R R R R R E E E L E I c d k d d e % #     ",
"    O % 5 e y h G L R R R R R R R R R R E E E F h d L ( #.-.-.-.<.+.~ R R E R R E E R R R R R R L L L F L F d e 8 e 8 8 # O     ",
"    O % 8 y y y y m R R R R R R R R R R R E E L d h L E ~ ~ E ~ ~ E E E R R R R E R R R R R R L c k d k d d e e e y 8 8 # O     ",
"    O % 8 e 8 8 e y D K L L L L R E R R R E E L h d L E E E E E E E T E R G G L L L L L L L L G d e e e e u e u 8 e 8 q # O     ",
"        # # # & 8 y y k h h h k L E R R R R E L d h L E E E E E E E T L c k h h h k d d h h h d e e e e e e e 8 = O = #         ",
"        O # O # e y e e e e e h D L L L L L L D d d D L F L F L L L L D d e e e e 8 d 8 e e e e e e e e e e e q = O # O         ",
"                e e e e e e e e d h d d d h d h e e h d d d c d d d d d p e e e e e e e e e e e e p 8 d 8 d                     ",
"                e e e e e e e e e e d e e e e e e e e e e d 8 e p 8 e e e e e e e e e e e e e e e 8 d 8 d 8                     ",
"                            e e e e e e e e e e e e e e e e e e e e e e e e e e e e e e e e                                     ",
"                            e e e e e e e e e e e e e e e e e e e e e e e e e e e e e e e e                                     ",
"                                                                                                                                ",
"                                                                                                                                ",
"                                                                                                                                ",
"                                                                                                                                "
};
